<svg width="279" height="54" viewBox="0 0 279 54" fill="none" xmlns="http://www.w3.org/2000/svg">
<g clip-path="url(#clip0_67_250)">
<path d="M19.9001 41.8502C14.2901 41.5902 9.62005 39.6001 5.94005 35.8701C1.92005 31.8501 -0.0699463 27.0401 -0.0699463 21.4001C-0.0699463 15.7601 2.01005 10.6902 6.20005 6.64015C10.1601 2.82015 14.8901 0.910156 20.4101 0.910156H35.3901C35.3901 2.48016 34.8201 3.84015 33.7101 4.95015C32.6001 6.06015 31.2301 6.63015 29.6701 6.63015H20.9301C16.8601 6.63015 13.3801 8.08016 10.5001 10.9602C7.62005 13.8402 6.20005 17.3102 6.20005 21.3902C6.20005 25.8602 7.88005 29.5602 11.2701 32.5002C13.8901 34.5802 16.9101 35.6102 20.3001 35.6102C24.3701 35.6102 27.8501 34.1602 30.7301 31.2802C33.4901 28.5502 34.9201 25.1002 35.0601 20.9702V20.8602H19.5601C19.5601 19.2702 20.1301 17.9001 21.2401 16.7901C22.3501 15.6801 23.7201 15.1102 25.2801 15.1102H40.7801V21.4102C40.7801 27.1102 38.7901 31.9202 34.8001 35.8802C30.9301 39.7302 26.1101 41.7502 20.3601 41.8902L19.9001 41.8602V41.8502Z" fill="#38B773"/>
<path d="M82.35 17.3301V19.2601C82.35 19.5401 82.33 19.8101 82.3 20.0701C82.13 21.3001 81.59 22.3901 80.67 23.3001C79.56 24.4101 78.19 24.9801 76.6 24.9801V23.0401C76.6 21.4801 77.17 20.1101 78.28 18.9901C79.42 17.8801 80.79 17.3101 82.35 17.3101V17.3301Z" fill="#E38F48"/>
<path d="M45.05 19.9202C45.05 18.3502 45.62 16.9902 46.73 15.8802C47.87 14.7702 49.24 14.2002 50.8 14.2002V36.1302C50.8 37.7302 50.23 39.0902 49.12 40.2002C48.01 41.3102 46.64 41.8802 45.05 41.8802V19.9202Z" fill="#38B773"/>
<path d="M82.76 22.6902V39.8502C82.76 43.7002 81.4 46.9402 78.69 49.6502C75.99 52.3602 72.74 53.7002 68.92 53.7002H55.08C55.08 51.4802 56.11 49.7702 58.19 48.6002C59.01 48.1802 59.9 47.9802 60.84 47.9802H68.93C71.18 47.9802 73.09 47.1802 74.66 45.5802C76.25 44.0202 77.05 42.1102 77.05 39.8602V39.2602C74.69 41.0002 71.98 41.8802 68.93 41.8802C66.06 41.8802 63.49 41.0802 61.18 39.5202C59.42 38.3302 57.99 36.8202 56.93 34.9602C55.7 32.8502 55.08 30.5402 55.08 28.0402C55.08 24.2202 56.42 20.9702 59.13 18.2702C61.83 15.5602 65.11 14.2002 68.93 14.2002H79.19C78.59 14.4702 78.02 14.8702 77.51 15.3702C76.4 16.4802 75.83 17.8502 75.83 19.4202V19.9302H68.94C66.69 19.9302 64.78 20.7302 63.22 22.3302C61.65 23.8902 60.86 25.8002 60.86 28.0502C60.86 28.8802 60.97 29.6502 61.2 30.3902C61.83 32.3502 62.99 33.8902 64.74 34.9702C65.99 35.7402 67.39 36.1402 68.95 36.1402C70.51 36.1402 71.91 35.7402 73.2 34.9702C74.94 33.8902 76.11 32.3502 76.73 30.3902C76.96 29.6502 77.07 28.8802 77.07 28.0502C77.07 27.8702 77.07 27.7102 77.09 27.5302V27.6202C78.69 27.6202 80.06 27.0502 81.16 25.9402C82.07 25.0302 82.62 23.9402 82.79 22.7102L82.76 22.6902Z" fill="#38B773"/>
<path d="M124.13 1.0498V42.0098C122.53 42.0098 121.16 41.4398 120.06 40.3298C118.95 39.2198 118.38 37.8498 118.38 36.2898V16.1498L105.99 36.2898C105.57 36.9498 105.05 37.5198 104.45 37.9398C103.51 38.5998 102.48 38.9698 101.34 39.0298C100.2 38.9698 99.15 38.5998 98.21 37.9398C97.61 37.5198 97.12 36.9498 96.7 36.2898L84.28 16.4398L81.25 11.3398C79.48 8.3598 78.55 4.9598 78.55 1.4998V1.0498C80.12 1.0498 81.48 1.6198 82.6 2.7298C83.08 3.2098 83.48 3.77981 83.77 4.40981L83.8 4.3798L101.34 32.8698L118.86 4.3798L118.92 4.40981C119.2 3.77981 119.58 3.2098 120.06 2.7298C121.17 1.6198 122.54 1.0498 124.13 1.0498Z" fill="#38B773"/>
<path d="M149.69 38.7702C149.26 37.9702 149.06 37.0902 149.06 36.1502V28.0302C149.06 25.7802 148.26 23.8702 146.67 22.3002C145.1 20.7002 143.19 19.9102 140.94 19.9102C138.69 19.9102 136.78 20.7102 135.21 22.3002C133.64 23.8702 132.85 25.7802 132.85 28.0302C132.85 30.2802 133.65 32.1902 135.21 33.7802C136.78 35.3502 138.69 36.1402 140.94 36.1402H143.3C145.66 36.1402 147.4 37.2802 148.57 39.5902C148.88 40.3002 149.05 41.0402 149.05 41.8702H140.93C136.32 41.8702 132.58 39.9602 129.71 36.1402C127.97 33.7502 127.09 31.0402 127.09 28.0202C127.09 24.1702 128.43 20.9302 131.13 18.2202C133.84 15.5102 137.11 14.1802 140.93 14.1802H141.64C142.12 14.2102 142.64 14.2702 143.12 14.3502C143.78 14.4402 144.29 14.5502 144.72 14.6902C145.26 14.8302 145.75 15.0002 146.2 15.2002C147.2 15.6302 148.11 16.1402 148.96 16.7402L149.05 16.8002C149.65 17.2302 150.19 17.7102 150.73 18.2202C153.44 20.9302 154.77 24.1702 154.77 28.0202V41.8602C152.55 41.8602 150.84 40.8302 149.67 38.7502L149.69 38.7702Z" fill="#38B773"/>
<path d="M159.06 41.8799C159.06 40.3099 159.63 38.9499 160.74 37.8399C161.85 36.7299 163.22 36.1599 164.78 36.1599H167.4C168.85 36.1599 170.02 34.9899 170.02 33.5399C170.02 32.0899 168.85 30.9199 167.4 30.9199C166.49 30.9199 165.61 30.7799 164.78 30.4899C163.33 30.0099 162.1 29.1799 161.11 28.0399C159.74 26.4699 159.06 24.6499 159.06 22.5399C159.06 20.2299 159.86 18.2699 161.48 16.6399C163.1 15.0099 165.1 14.1899 167.4 14.1899H175.77C175.77 15.6099 175.31 16.8699 174.37 17.9199C173.2 19.2599 171.75 19.9399 170.01 19.9399H167.39C165.94 19.9399 164.77 21.0799 164.77 22.5299C164.77 23.9799 165.94 25.1499 167.39 25.1499C169.95 25.1499 172.06 26.1199 173.69 28.0299C175.09 29.5999 175.77 31.4199 175.77 33.5299C175.77 35.8399 174.94 37.7999 173.32 39.4299C171.7 41.0599 169.7 41.8799 167.4 41.8799H159.05H159.06Z" fill="#38B773"/>
<path d="M262.3 41.8799C262.3 40.3099 262.87 38.9499 263.98 37.8399C265.09 36.7299 266.46 36.1599 268.02 36.1599H270.64C272.09 36.1599 273.26 34.9899 273.26 33.5399C273.26 32.0899 272.09 30.9199 270.64 30.9199C269.73 30.9199 268.85 30.7799 268.02 30.4899C266.57 30.0099 265.34 29.1799 264.35 28.0399C262.98 26.4699 262.3 24.6499 262.3 22.5399C262.3 20.2299 263.1 18.2699 264.72 16.6399C266.34 15.0199 268.34 14.1899 270.64 14.1899H279.01C279.01 15.6099 278.55 16.8699 277.61 17.9199C276.44 19.2599 274.99 19.9399 273.25 19.9399H270.63C269.18 19.9399 268.01 21.0799 268.01 22.5299C268.01 23.9799 269.18 25.1499 270.63 25.1499C273.19 25.1499 275.3 26.1199 276.93 28.0299C278.33 29.5999 279.01 31.4199 279.01 33.5299C279.01 35.8399 278.18 37.7999 276.56 39.4299C274.94 41.0599 272.94 41.8799 270.64 41.8799H262.29H262.3Z" fill="#38B773"/>
<path d="M199.8 41.8798C196.67 41.8798 193.9 40.9698 191.48 39.1198C187.78 36.2398 185.93 32.5698 185.93 28.0398V17.7598H180.06C180.06 17.0498 180.23 16.3598 180.6 15.7398C181.6 13.9998 183.36 12.8298 185.93 12.2398V0.299805C187.53 0.299805 188.89 0.869804 190 2.0098C191.11 3.1198 191.68 4.4898 191.68 6.0498V11.9998H206.66C206.66 13.5998 205.86 14.9598 204.27 16.0698C202.7 17.1798 200.77 17.7498 198.52 17.7498H191.68V27.6598C191.68 29.9098 192.48 31.8198 194.04 33.3898C195.64 34.9598 197.54 35.7498 199.79 35.7498H200.16C203.12 35.7498 205.2 37.2298 206.4 40.1598C206.57 40.6998 206.66 41.2698 206.66 41.8698H199.8V41.8798Z" fill="#38B773"/>
<path d="M221.36 41.8802C217.54 41.8802 214.27 40.5402 211.56 37.8402C208.85 35.1302 207.52 31.8602 207.52 28.0402C207.52 24.2202 208.86 20.9502 211.56 18.2402C214.27 15.5302 217.54 14.2002 221.36 14.2002C225.18 14.2002 228.45 15.5402 231.16 18.2402C233.07 20.1502 234.32 22.4602 234.92 25.1602C235.12 26.1002 235.2 27.0402 235.2 28.0402C235.2 29.0402 235.11 29.9802 234.92 30.8902H214.7C214.7 29.3202 215.27 27.9602 216.38 26.8502C217.49 25.7402 218.86 25.1702 220.42 25.1702H228.94C228.51 24.0602 227.91 23.1202 227.09 22.2902C225.52 20.7202 223.61 19.9302 221.36 19.9302C219.11 19.9302 217.2 20.7302 215.63 22.3202C214.06 23.8902 213.27 25.8002 213.27 28.0502C213.27 30.3002 214.07 32.2102 215.63 33.7802C217.2 35.3502 219.11 36.1402 221.36 36.1402H226.83C228.48 36.1402 229.88 36.7402 231.02 37.9602C232.05 39.0702 232.56 40.3802 232.56 41.8902H221.37L221.36 41.8802Z" fill="#38B773"/>
<path d="M260.13 15.9902C259.82 16.8702 259.36 17.6102 258.73 18.2702C257.62 19.3802 256.25 19.9502 254.66 19.9502H253.32C251.07 19.9502 249.16 20.7502 247.59 22.3102C245.99 23.8802 245.2 25.7902 245.2 28.0402V36.1602C245.2 37.1002 245 37.9802 244.57 38.7802C243.4 40.8602 241.69 41.8902 239.47 41.8902V14.2002C241.04 14.2002 242.4 14.7702 243.51 15.8802C243.94 16.3102 244.28 16.7602 244.56 17.3002C247.07 15.2202 249.97 14.2002 253.3 14.2002H260.39C260.39 14.8302 260.3 15.4202 260.11 15.9902H260.13Z" fill="#38B773"/>
</g>
<defs>
<clipPath id="clip0_67_250">
<rect width="279" height="54" fill="white"/>
</clipPath>
</defs>
</svg>
