<svg width="21" height="20" viewBox="0 0 21 20" fill="none" xmlns="http://www.w3.org/2000/svg">
<path d="M8.16667 5C8.38768 5 8.59964 4.9122 8.75592 4.75592C8.9122 4.59964 9 4.38768 9 4.16667C9 3.94565 8.9122 3.73369 8.75592 3.57741C8.59964 3.42113 8.38768 3.33333 8.16667 3.33333C7.94565 3.33333 7.73369 3.42113 7.57741 3.57741C7.42113 3.73369 7.33333 3.94565 7.33333 4.16667C7.33333 4.38768 7.42113 4.59964 7.57741 4.75592C7.73369 4.9122 7.94565 5 8.16667 5ZM9 8.33333C9 8.55435 8.9122 8.76631 8.75592 8.92259C8.59964 9.07887 8.38768 9.16667 8.16667 9.16667C7.94565 9.16667 7.73369 9.07887 7.57741 8.92259C7.42113 8.76631 7.33333 8.55435 7.33333 8.33333C7.33333 8.11232 7.42113 7.90036 7.57741 7.74408C7.73369 7.5878 7.94565 7.5 8.16667 7.5C8.38768 7.5 8.59964 7.5878 8.75592 7.74408C8.9122 7.90036 9 8.11232 9 8.33333ZM8.16667 13.3333C8.38768 13.3333 8.59964 13.2455 8.75592 13.0893C8.9122 12.933 9 12.721 9 12.5C9 12.279 8.9122 12.067 8.75592 11.9107C8.59964 11.7545 8.38768 11.6667 8.16667 11.6667C7.94565 11.6667 7.73369 11.7545 7.57741 11.9107C7.42113 12.067 7.33333 12.279 7.33333 12.5C7.33333 12.721 7.42113 12.933 7.57741 13.0893C7.73369 13.2455 7.94565 13.3333 8.16667 13.3333ZM12.3333 4.16667C12.3333 4.38768 12.2455 4.59964 12.0893 4.75592C11.933 4.9122 11.721 5 11.5 5C11.279 5 11.067 4.9122 10.9107 4.75592C10.7545 4.59964 10.6667 4.38768 10.6667 4.16667C10.6667 3.94565 10.7545 3.73369 10.9107 3.57741C11.067 3.42113 11.279 3.33333 11.5 3.33333C11.721 3.33333 11.933 3.42113 12.0893 3.57741C12.2455 3.73369 12.3333 3.94565 12.3333 4.16667ZM11.5 9.16667C11.721 9.16667 11.933 9.07887 12.0893 8.92259C12.2455 8.76631 12.3333 8.55435 12.3333 8.33333C12.3333 8.11232 12.2455 7.90036 12.0893 7.74408C11.933 7.5878 11.721 7.5 11.5 7.5C11.279 7.5 11.067 7.5878 10.9107 7.74408C10.7545 7.90036 10.6667 8.11232 10.6667 8.33333C10.6667 8.55435 10.7545 8.76631 10.9107 8.92259C11.067 9.07887 11.279 9.16667 11.5 9.16667ZM12.3333 12.5C12.3333 12.721 12.2455 12.933 12.0893 13.0893C11.933 13.2455 11.721 13.3333 11.5 13.3333C11.279 13.3333 11.067 13.2455 10.9107 13.0893C10.7545 12.933 10.6667 12.721 10.6667 12.5C10.6667 12.279 10.7545 12.067 10.9107 11.9107C11.067 11.7545 11.279 11.6667 11.5 11.6667C11.721 11.6667 11.933 11.7545 12.0893 11.9107C12.2455 12.067 12.3333 12.279 12.3333 12.5ZM14.8333 13.3333C15.0543 13.3333 15.2663 13.2455 15.4226 13.0893C15.5789 12.933 15.6667 12.721 15.6667 12.5C15.6667 12.279 15.5789 12.067 15.4226 11.9107C15.2663 11.7545 15.0543 11.6667 14.8333 11.6667C14.6123 11.6667 14.4004 11.7545 14.2441 11.9107C14.0878 12.067 14 12.279 14 12.5C14 12.721 14.0878 12.933 14.2441 13.0893C14.4004 13.2455 14.6123 13.3333 14.8333 13.3333ZM6.5 0C5.83696 0 5.20107 0.263392 4.73223 0.732233C4.26339 1.20107 4 1.83696 4 2.5V19.1667C4 19.3877 4.0878 19.5996 4.24408 19.7559C4.40036 19.9122 4.61232 20 4.83333 20H18.1667C18.3877 20 18.5996 19.9122 18.7559 19.7559C18.9122 19.5996 19 19.3877 19 19.1667V10.8333C19 10.1703 18.7366 9.53441 18.2678 9.06557C17.7989 8.59672 17.163 8.33333 16.5 8.33333H15.6667V2.5C15.6667 1.83696 15.4033 1.20107 14.9344 0.732233C14.4656 0.263392 13.8297 0 13.1667 0H6.5ZM5.66667 2.5C5.66667 2.27899 5.75446 2.06702 5.91074 1.91074C6.06702 1.75446 6.27899 1.66667 6.5 1.66667H13.1667C13.3877 1.66667 13.5996 1.75446 13.7559 1.91074C13.9122 2.06702 14 2.27899 14 2.5V9.16667C14 9.38768 14.0878 9.59964 14.2441 9.75592C14.4004 9.9122 14.6123 10 14.8333 10H16.5C16.721 10 16.933 10.0878 17.0893 10.2441C17.2455 10.4004 17.3333 10.6123 17.3333 10.8333V18.3333H15.6667V15.8333C15.6667 15.6123 15.5789 15.4004 15.4226 15.2441C15.2663 15.0878 15.0543 15 14.8333 15H8.16667C7.94565 15 7.73369 15.0878 7.57741 15.2441C7.42113 15.4004 7.33333 15.6123 7.33333 15.8333V18.3333H5.66667V2.5ZM14 16.6667V18.3333H12.3383V16.6667H14ZM10.6717 16.6667V18.3333H9V16.6667H10.6717Z" fill="#38B773"/>
</svg>
