<svg width="25" height="24" viewBox="0 0 25 24" fill="none" xmlns="http://www.w3.org/2000/svg">
<path d="M22.5246 12C22.5246 17.523 18.0476 22 12.5246 22C7.0016 22 2.5246 17.523 2.5246 12C2.5246 6.477 7.0016 2 12.5246 2C18.0476 2 22.5246 6.477 22.5246 12Z" stroke="#38B773" stroke-width="1.5" stroke-linecap="round" stroke-linejoin="round"/>
<path d="M10.5246 16V9C10.5246 8.73478 10.63 8.48043 10.8175 8.29289C11.005 8.10536 11.2594 8 11.5246 8H13.2746C13.8713 8 14.4436 8.23705 14.8656 8.65901C15.2875 9.08097 15.5246 9.65326 15.5246 10.25C15.5246 10.8467 15.2875 11.419 14.8656 11.841C14.4436 12.2629 13.8713 12.5 13.2746 12.5H10.5246M13.5246 12.5L15.0246 16" stroke="#38B773" stroke-width="1.5" stroke-linecap="round" stroke-linejoin="round"/>
</svg>
