<svg width="600" height="390" viewBox="0 0 600 390" fill="none" xmlns="http://www.w3.org/2000/svg">
<path d="M315 11.1001H323.7L334.8 12.3001L346.2 13.8001L356.7 15.6001L363.6 17.4001L369.9 19.5001L375.6 21.9001L384 25.2001L388.2 27.6001L391.5 30.6001L393.9 32.7001L399.3 38.1001L402.3 42.0001L405.6 47.1001L408.6 52.8001L411.6 60.9001L413.7 68.7001L414.9 75.0001L416.1 84.9001L417.9 104.4L420.3 121.5L420.6 123L452.1 123.3L452.4 139.8L452.7 141.3L452.4 164.1L452.1 174.6L454.2 174.9L459 177L461.1 178.2L458.7 171L456.3 165.6L455.4 164.1V163.2L456.9 163.8L461.1 167.1L464.1 170.1L465.9 172.2V167.1L466.5 161.1L467.1 156.6H468L469.2 159.3L471.9 168H472.2L473.1 162L475.2 153.3L477 147.6L478.2 147.3L478.8 148.2L482.1 162L482.7 165.6V167.7L483.6 167.4L485.4 160.5L487.2 156.3H488.1L488.4 156.9L489 165.3L488.7 166.5L492.3 165L497.1 162.3L500.7 159.9L504.3 156.6L508.2 153.9L513 151.8L519 150.6H532.5L537.6 151.5L544.8 153.9L548.7 156L552.6 159L555 161.4L557.7 164.7L561.3 168.9L562.8 170.7L567.9 173.7L570.9 176.4L573.3 179.1L575.7 183L578.1 187.8L581.1 195.3L583.5 203.4L585 209.4L585.6 215.1L585.9 225.3V246.9L585.6 256.8L583.8 269.4L581.1 280.8L579.3 286.8L577.8 290.4L576.3 291.9L574.5 294L572.1 299.4L570 303L568.8 306.6L567.6 311.7L565.8 314.4L562.8 317.7L559.8 322.2L555.6 330.3L552 335.4L549.9 337.5L548.1 340.2L547.5 341.4L546.9 345L546 346.5L545.7 348.6L545.1 353.4V356.7L546.3 361.5V366.9L547.5 369.3L549.9 371.4L554.1 372.6H557.7L559.2 372L560.4 372.3L559.5 375.6V378H500.7V378.6L500.1 378.9H497.1L496.8 378L405 378.3L404.1 378.6H397.2L389.4 378.9L387.6 378.6L352.2 379.2H290.1L285.9 378.9H281.4L279.6 379.5L279 380.4H217.5L209.1 380.1L205.8 379.8L197.1 379.5L159.3 379.2L144.3 378.9L138 378.3H125.7L124.8 379.2L123.6 379.5H118.5L109.8 378.9H90.3L88.2 378.6H77.1L76.2 379.2L72.3 378.9L70.5 378.6H55.2L52.8 378.9L51.6 378.6L45.3 378.3L43.8 377.7L42.9 376.2L43.2 373.5L44.7 372H60L61.8 370.5L62.1 368.4L61.2 366.9L56.7 364.8L50.4 361.8L44.7 358.8L42.9 357.6L39 353.4L37.2 351.3L34.5 349.8L32.4 347.7L29.4 343.5L24.9 334.8L22.5 330.3L20.4 324.6L18.9 319.2L18.3 316.5L18 311.7V298.2L19.8 291.6L21 288.6L22.5 284.7L25.5 278.7L27.9 275.1L30.9 272.4L33.9 270L37.2 267.6L42.6 264.3L45.3 262.5L50.7 260.4L55.8 257.7L61.8 255L66.3 251.7L69.9 249L73.2 246.3L75.9 243.9L78.3 240.3L81.3 236.7L83.7 232.5L86.1 226.8L87 223.8L86.4 217.5L84.3 204.9L81.9 193.2L77.4 176.1L73.8 165.3L69.9 155.4L67.5 150L60.3 135.6L60.6 132.9L62.1 130.8L62.7 130.5L126 130.2L128.4 125.4L131.7 119.1L132.3 118.5V117.6L129.9 115.5L127.2 112.8L124.5 108.6L123 105.3L121.8 101.4L121.2 97.8001V91.2001L122.1 86.4001L123.9 81.9001L126.3 77.7001L129.3 74.1001L131.7 72.0001L135.9 69.3001L140.1 67.5001L146.1 66.3001H153.9L156.9 66.6001L161.7 64.5001L166.8 63.0001L171 62.1001L173.4 61.8001H177.6L180.9 62.7001L182.7 63.9001L183.9 62.1001L186.3 60.0001L195 54.3001L201.3 50.4001L205.5 48.0001L210.9 45.0001L216.9 41.7001L223.8 38.4001L233.4 33.9001L241.2 30.6001L249 27.6001L256.5 24.9001L259.2 23.1001L262.5 20.4001L267.6 17.7001L273.3 15.6001L278.7 14.4001L293.7 12.3001L302.7 11.7001L315 11.1001ZM452.1 175.2V187.8L453.6 186.6L455.7 184.2L457.8 182.1L457.5 180.9L455.4 178.2L452.7 175.2H452.1Z" fill="#0FB29F"/>
<path d="M150.9 129.9L154.8 130.2L156.9 131.1V131.7L158.1 132.3L160.2 134.7L162.6 138.6L166.8 146.7L170.7 155.1L174.3 164.1L178.2 176.1L181.2 187.2L184.5 202.2L186.3 213L187.5 221.4L188.4 228.9L188.7 231.6L192 230.7L196.8 229.2L201.6 226.8L204 225L205.5 223.5L207.6 220.8V218.1L207.3 214.8L206.7 213.3V211.8L207.6 211.5L208.5 211.8L208.8 212.4L209.1 225L210.9 228.3L213.3 230.4L218.1 231.6V229.5L218.4 229.2L219.3 222.3L219.6 212.1L219.9 211.8H328.5L328.8 212.1L329.1 218.4L330 228L330.6 235.5L331.2 240.3L331.8 251.1L332.1 253.2L332.7 263.1L333.3 267.3L333.9 276L334.5 279.9L335.1 289.2L335.7 293.4L336 298.5L336.3 298.8L337.5 310.2L338.7 324.9L339 330L339.6 334.2L340.2 342.6L340.5 344.1L341.1 355.5L341.7 360.6L342 366.6L342.6 370.2L343.5 371.7V372.3H344.7V372.9H327L325.2 370.2L322.5 367.8L320.1 366.6V366L318 365.7L308.1 362.4L302.4 360.6L298.8 359.4L297.3 359.1L294.6 360.9L290.4 361.5L284.7 361.2L280.8 360L282.6 366L283.2 367.5V368.4L282 367.8L277.5 365.7L268.8 362.7L262.5 360.9L260.4 359.7L259.8 358.2V357.3H259.2L257.4 354.3L254.7 351.6L250.8 349.2L247.5 348L245.1 347.1L207.9 346.8L207.6 346.5L207.9 343.8L208.2 342.9H208.8L209.1 331.8L209.7 330.6L210 328.2L210.3 321.6L211.2 312.6L211.8 304.5L212.1 302.4V295.5L210.6 293.1L210.3 291.9L210.6 291.6L240.3 291.3L242.7 289.2L243.3 288.3V285L242.1 282.3L240.6 281.7V281.1L148.8 280.8L144.3 279.6L141.6 277.8L140.4 276L139.2 272.1L138.9 251.4L138.3 243.9L137.4 230.1L136.5 222L135 210.6L132.6 198L129.9 186.6L126.6 175.2L124.2 167.7L122.7 163.8L120.9 161.7L119.4 161.1H117L114.6 162.3L113.4 163.5L113.1 164.7V167.4L116.1 177L118.2 184.2L120.6 192.9L122.7 202.2L124.2 210.9L125.1 215.7L126 221.1L126.9 230.1L127.2 232.5L128.1 249.3L128.4 256.8L128.7 272.4L129.6 277.2L130.8 280.5L132.9 284.1L135.3 286.5L139.2 288.9L145.5 291.3L147.3 291.6L189.6 291.9V346.8L146.4 347.1L141.6 348L138.6 349.5L135.9 351.3H135.3V351.9L133.5 353.4L132 355.5H131.4L131.1 357H130.5L130.2 358.5L129.3 360L127.8 365.7L127.5 368.7L129.3 372V373.2H43.8L44.1 372.3L44.7 372H60L61.8 370.5L62.1 368.4L61.2 366.9L56.7 364.8L50.4 361.8L44.7 358.8L42.9 357.6L39 353.4L37.2 351.3L34.5 349.8L32.4 347.7L29.4 343.5L24.9 334.8L22.5 330.3L20.4 324.6L18.9 319.2L18.3 316.5L18 311.7V298.2L19.8 291.6L21 288.6L22.5 284.7L25.5 278.7L27.9 275.1L30.9 272.4L33.9 270L37.2 267.6L42.6 264.3L45.3 262.5L50.7 260.4L55.8 257.7L61.8 255L66.3 251.7L69.9 249L73.2 246.3L75.9 243.9L78.3 240.3L81.3 236.7L83.7 232.5L86.1 226.8L87 223.8L86.4 217.5L84.3 204.9L81.9 193.2L77.4 176.1L73.8 165.3L69.9 155.4L67.5 150L60.3 135.6L60.6 132.9L62.1 130.8L62.7 130.5L126 130.2L150.9 129.9Z" fill="#F8C859"/>
<path d="M315 11.1001H323.7L334.8 12.3001L346.2 13.8001L356.7 15.6001L363.6 17.4001L369.9 19.5001L375.6 21.9001L384 25.2001L388.2 27.6001L391.5 30.6001L393.9 32.7001L399.3 38.1001L402.3 42.0001L405.6 47.1001L408.6 52.8001L411.6 60.9001L413.7 68.7001L414.9 75.0001L416.1 84.9001L417.9 104.4L420.3 121.5L420.6 123L452.1 123.3L452.4 139.8L452.7 141.3L452.4 164.1L452.1 174.6H453.3L453 175.8L452.1 175.2L452.4 187.5L456 183.6L457.8 182.1L458.7 182.7V183.6L459.6 183.9L461.4 186.6V187.2H462V188.1L460.5 187.8L459.6 187.5H456.3L455.7 188.4H269.7L267.9 185.4L267.3 183V177.3L267.6 176.1L264.9 175.8L258.9 174.9L255 174L224.7 168.9L213 166.8L210.3 166.5L202.2 158.4L199.5 155.1L196.2 151.5L194.1 149.1L190.5 145.5L186.6 140.1L183.3 136.5L179.4 133.5L177.3 132.6L177 132L174.9 131.7L174.6 131.4L169.2 130.8H156.9L156.3 131.1L154.8 130.5L150.9 130.2H126.3L127.2 127.5L131.1 120L132.3 118.5V117.6L129.9 115.5L127.2 112.8L124.5 108.6L123 105.3L121.8 101.4L121.2 97.8001V91.2001L122.1 86.4001L123.9 81.9001L126.3 77.7001L129.3 74.1001L131.7 72.0001L135.9 69.3001L140.1 67.5001L146.1 66.3001H153.9L156.9 66.6001L161.7 64.5001L166.8 63.0001L171 62.1001L173.4 61.8001H177.6L180.9 62.7001L182.7 63.9001L183.9 62.1001L186.3 60.0001L195 54.3001L201.3 50.4001L205.5 48.0001L210.9 45.0001L216.9 41.7001L223.8 38.4001L233.4 33.9001L241.2 30.6001L249 27.6001L256.5 24.9001L259.2 23.1001L262.5 20.4001L267.6 17.7001L273.3 15.6001L278.7 14.4001L293.7 12.3001L302.7 11.7001L315 11.1001Z" fill="#D4F3F3"/>
<path d="M207 211.5L208.5 211.8L208.8 212.4L209.1 225L210.9 228.3L213.3 230.4L218.1 231.6V229.5L218.4 229.2L219.3 222.3L219.6 212.1L219.9 211.8H328.5L328.8 212.1L329.1 218.4L330 228L330.6 235.5L331.2 240.3L331.8 251.1L332.1 253.2L332.7 263.1L333.3 267.3L333.9 276L334.5 279.9L335.1 289.2L335.7 293.4L336 298.5L336.3 298.8L337.5 310.2L338.7 324.9L339 330L339.6 334.2L340.2 342.6L340.5 344.1L341.1 355.5L341.7 360.6L342 366.6L342.6 370.2L343.5 371.7V372.3H344.7V372.9H327L325.2 370.2L322.5 367.8L320.1 366.6V366L318 365.7L308.1 362.4L302.4 360.6L298.8 359.4L297.3 359.1L294.6 360.9L290.4 361.5L284.7 361.2L280.8 360L282.6 366L283.2 367.5V368.4L282 367.8L277.5 365.7L268.8 362.7L262.5 360.9L260.4 359.7L259.8 358.2V357.3H259.2L257.4 354.3L254.7 351.6L250.8 349.2L247.5 348L245.1 347.1L207.9 346.8L207.6 346.5L207.9 343.8L208.2 342.9H208.8L209.1 331.8L209.7 330.6L210 328.2L210.3 321.6L211.2 312.6L211.8 304.5L212.1 302.4V295.5L210.6 293.1L210.3 291.9L210.6 291.6L240.3 291.3L242.7 289.2L243.3 288.3V285L242.1 282.3L240.6 281.7V281.1L240 280.8L260.4 280.5L262.5 279.6L263.4 278.7L264.6 276V272.7L263.4 269.4L261.9 267.9V267.3L259.2 267L183.9 266.7L183.3 266.1H183.9V265.5L186.6 263.7L188.1 262.2L189.6 258.9V252.3L189 239.7L188.7 235.8V231.6L192 230.7L196.8 229.2L201.6 226.8L204 225L205.5 223.5L207.6 220.8V218.1L207.3 214.8L206.7 213.3V211.8L207 211.5Z" fill="#D4F3F3"/>
<path d="M117 160.8H119.4L121.2 161.7L123 163.8L125.1 169.2L128.7 181.2L131.1 190.2L133.2 199.5L135.3 210.6L136.8 222L137.7 230.1L138.6 243.9L139.2 251.4L139.5 272.1L141 276.6L142.5 278.1L144.3 279.3L148.8 280.5L240 280.8L240.6 281.1V281.7L242.4 282.3L243.6 285V288.3L241.5 290.7L240.3 291.6L210.6 291.9L211.8 294.9L212.4 295.5V302.4L211.8 307.8L210.9 318.6L210.6 321.6L210.3 328.2L210 330.6L209.4 331.8L209.1 339.9L208.8 342.9H208.2L207.9 346.5L245.1 346.8L247.5 347.7L251.4 349.2L255 351.6L258 354.6L259.2 356.7V357.3H259.8L260.7 359.7L263.4 360.9L269.7 362.7L277.5 365.4L282 367.5L283.2 368.4L281.4 363.3L280.8 361.2V360L282.9 360.3L284.7 360.9L290.4 361.2L294.6 360.6L297.3 358.8L298.8 359.1L302.4 360.3L310.8 363L318 365.4L320.1 366V366.6L321.9 367.2L324.6 369.3L326.4 371.4L327 373.2L452.1 372.9H495.3V228.3H544.5L544.8 337.8L545.1 356.7L546.3 361.5V366.9L547.5 369.3L549.9 371.4L554.1 372.6H557.7L559.2 372L560.4 372.3L559.5 375.6V378H500.7V378.6L500.1 378.9H497.1L496.8 378L405 378.3L404.1 378.6H397.2L389.4 378.9L387.6 378.6L352.2 379.2H290.1L285.9 378.9H281.4L279.6 379.5L279 380.4H217.5L209.1 380.1L205.8 379.8L197.1 379.5L159.3 379.2L144.3 378.9L138 378.3H125.7L124.8 379.2L123.6 379.5H118.5L109.8 378.9H90.2999L88.1999 378.6H77.0999L76.1999 379.2L72.2999 378.9L70.4999 378.6H55.1999L52.7999 378.9L51.5999 378.6L45.2999 378.3L43.7999 377.7L42.8999 376.2L43.1999 373.5L44.3999 372.9H129.3L127.2 368.7L127.5 365.7L128.4 362.4L129.3 359.7L130.5 357H131.1L131.4 355.5L132.9 354L134.7 351.9H135.3V351.3L139.5 348.6L142.8 347.4L146.4 346.8H189.6V291.9H147.3L144.9 291.3L139.2 289.2L135 286.5L132.3 283.8L129.9 279.3L128.7 274.8L128.4 272.4L128.1 256.8L127.2 238.8L126.9 232.5L126 224.7L125.4 219.6L124.2 211.8L123 205.5L120.9 195.3L118.2 185.1L116.1 177.6L113.1 168.6L112.8 167.4V164.7L113.4 163.2L115.5 161.4L117 160.8Z" fill="#033047"/>
<path d="M86.4 225.6L87 225.9L87.6 231.9L87.9 232.2L88.8 242.1L89.4 255.9L90 260.7L90.6 262.8L92.7 265.2L93.6 265.8L97.2 266.4L97.5 267.9L95.1 270.3V277.5L97.2 279.9L98.1 280.5L99.6 280.8L98.7 281.4L97.8 285.3L97.2 290.4L95.7 301.2L94.8 307.2H94.2L93.3 318L92.4 323.7L91.8 325.8L91.2 332.7L90 340.8L89.1 347.4L88.8 347.7L87.9 353.1L87.3 359.7H86.7L86.4 364.2L85.8 368.7V370.5L86.4 372H91.2V371.4H91.8L92.4 367.5L93 365.7L96 349.2L96.6 345.3L98.4 334.8L99 330.6L99.9 325.5L100.5 320.7L100.8 320.4L102 313.5L102.6 309.6L103.8 302.4L105 295.5L105.3 294L105.6 289.5L106.5 284.4L106.8 281.1H101.4V280.8H107.7L131.1 281.1L132.9 284.1L135.3 286.5L139.2 288.9L145.5 291.3L147.3 291.6L189.6 291.9V346.8L146.4 347.1L141.6 348L138.6 349.5L135.9 351.3H135.3V351.9L133.5 353.4L132 355.5H131.4L131.1 357H130.5L130.2 358.5L129.3 360L127.8 365.7L127.5 368.7L129.3 372V373.2H43.8L44.1 372.3L44.7 372H60L61.8 370.5L62.1 368.4L61.2 366.9L56.7 364.8L50.4 361.8L44.7 358.8L42.9 357.6L39 353.4L37.2 351.3L34.5 349.8L32.4 347.7L29.4 343.5L24.9 334.8L22.5 330.3L20.4 324.6L18.9 319.2L18.3 316.5L18 311.7V298.2L19.8 291.6L21 288.6L22.5 284.7L25.5 278.7L27.9 275.1L30.9 272.4L33.9 270L37.2 267.6L42.6 264.3L45.3 262.5L50.7 260.4L55.8 257.7L61.8 255L66.3 251.7L69.9 249L73.2 246.3L75.9 243.9L78.3 240.3L81.3 236.7L83.7 232.5L86.1 226.8L86.4 225.6Z" fill="#D4F3F3"/>
<path d="M247.8 66.2998H392.7L395.7 67.1998L397.8 69.8998L398.4 71.3998V76.1998L397.5 85.7998L396.3 100.2L395.4 111.9L394.8 123L394.2 123.6H386.1V151.5H234V144.9L234.9 135.3L235.5 126.3L237 108.9L238.2 94.4998L239.7 75.5998L240.3 71.3998L242.1 68.9998L244.2 67.1998L247.8 66.2998Z" fill="#053E60"/>
<path d="M339.6 211.8H429.3L429.9 213.9L431.1 220.2L432 226.5V228H421.2V372.6L420.9 372.9H345.9L347.4 371.7L348.6 370.5L349.2 369L348.9 363.3L348.3 356.1L347.7 343.8L346.8 328.5L346.2 319.2L345.9 316.2L345.6 308.1V304.8H345L344.4 298.5L343.5 282.9L343.2 280.2L342.6 263.4L342 252.6L341.1 240L340.5 228.6L340.2 228L339.6 222.3V211.8Z" fill="#D4F3F3"/>
<path d="M156.9 130.5H169.2L174.6 131.1L174.9 131.4L177 131.7L177.3 132.6L178.8 132.9L180.6 134.1L183.6 136.5L186 138.9L190.2 144.6L192.9 147.6L196.2 150.9L198.9 154.2L202.2 157.8L204.3 160.2L210.3 166.2L213 166.5L233.7 170.1L253.5 173.4L258.3 174.3L258.9 174.6L264.9 175.5L267.6 176.1L267.9 177L267.6 177.3V183L268.5 186L269.7 188.1H455.7L456.3 187.2H459.6L462 188.1V187.2H461.4L459.3 183.9L458.7 183.6L458.4 182.7L457.8 182.4L457.2 180.9L455.1 178.2L453.3 176.1V174.9L454.8 175.2L458.4 176.7L461.1 178.2L458.7 171L456.3 165.6L455.4 164.1V163.2L456.9 163.8L461.1 167.1L464.1 170.1L465.9 172.2V167.1L466.5 161.1L467.1 156.6H468L469.2 159.3L471.9 168H472.2L473.1 162L475.2 153.3L477 147.6L478.2 147.3L478.8 148.2L482.1 162L482.7 165.6V167.7L483.6 167.4L485.4 160.5L487.2 156.3H488.1L488.4 156.9L489 165.3L488.7 166.5H489.3V170.4L488.7 172.5L491.1 170.4L494.7 166.8L495.9 165.3L499.2 163.2H499.8L499.5 165L497.7 168.9L495.6 174.6L494.7 177.3L498.6 175.8L501 174.9H501.9L501.6 176.1L499.5 179.4H498.9L498.3 180.9L498 181.5H497.4V182.4H496.8V183.3H496.2L495.6 184.8L495 185.7H494.4V186.6L493.5 187.2L493.2 188.1L494.7 187.5L498.9 186.6H500.1L499.2 188.4H498.6L498.3 189.6L495 192.3L492 194.7V195.3L489 195.6H467.1L464.4 195L462.3 194.7H461.7V195.3L460.5 195.6L456 195.9L454.8 196.5V203.7L457.5 204V204.9L454.8 205.2L440.4 204.9L441 216L441.6 218.1L442.2 224.4L442.8 228H432.3L431.7 226.5L430.2 216.6L429.3 212.1L339.6 211.8L339.9 222.3L340.5 228L340.8 228.6L341.7 243.6L342.3 252.6L342.9 263.4L343.5 280.2L344.1 287.1L345 303V304.8H345.6L345.9 308.7L346.2 316.2L346.8 323.1L347.7 339.9L348.3 348.3L348.6 356.1L349.5 366.6V369L348.3 371.4L347.4 372H343.5L342.3 370.2L341.7 366.6L341.4 360.6L340.5 351.6L340.2 344.1L339.9 342.6L339 331.5L338.7 330L336.9 306.6L336 298.8L335.7 298.5L335.4 293.4L334.8 289.2L334.2 279.9L333.3 273L333 267.3L332.4 263.1L331.8 253.2L331.5 251.1L330.9 240.3L330 232.5L329.1 221.1L328.8 218.4L328.5 212.1H219.9L219.6 222.3L218.7 229.2L218.4 229.5L218.1 231.6L215.1 231.3L213 230.4L210.6 228.3L208.8 225L208.5 211.8H207L207.3 214.5L207.6 214.8L207.9 218.1V220.8L204.6 225L202.8 226.2L200.7 227.7L195.3 230.1L189.9 231.6H188.7L188.1 228.9L186.6 216.6L184.8 205.8L183 196.5L180.3 184.8L177.3 174.3L173.7 163.5L170.4 155.1L166.5 146.7L163.2 140.1L160.5 135.6L158.4 132.9L156.9 131.7L156.6 130.8L156.9 130.5Z" fill="#096A74"/>
<path d="M519 150.6H532.5L537.6 151.5L544.8 153.9L548.7 156L552.6 159L555 161.4L557.7 164.7L561.3 168.9L562.8 170.7L567.9 173.7L570.9 176.4L573.3 179.1L575.7 183L578.1 187.8L581.1 195.3L583.5 203.4L585 209.4L585.6 215.1L585.9 225.3V246.9L585.6 256.8L583.8 269.4L581.1 280.8L579.3 286.8L577.8 290.4L576.3 291.9L574.5 294L572.1 299.4L570 303L568.8 306.6L567.6 311.7L565.8 314.4L562.8 317.7L559.8 322.2L555.6 330.3L552 335.4L549.9 337.5L548.1 340.2L547.5 341.4L546.9 345L546 346.5L545.7 348.6L545.1 353.4H544.8V228H502.2L484.8 228.3L482.4 228.6H471.6L469.2 228.3L443.1 228L442.2 225.9L441.6 222.3L441.3 218.1L440.7 216L440.4 210.3V204.9H457.5V204H455.4L454.5 203.1V196.5L456 195.6L461.7 195.3V194.7L463.8 194.4L465 195L467.1 195.3H489L491.4 195L492.9 193.8L497.1 190.2L498.3 189.3L498.6 188.4H499.2L500.1 186.6L493.8 188.1H493.2L493.5 186.9L494.4 186.6V185.7H495L496.2 183.3H496.8V182.4H497.4V181.5H498L498.6 180L498.9 179.4H499.5L500.1 178.2L501.9 174.9L494.7 177.6L494.4 176.7L497.7 168L499.5 164.4L499.8 163.2L496.8 165L495.9 165.3L495.3 166.5L493.8 167.7L491.7 170.1L489.3 172.5H488.7L489.3 166.5L494.1 164.1L500.4 160.2L504.3 156.6L508.2 153.9L513 151.8L519 150.6Z" fill="#D5F3F3"/>
<path d="M207 211.5L208.5 211.8L208.8 212.4L209.1 225L210.9 228.3L213.3 230.4L217.2 231.6L222 232.5L255 239.1L261.9 240.6L267.6 242.7L270.9 244.8L273 247.2L274.8 250.8L276.6 258L279.6 272.7L285.6 300.9L289.5 319.2L292.8 334.8L296.1 351L296.4 353.7V354.9L297.3 358.2L297.9 358.8L294.6 360.9L290.4 361.5L284.7 361.2L280.8 360L282.6 366L283.2 367.5V368.4L282 367.8L277.5 365.7L268.8 362.7L262.5 360.9L260.4 359.7L259.8 358.2V357.3H259.2L257.4 354.3L254.7 351.6L250.8 349.2L247.5 348L245.1 347.1L207.9 346.8L207.6 346.5L207.9 343.8L208.2 342.9H208.8L209.1 331.8L209.7 330.6L210 328.2L210.3 321.6L211.2 312.6L211.8 304.5L212.1 302.4V295.5L210.6 293.1L210.3 291.9L210.6 291.6L240.3 291.3L242.7 289.2L243.3 288.3V285L242.1 282.3L240.6 281.7V281.1L240 280.8L260.4 280.5L262.5 279.6L263.4 278.7L264.6 276V272.7L263.4 269.4L261.9 267.9V267.3L259.2 267L183.9 266.7L183.3 266.1H183.9V265.5L186.6 263.7L188.1 262.2L189.6 258.9V252.3L189 239.7L188.7 235.8V231.6L192 230.7L196.8 229.2L201.6 226.8L204 225L205.5 223.5L207.6 220.8V218.1L207.3 214.8L206.7 213.3V211.8L207 211.5Z" fill="#FDFCFC"/>
<path d="M495.3 228.3H544.5L544.8 337.8L545.1 356.7L546.3 361.5V366.9L547.5 369.3L549.9 371.4L554.1 372.6H557.7L559.2 372L560.4 372.3L559.5 375.6V378H514.2L513.6 377.4L513.9 376.8H514.5V374.7L513.9 373.2H452.1V372.9H495.3V228.3Z" fill="#096A74"/>
<path d="M278.7 65.3999H372.9L390 65.6999L393.3 65.9999L396.6 66.8999L399 67.4999L400.8 69.5999L401.7 71.3999V78.2999L400.8 88.1999L399.9 99.8999L398.7 114.9L398.1 123.3L409.5 123L452.1 123.3L452.4 139.8L452.7 141.3L452.4 164.1L452.1 174.6H453.3L453 175.8L452.1 175.2L452.4 187.5L456 183.6L457.8 182.1L458.7 182.7V183.6L459.6 183.9L461.4 186.6V187.2H462V188.1L460.5 187.8L459.6 187.5H456.3L455.7 188.4H336.3L335.4 187.8L335.7 187.5V181.2L354.6 181.5L355.5 181.8L355.8 182.7V186.3L355.5 186.9H354.6V187.8H385.5L385.8 163.5V152.1L385.5 151.5H386.1L385.8 124.5L386.1 123.6L394.2 123.3L394.5 123L395.1 111.9L396.9 89.9999L397.8 78.8999L398.1 76.1999V71.3999L396.9 68.9999L395.7 67.4999L392.7 66.5999H246L246.9 65.9999L251.4 65.6999L278.7 65.3999Z" fill="#31C6B4"/>
<path d="M156.9 130.5H169.2L174.6 131.1L174.9 131.4L177 131.7L177.3 132.6L178.8 132.9L180.6 134.1L183.6 136.5L186 138.9L190.2 144.6L192.9 147.6L196.2 150.9L198.9 154.2L202.2 157.8L204.3 160.2L210.3 166.2L213 166.5L233.7 170.1L253.5 173.4L258.3 174.3L258.9 174.6L264.9 175.5L267.6 176.1L267.9 177L267.6 177.3V183L268.5 186L269.7 188.1H309L311.7 188.4V204.3H205.5L204 194.4L203.7 190.2H203.1V189.6L201.3 189.3L197.7 187.5L194.4 184.8L193.5 183.9V183.3H192.9L190.8 180.9L186 176.1L183.9 173.7L182.4 171.9L180.9 170.4L180.6 169.5H180L177.9 167.1L177.3 166.8V166.2H176.7V165.3L175.8 165.6L174.9 166.8L172.2 159.6L168.9 151.8L164.7 143.1L161.7 137.4L158.7 133.2L156.9 131.7L156.6 130.8L156.9 130.5Z" fill="#118291"/>
<path d="M213.6 204.6H421.5L440.1 204.9L440.4 211.5L441.3 217.5L441.6 218.1L442.2 224.4L442.8 228H432.3L431.7 226.5L430.2 216.6L429.3 212.1L339.6 211.8L339.9 222.3L340.5 228L340.8 228.6L341.7 243.6L342.3 252.6L342.9 263.4L343.5 280.2L344.1 287.1L345 303V304.8H345.6L345.9 308.7L346.2 316.2L346.8 323.1L347.7 339.9L348.3 348.3L348.6 356.1L349.5 366.6V369L348.3 371.4L347.4 372H343.5L342.3 370.2L341.7 366.6L341.4 360.6L340.5 351.6L340.2 344.1L339.9 342.6L339 331.5L338.7 330L336.9 306.6L336 298.8L335.7 298.5L335.4 293.4L334.8 289.2L334.2 279.9L333.3 273L333 267.3L332.4 263.1L331.8 253.2L331.5 251.1L330.9 240.3L330 232.5L329.1 221.1L328.8 218.4L328.5 212.1H219.9L219.6 222.3L218.7 229.2L218.4 229.5L218.1 231.6L215.1 231.3L213 230.4L210.6 228.3L208.8 225L208.5 211.8H206.7L205.5 205.8L205.8 204.9L213.6 204.6Z" fill="#053F60"/>
<path d="M240 280.8H247.8L249.3 281.4L252 288.6L256.2 298.8L268.2 328.8L271.5 337.2L275.4 346.8L278.1 353.1L279 353.7L280.8 359.1L281.7 363.3L283.2 367.5V368.4L282 367.8L277.5 365.7L268.8 362.7L262.5 360.9L260.4 359.7L259.8 358.2V357.3H259.2L257.4 354.3L254.7 351.6L250.8 349.2L247.5 348L245.1 347.1L207.9 346.8L207.6 346.5L207.9 343.8L208.2 342.9H208.8L209.1 331.8L209.7 330.6L210 328.2L210.3 321.6L211.2 312.6L211.8 304.5L212.1 302.4V295.5L210.6 293.1L210.3 291.9L210.6 291.6L240.3 291.3L242.7 289.2L243.3 288.3V285L242.1 282.3L240.6 281.7V281.1L240 280.8Z" fill="#DDDEDA"/>
<path d="M428.4 309.3H488.1V365.7H428.4V309.3Z" fill="#0FB29E"/>
<path d="M385.5 151.8L386.1 152.1V163.5L385.8 187.8L385.5 188.1H354.6L354.3 187.5L354.6 186.9H355.5V181.8L337.2 181.5L335.7 181.2L336 182.4V187.5L335.4 188.4H269.7L267.9 185.4L267.3 183V177.3L267.6 176.4L268.8 177L270.6 177.6H274.5L280.2 177L280.5 176.7H285.6L288.6 177.6H292.2V176.7L293.7 175.8L294 174.6L294.9 173.4L296.1 168.9L296.7 163.8L296.1 163.5L311.1 163.2H377.7L385.5 162.9V151.8Z" fill="#D4F3F3"/>
<path d="M173.4 61.7998H177.6L180.9 62.6998L182.1 63.5998L182.7 66.2998V70.7998L182.1 74.0998L181.8 75.2998L182.7 76.7998V77.3998H183.3L183.9 79.1998V80.9998L182.4 84.8998L180.3 87.2998L177.6 88.7998L172.8 89.0998L169.5 90.5998L168.3 92.0998L166.2 96.2998L165.3 100.8L164.7 102L164.1 104.4L162.6 105.6H160.8L159.6 104.7L159.3 99.8998L158.1 97.4998L155.4 97.1998L153.3 98.0998L152.1 100.5L151.5 103.2L152.7 108L154.5 111.3L156 113.7L155.7 115.2L152.4 118.5L150 120L146.4 121.2H141.3L136.2 119.7L131.7 117.3L127.2 112.8L124.5 108.6L123 105.3L121.8 101.4L121.2 97.7998V91.1998L122.1 86.3998L123.9 81.8998L126.3 77.6998L129.3 74.0998L131.7 71.9998L135.9 69.2998L140.1 67.4998L146.1 66.2998H153.9L156.9 66.5998L161.7 64.4998L166.8 62.9998L171 62.0998L173.4 61.7998Z" fill="#071C2A"/>
<path d="M247.8 66.2998H392.7L395.7 67.1998L397.8 69.8998L398.4 71.3998V76.1998L397.5 85.7998L396.3 100.2L395.4 111.9L394.8 123L394.5 123.3H389.1L390.6 106.2L391.2 99.8998L391.8 92.0998L392.7 79.7998L393 79.1998V73.4998L391.8 72.2998H247.2L245.7 72.8998L245.1 73.7998L244.8 75.2998L243 98.9998L240.3 131.7L239.4 142.5V144.6L240 145.8L240.9 146.1H378.3L386.1 146.4V151.5H234V144.9L234.9 135.3L235.5 126.3L237 108.9L238.2 94.4998L239.7 75.5998L240.3 71.3998L242.1 68.9998L244.2 67.1998L247.8 66.2998Z" fill="#062334"/>
<path d="M253.2 90.8999H307.2V94.4999L306 110.1L305.1 118.5L304.5 127.8L303.9 129.3L303 129.6H250.5L250.2 129.3L250.5 123.3L251.1 114L251.7 108L252.3 99.5999L253.2 90.8999Z" fill="#053E60"/>
<path d="M278.7 65.3999H372.9L390 65.6999L393.3 65.9999L396.6 66.8999L399 67.4999L400.8 69.5999L401.7 71.3999V78.2999L400.8 88.1999L399.9 99.8999L398.7 114.9L398.1 123.3L409.5 123L452.1 123.3L452.4 139.8L452.7 141.3V145.2L452.4 146.4H386.4L386.1 146.1L385.8 124.5L386.1 123.6L394.2 123.3L394.5 123L395.1 111.9L396.9 89.9999L397.8 78.8999L398.1 76.1999V71.3999L396.9 68.9999L395.7 67.4999L392.7 66.5999H246L246.9 65.9999L251.4 65.6999L278.7 65.3999Z" fill="#3AD9C5"/>
<path d="M428.7 237H488.1L488.4 266.4H428.4V237.3L428.7 237Z" fill="#0FB29E"/>
<path d="M233.7 151.8H385.5L385.8 152.4V162.9L385.5 163.2L374.4 163.5H256.5L239.1 163.2L236.4 162.6L234.3 160.8L233.7 159.3L233.4 156V152.1L233.7 151.8Z" fill="#FDFDFC"/>
<path d="M428.4 273.6H488.4V302.4L488.1 302.7H428.4V273.6Z" fill="#0FB19E"/>
<path d="M462.3 194.4L464.4 194.7L467.1 195.3H501.3L501.9 195.9V200.1L501.6 204L497.1 204.3L496.8 206.1L495.6 210H495L494.1 213.3L492.9 216.3L491.4 218.7H490.8L490.5 219.9L488.1 224.7L485.7 228L482.4 228.6H471.6L469.2 228.3L443.1 228L442.2 225.9L441.6 222.3L441.3 218.1L440.7 216L440.4 210.3V204.9H457.5V204H455.4L454.5 203.1V196.5L456 195.6L461.7 195.3V194.7L462.3 194.4Z" fill="#FAA30A"/>
<path d="M275.1 188.1H309L311.7 188.4V204.3H205.5L204 194.4L203.7 191.1L203.4 189.9L204.6 189.6H231.3L252.6 190.2H265.2L267.6 189.3L269.7 188.4L275.1 188.1Z" fill="#0FB39F"/>
<path d="M386.1 146.1H451.8V146.4L432 146.7H420.3L420.6 152.1L420.3 163.2V173.4L420 182.7L419.1 186.3L418.5 187.5L416.4 187.8H406.5L405.9 187.5L405.6 185.1V182.1L405.3 181.5V169.8L405 160.8V156L404.7 151.8V148.2L405 147H402L401.4 146.7L402 150.3L401.7 154.2V159.3L401.4 163.8V171.3L401.1 176.4V181.2L400.5 184.2V186.6H399.9V187.5L398.1 188.1L385.8 188.4H336.3L335.4 187.8L335.7 187.5V181.2L354.6 181.5L355.5 181.8L355.8 182.7V186.3L355.5 186.9H354.6V187.8H385.5L385.8 163.5V152.1L385.5 151.5H386.1V146.1Z" fill="#3AD8C4"/>
<path d="M240 280.8H247.8L249.3 281.4L252 288.6L256.2 298.8L268.2 328.8L271.5 337.2L275.4 346.8L278.1 353.1L279 353.7L280.8 359.1L281.7 363.3L283.2 367.5V368.4L282 367.8L277.5 365.7L268.8 362.7L262.5 360.9L260.4 359.7L259.8 358.2V357.3H259.2L257.4 354.3L256.2 352.5L255.9 351.3L255.6 348L252.9 337.8L247.8 317.7L244.8 305.7L242.7 296.7L241.5 293.1L240.9 291.9L241.8 290.1L243.3 288.3V285L242.1 282.3L240.6 281.7V281.1L240 280.8Z" fill="#D4F3F3"/>
<path d="M247.2 72H391.8L393.3 73.5V78.9L392.4 79.2H246.6L244.8 78.9V73.8L246 72.3L247.2 72Z" fill="#2EC2B1"/>
<path d="M175.8 165.3H176.7V166.2H177.3V166.8L178.5 167.4L180 168.9V169.5H180.6L181.8 171V171.6L182.7 171.9L184.8 174.3L189 178.8L191.7 181.5V182.1L192.9 182.7V183.3H193.5L195.3 185.4L198.6 187.8L203.1 189.6V190.2H203.7L204 192L205.5 202.8V204.3H213.9L213.6 204.9L205.8 205.2L206.7 210L207.3 214.5L207.6 214.8L207.9 218.1V220.8L204.6 225L202.8 226.2L200.7 227.7L195.3 230.1L189.9 231.6H188.7L188.1 228.9L186.6 216.6L184.8 205.8L183 196.5L180.3 184.8L177.3 174.3L175.2 167.7L175.5 165.6L175.8 165.3Z" fill="#0B6B75"/>
<path d="M251.7 267H258.3L261.9 267.6L263.4 269.1L264.6 271.8L264.9 272.7V276L263.4 279H262.8L262.2 280.2L260.4 280.8H190.2L188.7 280.2L188.1 278.1L187.8 277.5V271.8L189 267.9L190.2 267.3L251.7 267Z" fill="#FAA309"/>
<path d="M177.6 88.5H178.2V89.1H177.3L179.7 99.6L181.2 105.3V108.6L179.7 113.7L177.9 117L174.9 120L171.9 121.2L165.6 121.5L163.2 121.8V124.8L164.7 129.3V130.2H169.8L174 130.8V131.1L169.2 130.8H156.9L156.3 131.1L154.8 130.5L150.9 130.2H126.3L127.2 127.5L131.1 120L132.6 117.9L134.1 118.2L137.1 119.7L141.3 120.9H146.4L151.2 119.1L154.8 115.8L155.7 114.6L155.4 113.4L152.7 108.9L151.5 105L151.2 102.6L152.4 99L153.6 97.5L155.7 96.9L158.1 97.2L159.3 99L159.6 99.9L159.9 104.7L160.8 105.3H162.6L164.1 103.8L164.7 101.4L165.3 99.3L165.9 96.3L168.3 91.5L169.8 90L172.8 88.8L177.6 88.5Z" fill="#F1D2B3"/>
<path d="M242.1 83.7002L243.3 84.9002V89.1002L240.9 120L239.4 137.4L239.1 141.3V144.9L239.7 146.1L240.3 146.4L385.8 146.7V151.2H234V144.9L234.9 135.3L235.5 126.3L235.8 125.1L236.4 124.8L236.7 122.1L238.2 120.9L238.8 117.6L238.5 113.1H237.6V112.5H237L238.2 106.8L239.7 105.3L240 102.3L239.7 101.1L238.2 100.2V97.8002L238.8 96.3002L239.4 93.6002H240L240.3 92.4002L240.9 90.6002L241.2 86.1002L241.8 84.3002L242.1 83.7002Z" fill="#061C2A"/>
<path d="M477.3 147.3L478.5 147.6L479.7 152.1L482.1 162L482.7 165.6V167.7L483.6 167.4L485.4 160.5L487.2 156.3H488.1L488.4 156.9L489 165.3L488.7 166.5H489.3V170.4L488.7 172.5L491.1 170.4L494.7 166.8L495.9 165.3L499.2 163.2H499.8L499.5 165L497.7 168.9L495.6 174.6L494.7 177.3L498.6 175.8L501 174.9H501.9L501.6 176.1L499.5 179.4H498.9L498.3 180.9L498 181.5H497.4V182.4H496.8V183.3H496.2L495.6 184.8L495 185.7H494.4V186.6L493.5 187.2L493.2 188.1L494.7 187.5L498.9 186.6H500.1L499.2 188.4H498.6L498.3 189.6L495 192.3L492 194.7V195.3L489 195.6H467.1V195.3H472.8L470.7 189.6L470.4 187.8V183.9L471 177.3V167.7L471.6 167.4L472.2 168L473.1 162L475.2 153.3L477 147.6L477.3 147.3Z" fill="#3CD8C4"/>
<path d="M307.2 163.2H334.8V167.1L333.9 180.9L334.5 181.2L326.7 181.5H278.4L276.9 182.4H276.3L276 183.6V186.9L276.6 188.1L275.1 188.4H269.7L267.9 185.4L267.3 183V177.3L267.6 176.4L268.8 177L270.6 177.6H274.5L280.2 177L280.5 176.7H285.6L288.6 177.6H292.2V176.7L293.7 175.8L294 174.6L294.9 173.4L296.1 168.9L296.7 163.8L296.1 163.5L307.2 163.2Z" fill="#DFDFDB"/>
<path d="M149.1 358.2H189.6L189.9 370.5L191.1 372.3V372.9L190.5 373.2H137.4L137.7 371.7L138.6 370.5H139.2V366.6L140.7 362.7L142.8 360.3L144.6 359.1L146.7 358.8H149.1V358.2Z" fill="#CDF1F0"/>
<path d="M99.6 280.8L106.8 281.1V284.4L105.9 289.5L105.6 294L104.7 299.1L103.5 306.3L102.6 310.8L101.7 316.8L101.1 320.4L100.8 320.7L99.9 327.9L99 332.1L97.5 342.3L96.6 346.5L95.7 352.2L94.5 359.1L93 367.2L92.7 367.5L92.4 370.2L91.8 371.4H91.2V372H86.4L85.5 370.5L85.8 366.9L86.7 359.7H87.3L87.6 353.1L88.5 347.7L88.8 347.4L90.3 336L90.9 332.7L91.5 325.8L92.4 321.9L93 318L93.6 310.8L94.2 307.2H94.8L95.1 302.4L96 297.3L97.8 283.5L98.7 281.1L99.6 280.8Z" fill="#06506A"/>
<path d="M151.2 130.5H155.1L156.9 131.1V131.7L158.1 132.3L160.2 134.7L162.6 138.6L166.8 146.7L170.7 155.1L174.3 164.1L178.2 176.1L181.2 187.2L184.5 202.2L186.3 213L187.5 221.4L188.4 228.9L188.7 229.8L189.6 246.6L189.9 252.3V258.9L188.1 262.5L186 264.6L182.4 266.4L178.2 267.3H177.3L177.9 266.1L181.5 263.4L183.6 260.7L184.2 259.5L184.5 257.1V249.9L183.6 236.4L181.8 220.2L180.3 209.7L177.9 197.1L174.6 183.3L171.9 174L168.3 163.2L165 154.8L162.3 148.8L158.1 140.4L154.8 134.7L152.1 131.7L151.2 130.5Z" fill="#FAA309"/>
<path d="M297.3 358.8L298.8 359.1L302.4 360.3L310.8 363L318 365.4L320.1 366V366.6L321.9 367.2L324.6 369.3L326.4 371.4L326.7 373.2L296.1 373.5L261.9 373.2L261 372.9L261.3 371.7L262.2 369.6V365.7L261 361.2V360.3L262.5 360.6L269.7 362.7L277.5 365.4L282 367.5L283.2 368.4L281.4 363.3L280.8 361.2V360L282.9 360.3L284.7 360.9L290.4 361.2L294.6 360.6L297.3 358.8Z" fill="#061C2A"/>
<path d="M212.7 296.4L213.3 297.6L216.3 304.8L218.1 309.3L219 311.4L221.7 317.4L228.9 334.2L231.9 341.1L233.7 344.7L234 345V346.5H208.2L208.5 342.9L208.8 339.9L209.1 331.8L209.7 330.6L210 328.2L210.3 321.6L211.2 312.6L211.8 304.5L212.7 296.4Z" fill="#D4F3F3"/>
<path d="M425.7 146.1H451.8V146.4L432 146.7H420.3L420.6 152.1L420.3 163.2V173.4L420 182.7L419.1 186.3L418.5 187.5L416.4 187.8H406.5L405.9 187.5L405.6 185.1V182.1L405.3 181.5V169.8L405 160.8V156L404.7 151.8V148.2L405 147H402V146.4L425.7 146.1Z" fill="#3AD9C5"/>
<path d="M495.3 373.2H513.9L514.8 374.7L514.5 376.8H513.9L514.2 378H500.7V378.6L500.1 378.9H497.1L496.8 378H412.5L353.4 377.7V377.4L381 377.1L381.3 376.2H383.7L384.6 375.9L395.1 375.6V375H391.5L390 374.7H372.9L360 374.4L354.6 374.1L355.2 373.5L495.3 373.2Z" fill="#022440"/>
<path d="M206.7 357.9H238.5L243 358.5L246 359.4L247.2 360L247.5 360.9L247.2 361.2H243.9L241.2 360L240 359.7L242.1 366L244.5 372V373.2H199.5L199.2 372L200.1 371.7L204.9 372L205.2 370.8H205.8L206.1 369.3L206.4 358.2L206.7 357.9Z" fill="#D4F3F3"/>
<path d="M201 291.6H203.4L205.2 291.9L208.5 291.6L210.6 292.2L212.1 295.2L212.4 295.5V302.4L211.8 307.8L210.9 318.6L210.6 321.6L210.3 328.2L210 330.6L209.4 331.8L209.1 339.9L208.8 342.9H208.2L207.9 346.8H201.9L200.7 346.5L200.4 343.2V322.5L200.7 291.9L201 291.6Z" fill="#074564"/>
<path d="M254.1 87.6001H305.7L307.8 87.9001L309.6 89.1001V99.3001L308.7 109.2L307.2 128.4L306.3 130.8L305.7 131.4H304.8V132H248.7L247.2 129.6V127.2L248.1 118.5L248.7 110.4L249.3 104.4L249.9 95.4001L250.5 90.9001L251.4 89.4001L253.2 87.9001L254.1 87.6001ZM253.2 90.9001L252 102.6L251.4 111.6L250.8 117.6L250.2 127.2V129.3L250.5 129.6H303L304.2 129L304.5 127.8L305.4 115.5L306 110.1L307.2 94.5001V90.9001H253.2Z" fill="#ECF1EE"/>
<path d="M457.5 204.6H458.1L459 207.3L460.2 210.6L461.4 213.3L462.6 216.3L463.2 216.9V218.1H463.8V219H464.4L465.6 221.4L467.4 224.4L468.9 226.8V227.4H469.5L469.8 228.3L443.1 228L442.2 225.9L441.6 222.3L441.3 218.1L440.7 216L440.4 210.3V204.9H456L457.5 204.6Z" fill="#D4F3F3"/>
<path d="M437.1 123.9H451.5L452.1 124.8V139.2H420.3L420 138.9V125.1L421.5 124.8L422.1 125.1V125.7L423 125.1L434.1 124.2L437.1 123.9Z" fill="#31C6B4"/>
<path d="M386.4 139.2H420L452.1 139.5L452.7 141.3V145.2L452.4 146.4H386.4L386.1 146.1V141.3L386.4 139.2Z" fill="#DFEAEB"/>
<path d="M189.3 373.2H190.8L189.9 373.5V375.3L191.7 375.6L194.4 375.9H198L201.6 375.3L202.5 375H203.7V374.4H204.3L205.2 373.5H243.6L242.7 374.1H242.1V375.6L244.2 376.2H245.1L245.4 377.1L247.2 377.4V377.7L165.9 378H133.5V377.7L136.2 377.4L136.5 376.8H138L138.3 377.1H139.8V376.2L140.4 374.7L139.8 373.5L189.3 373.2Z" fill="#022340"/>
<path d="M278.4 181.2H334.5L335.4 181.8L335.7 183V186L335.1 187.8L334.8 188.1L317.1 188.4H276.6L275.7 186.9V183.6L276.3 182.4L278.4 181.2Z" fill="#FDFCFC"/>
<path d="M307.2 163.2H332.4L331.5 165V167.1L331.8 168.6L331.5 171H330.9V172.5L330.3 173.1V176.4H329.1L328.8 174.9L329.4 174.3L329.1 173.1L328.2 171.6V169.5L327.6 168.9L326.4 168.3L327.9 165.9L328.8 165.3V164.7L327.3 164.1H315L311.1 164.7L309.6 165.3H308.7V165.9L309.9 166.2L310.2 166.8L309.6 167.4L309.9 168.9L309.3 170.4L306.9 172.2L304.2 172.8L303.9 173.4L302.4 173.7L302.1 174.6L303.3 175.2L303 176.7L301.8 177.3V177.9L300.9 178.2H300L297.3 180.3L297 180.9L297.9 181.2L278.4 181.5L276.9 182.4H276.3L276 183.6V186.9L276.6 188.1L275.1 188.4H269.7L267.9 185.4L267.3 183V177.3L267.6 176.4L268.8 177L270.6 177.6H274.5L280.2 177L280.5 176.7H285.6L288.6 177.6H292.2V176.7L293.7 175.8L294 174.6L294.9 173.4L296.1 168.9L296.7 163.8L296.1 163.5L307.2 163.2Z" fill="#DFE9EA"/>
<path d="M457.5 204.3H486.3V206.7L486.6 208.2L485.4 208.8L484.8 210.6L485.1 211.8H484.5L483.6 214.5L483 216L480.6 220.2L479.7 221.1L478.8 221.4H470.7L465.6 220.8L465.3 221.4L464.4 219.6V219H463.8V218.1H463.2L462.6 216.6L461.7 215.1L460.5 211.8L459.6 209.4L458.7 207.3L458.1 204.6L457.5 204.3Z" fill="#F8C959"/>
<path d="M487.2 156.3H488.1L488.4 156.9L489 165.3L488.7 166.5H489.3V170.4L488.7 172.5L491.1 170.4L494.7 166.8L495.9 165.3L499.2 163.2H499.8L499.5 165L497.7 168.9L495.6 174.6L494.7 177.3L498.6 175.8L501 174.9H501.9L501.6 176.1L499.5 179.4H498.9L498.3 180.9L498 181.5H497.4V182.4H496.8V183.3H496.2L495.6 184.8L495 185.7H494.4V186.6L493.5 187.2L493.2 188.1L494.7 187.5L498.9 186.6H500.1L499.2 188.4H498.6L498.3 189.6L495 192.3L492 194.7L487.8 195.3H482.4L484.8 187.5V183L484.2 177.6V172.2L485.4 168.9L485.7 165L485.4 164.1V160.5L487.2 156.3Z" fill="#118392"/>
<path d="M138 378H405L404.1 378.6H397.2L389.4 378.9L387.6 378.6L352.2 379.2H290.1L285.9 378.9H281.4L279.6 379.5L279 380.4H217.5L209.1 380.1L205.8 379.8L197.1 379.5L159.3 379.2L144.3 378.9L138 378.3V378Z" fill="#F3F5F4"/>
<path d="M97.5 315L98.7 316.5V319.2L98.1 322.8L98.4 326.1L98.7 326.7L98.1 328.8L97.2 330.6L97.5 332.7L96 335.7L95.7 338.1V340.5L94.5 344.4L94.2 349.2L93.6 350.1L93 356.1L92.1 362.4L91.2 365.1L90.9 367.2L92.1 369L91.8 371.4H91.2V372H86.4L85.5 370.5L85.8 366.9L86.7 359.7H87.3L87.6 353.1L88.5 347.7L88.8 347.4L90.3 336L90.9 332.7L91.5 325.8L92.4 321.9L92.7 319.8L93.3 319.5L93.9 316.5L94.5 316.2V316.8H95.1L95.7 318.9H96.3L96.6 317.1V315.6L97.5 315Z" fill="#053F60"/>
<path d="M278.7 65.3999H372.9L390 65.6999L393.3 65.9999L396.6 66.8999L399 67.4999L400.8 69.5999L401.7 71.3999V78.2999L400.8 88.1999L399.9 99.8999L398.7 114.9L398.1 123.3L397.8 123.6H394.5L394.8 115.8L395.7 105.3L396.6 93.2999L397.8 78.8999L398.1 76.1999V71.3999L396.9 68.9999L395.7 67.4999L392.7 66.5999H246L246.9 65.9999L251.4 65.6999L278.7 65.3999Z" fill="#90BAA6"/>
<path d="M318.3 67.5H337.5L347.7 67.8H351.9L354 68.1H358.2L366 68.7L369.6 69.6H382.5L385.2 70.5H386.1L386.7 71.4H383.1L382.2 71.1H374.7L372.6 70.8L369 71.1L367.8 71.4H287.4L286.2 70.2V69.9L289.5 69.6L291 68.7H293.1L294 68.4L301.2 68.1L306 67.8L318.3 67.5Z" fill="#061327"/>
<path d="M243.9 70.2002L244.2 70.8002H243.6L243.3 72.6002L243 73.2002L242.7 78.6002L243.9 78.0002L244.2 75.3002H244.5V80.1002L241.8 114L239.4 142.5V144.6L240 145.8L240.9 146.1H378.3L386.1 146.4V151.5H234V151.2H385.8V146.7H240.3L239.1 145.5L238.8 144.9V141.3L240.3 123L241.8 105L243 89.1002V84.9002L242.4 84.0002L241.8 84.6002L241.2 90.0002L240.9 91.8002L240 93.6002H239.4L239.1 96.3002L238.5 97.8002V100.2L240 101.1L240.3 103.5L239.7 105.6L238.2 107.7L237.6 111.6L237 112.5H237.6V113.1H238.5L239.1 116.4L238.8 119.7L238.2 121.2L237.3 122.1H237L236.7 124.8L235.8 125.1L236.1 119.7L238.2 94.5002L239.7 75.6002L240.3 71.4002L240.9 72.0002L242.4 71.4002L243.9 70.2002Z" fill="#03354E"/>
<path d="M80.6998 373.2L84.5998 373.8L84.8998 375L87.5998 375.6L87.8998 375L90.5998 375.3L93.8998 373.5H126.9L125.7 375L125.4 376.5H126.3V377.1L130.2 377.4V377.7L123.3 378H107.4L60.2998 377.7V377.4L65.3998 377.1L62.9998 376.2L62.3998 375.6L60.8998 375L60.5998 374.1L61.7998 373.5L80.6998 373.2Z" fill="#02233F"/>
<path d="M467.1 156.6H468L469.2 159.3L471.3 166.2V177.3L470.7 183.9V187.8L471.6 191.4L471.9 192.9L471.3 193.5L469.8 193.2L468.6 191.7L466.8 190.2L465 186.9V186.3H464.4L461.4 180.3L460.8 178.2L460.2 175.2L457.8 168.9L455.4 164.1V163.2L456.9 163.8L461.1 167.1L464.1 170.1L465.9 172.2V167.1L466.5 161.1L467.1 156.6Z" fill="#138492"/>
<path d="M354.9 373.5H491.4L490.2 374.1H484.2L443.1 374.7L431.4 375H425.1L423 374.7H420.9L418.2 375.3L417.6 375.6H414.6L414 375.9L414.6 376.5L415.8 376.2L417.3 377.1V376.5H418.5V377.1L454.5 377.4V377.7L412.5 378L353.4 377.7V377.4L381 377.1L381.3 376.2H383.7L384.6 375.9L395.1 375.6V375H391.5L390 374.7H372.9L360 374.4L354.6 374.1L354.9 373.5Z" fill="#061B2A"/>
<path d="M394.2 123.3H400.8L401.4 127.5L401.7 129L401.4 132V134.4L401.7 135.9L401.1 138.9H403.8L404.1 139.5H395.4L386.4 139.2V141.3H386.1L385.8 124.5L386.1 123.6L394.2 123.3Z" fill="#38D7C3"/>
<path d="M330.6 373.5H340.5L342.6 374.4L342.3 375L341.4 375.3L343.5 375.6L342.9 375L343.8 374.7L346.2 375.6L346.8 374.4L346.5 373.8L349.8 373.5H354.9V373.8L360 374.1L376.5 374.4H391.2L391.5 374.7H393.6L395.1 375L395.4 375.9L384 376.2L382.8 376.5L381.3 376.2V376.8L382.5 377.4L412.5 377.7V378H346.2L324.3 377.7L324.6 376.5L324.9 376.2L330.6 375.9V375.3H331.2L330.3 373.8L330.6 373.5Z" fill="#022643"/>
<path d="M428.4 309.3H488.1V365.7H428.4V309.3ZM429.6 310.2L429.3 310.5V361.8L429.6 364.8H487.2V310.2H429.6Z" fill="#061628"/>
<path d="M428.4 273.6H488.4V302.4L488.1 302.7H428.4V273.6ZM429.3 274.5V301.2H486.9L487.2 300.9V274.5H429.3Z" fill="#052336"/>
<path d="M156.9 130.5H169.2L174.6 131.1L174.9 131.4L177 131.7L177.3 132.6L178.8 132.9L180.6 134.1L183.6 136.5L186 138.9V140.7L184.5 139.8L182.7 138.3L182.1 138H177L174 138.9L170.7 141L167.7 144L166.5 145.5H165.9L161.7 137.4L158.7 133.2L156.9 131.7L156.6 130.8L156.9 130.5Z" fill="#0C6E76"/>
<path d="M319.8 102H372L373.2 102.6V105.3L372.9 105.6H318.9L318.6 105.3L318.9 102.6L319.8 102Z" fill="#E9F0ED"/>
<path d="M428.7 237H488.1L488.4 266.4H428.4V237.3L428.7 237ZM429.3 238.5V265.2L429.6 265.5H487.5V238.5H429.3Z" fill="#06495A"/>
<path d="M559.2 372L560.4 372.3L559.5 375.6V378H531.3L523.5 377.7L523.2 376.8V373.2L524.7 372.9H532.5L544.8 372.6H557.7L559.2 372Z" fill="#07344A"/>
<path d="M44.3999 372.9H53.9999L80.6999 373.2V373.5L61.7999 373.8L60.8999 374.4V375L63.2999 375.6L63.8999 376.2L65.3999 376.8L70.4999 377.1V377.4L107.4 377.7L125.7 378L125.4 378.9L123.6 379.5H118.5L109.8 378.9H90.2999L88.1999 378.6H77.0999L76.1999 379.2L72.2999 378.9L70.4999 378.6H55.1999L52.7999 378.9L51.5999 378.6L45.2999 378.3L43.7999 377.7L42.8999 376.2L43.1999 373.5L44.3999 372.9Z" fill="#04324A"/>
<path d="M318 112.8H372V115.5L371.7 115.8H318.3L318 115.5V112.8Z" fill="#EAEFEC"/>
<path d="M267.6 176.4L268.8 177L270.6 177.6H274.5L280.2 177H285L292.2 179.1L294.9 180.3L295.2 180.9L278.4 181.5L276.9 182.4H276.3L276 183.6V186.9L276.6 188.1L275.1 188.4H269.7L267.9 185.4L267.3 183V177.3L267.6 176.4Z" fill="#F1D2B4"/>
<path d="M335.7 181.2L354.6 181.5L355.5 181.8L355.8 182.7V186.3L355.5 186.9H354.6V187.8L379.8 188.1V188.4H336.3L335.4 187.8L335.7 187.5V181.2Z" fill="#8FBAA6"/>
<path d="M370.2 123.3L371.4 123.6V125.4L370.8 126H316.8V123.6L370.2 123.3Z" fill="#F5F6F5"/>
<path d="M501 174.9H501.9L501.6 176.1L499.5 179.4H498.9L498.3 180.9L498 181.5H497.4V182.4H496.8V183.3H496.2L495.6 184.8L495 185.7H494.4V186.6L493.5 187.2L493.2 188.1L494.7 187.5L498.9 186.6H500.1L499.2 188.4H498.6L498.3 189.6L495 192.3L492 194.7L487.8 195.3H482.4L483 193.2L483.9 192.6H485.4L486.6 191.1L488.4 189.9L489.6 188.4L494.1 179.4H494.7L494.4 177.9L495.9 177L500.1 175.2L501 174.9Z" fill="#0A6C75"/>
<path d="M309.9 11.3999H313.2L312.9 11.9999L305.1 13.4999L303.9 13.7999L296.4 14.3999L278.4 17.9999L272.7 19.1999L268.8 20.0999L264.3 21.2999L260.1 23.0999H259.2L262.5 20.3999L267.6 17.6999L273.3 15.5999L278.7 14.3999L293.7 12.2999L302.7 11.6999L309.9 11.3999Z" fill="#F3FDFB"/>
<path d="M331.5 91.7998L374.1 92.0998V94.1998L373.5 94.7998H331.2L330.9 94.4998V92.3998L331.5 91.7998Z" fill="#F6F7F7"/>
<path d="M132.6 117.9L134.1 118.2L137.1 119.7L139.2 120.3L139.8 121.2L140.1 126V129.6L139.8 129.9H126.3L127.8 126.3L130.8 120.6L132.6 117.9Z" fill="#D4F3F3"/>
<path d="M448.8 243.6H468V249.6H448.8V243.6Z" fill="#096B75"/>
<path d="M448.8 316.8H468V322.5L467.7 322.8H449.1L448.8 322.5V316.8Z" fill="#096A75"/>
<path d="M279 353.7L289.2 354.3L290.4 354H296.1L297.3 358.2L297.9 358.8L294.6 360.9L290.4 361.5L284.7 361.2L280.8 360L279 354.9V353.7Z" fill="#F5C85B"/>
<path d="M243.9 70.2002L244.2 70.8002H243.6L243.3 72.6002L243 73.2002L242.7 78.6002L244.2 78.0002L243.6 85.8002L242.4 84.0002L241.8 84.6002L241.2 90.0002L240.9 91.8002L240 93.6002H239.4L239.1 96.3002L238.5 97.8002V100.2L240 101.1L240.3 103.5L239.7 105.6L238.2 107.7L237.6 111.6L237 112.5H237.6V113.1H238.5L239.1 116.4L238.8 119.7L238.2 121.2L237.3 122.1H237L236.7 124.8L235.8 125.1L236.1 119.7L238.2 94.5002L239.7 75.6002L240.3 71.4002L240.9 72.0002L242.4 71.4002L243.9 70.2002Z" fill="#02233F"/>
<path d="M448.8 279.6H468V285.3H448.8V279.6Z" fill="#086873"/>
<path d="M467.1 156.6H468L469.2 159.3L471.3 166.2V177.3L470.4 187.8L469.8 187.2L467.4 179.7L466.5 174L465.9 172.5V167.1L466.5 161.1L467.1 156.6Z" fill="#10B3A0"/>
<path d="M386.4 139.2H400.8L401.4 139.8V145.5L400.8 146.1L386.4 146.4L386.1 146.1V141.3L386.4 139.2Z" fill="#FBFCFC"/>
<path d="M405.3 139.2H420L420.3 139.8V145.8L420 146.1H405.6L405 145.5V139.8L405.3 139.2Z" fill="#FCFCFC"/>
<path d="M240 359.7L242.1 360L243.9 360.9H247.2H248.1L249.3 362.7L251.1 368.1L252 371.7L251.7 373.2H245.7L244.8 372.9L243.9 371.7L242.1 366.6L240.6 362.1L240 360.9V359.7Z" fill="#061C2A"/>
<path d="M278.7 65.3999H372.9L390 65.6999V65.9999L382.8 66.2999L246 66.5999L246.9 65.9999L251.4 65.6999L278.7 65.3999Z" fill="#36CBB7"/>
<path d="M201 291.6H203.4L204 291.9V300.9L203.7 301.2L203.1 307.2L202.5 319.2L202.2 321L201.6 336.9L201 338.4H200.4V322.5L200.7 291.9L201 291.6Z" fill="#E8F8F5"/>
<path d="M487.2 156.3H488.1L488.4 156.9L489 165.3L488.7 166.5H489.3V170.4L488.7 172.5L490.8 171L490.2 172.2L489 173.4L488.1 178.2L486 185.7L485.4 187.5H485.1L484.2 177.6V172.2L485.4 168.9L485.7 165L485.4 164.1V160.5L487.2 156.3Z" fill="#11B3A0"/>
<path d="M495.6 373.2H513.9L514.8 374.7L514.5 376.8H513.9L514.2 378H500.7V378.6L500.1 378.9H497.1L495.6 377.1V376.2H495L495.3 375H496.2V374.4H496.8V373.5L495.6 373.2Z" fill="#032F46"/>
<path d="M376.2 378H405L404.1 378.6H397.2L389.4 378.9L387.6 378.6L352.2 379.2H290.1L285.9 378.9V378.3L376.2 378Z" fill="#FCFBFB"/>
<path d="M428.4 309.3H488.1L487.8 309.9L487.5 365.1H429.6V364.8H487.2V310.2H430.2V309.9L428.7 309.6V322.8H428.4V309.3Z" fill="#05374B"/>
<path d="M201.6 358.2H206.4V369.3L205.8 370.8H205.2L204.9 372H200.1L200.7 371.7V371.1L199.8 370.8L200.1 368.7L200.7 358.8L201.6 358.2Z" fill="#054161"/>
<path d="M432 227.1L432.3 228.3H421.5V372.9L421.2 373.2H327V372.9H344.7V372.3L343.5 372H347.1L346.8 372.6H420.9L421.2 228H432V227.1Z" fill="#32C8B6"/>
<path d="M393.9 373.5H491.4L490.2 374.1H484.2L443.1 374.7L431.4 375H425.1L423 374.7H421.2V374.1H402.9L393.9 373.8V373.5Z" fill="#061728"/>
<path d="M254.4 88.2002H276.6L283.2 88.8002L299.4 89.7002L300.9 90.0002V90.3002H254.4L255 89.4002H255.6L255.3 88.8002L254.4 88.2002Z" fill="#F3FDFB"/>
<path d="M300 93.8999H302.1L303 94.1999L303.3 94.7999L303 98.0999L302.4 99.5999L302.7 101.7L302.4 102.9L302.1 108L301.2 113.4L299.7 114.9L299.4 114.6V110.7L299.1 106.5L299.4 104.4L298.8 100.5L298.2 98.3999L296.7 96.5999L297 95.3999L298.8 94.1999L300 93.8999Z" fill="#044664"/>
<path d="M145.2 347.1H188.7V347.4H186.9L186.6 348.3L184.8 348.9L181.8 349.2H172.8L153.9 348.6L147.6 347.7H145.2V347.1Z" fill="#02223D"/>
<path d="M222.3 210.9H236.7L307.2 211.2L328.2 211.5V211.8H220.5V211.2L222.3 210.9Z" fill="#0C7A82"/>
<path d="M487.8 237.3H488.1V266.1H428.7V239.7H429L429.3 261L429.6 265.2L487.5 265.5V237.9H485.4V237.6L487.8 237.3Z" fill="#061628"/>
<path d="M400.8 123.6L405.3 123.9V138.9L403.8 139.2L401.1 138.9V136.8L401.4 134.7L401.1 133.5V130.2L401.4 128.1L400.5 124.2L400.8 123.6Z" fill="#31C6B4"/>
<path d="M340.5 373.2H495.3V373.5L348.9 373.8L346.8 374.1L347.4 374.7L346.5 375L346.2 375.6L344.1 375.3H343.8L343.2 375.9L341.1 375.6L341.4 375L342.3 374.7L340.5 373.8V373.2Z" fill="#022E45"/>
<path d="M316.8 126H370.2V126.6L359.1 127.5H351.3L317.4 126.9L316.8 126.6V126Z" fill="#03344F"/>
<path d="M45.2998 378H125.7L125.4 378.9L123.6 379.5H118.5L109.8 378.9H90.2998L88.1998 378.6H77.0998L76.1998 379.2L72.2998 378.9L70.4998 378.6H55.1998L52.7998 378.9L51.5998 378.6L45.2998 378.3V378Z" fill="#E3E3E0"/>
<path d="M219.9 211.8H328.5V212.1L282 212.4H220.5L220.2 213L219.9 218.7H219.6V212.1L219.9 211.8Z" fill="#74C3AF"/>
<path d="M487.8 309.6H488.1V365.7H458.1L459.3 365.1H487.5V309.9L487.8 309.6Z" fill="#06182A"/>
<path d="M302.7 11.7002H306.6V12.0002L302.4 12.6002L300.3 13.2002L295.5 13.8002L288.3 15.0002L282.9 15.6002L280.8 16.2002L275.7 16.5002L270.9 18.0002L266.7 18.9002L265.5 19.5002L264.6 19.2002L269.1 17.1002L274.5 15.3002L278.7 14.4002L293.7 12.3002L302.7 11.7002Z" fill="#FEFDFD"/>
<path d="M208.2 347.1H246V347.7H239.1L231.3 348.6L228.3 349.2H220.2L211.8 348.9L210.6 348.3V347.7L208.2 347.4V347.1Z" fill="#02223E"/>
<path d="M392.1 127.2L394.5 127.5L396.9 129.6L397.2 132L396.3 133.5L394.5 134.7L392.1 135L390 133.8L389.1 132.3V130.2L390.9 127.8L392.1 127.2Z" fill="#FAFCFC"/>
<path d="M432.6 139.8H452.4L452.7 141.3V145.2L452.4 146.4L447.9 145.8L447.6 144.9L447.9 144L449.4 143.1V142.5L444.6 141.6L441 141H432L432.6 139.8Z" fill="#F3FCFB"/>
<path d="M411.9 127.2H414L416.1 128.7L416.4 129.3V132.6L414.9 134.4L413.4 135H411.6L409.8 133.8L408.9 132L409.2 129.9L410.4 128.1L411.9 127.2Z" fill="#FAFBFB"/>
<path d="M498.9 186.6H500.1L499.2 188.4H498.6L498.3 189.6L495 192.3L492 194.7L490.8 195H488.7L488.4 193.5L488.7 192L490.5 189.9L492.3 188.7L492.9 188.1L496.5 187.2L498.9 186.6Z" fill="#044664"/>
<path d="M514.2 373.2H523.2L523.5 377.7H531V378H514.2L513.6 377.4L513.9 376.8H514.5V374.7L513.9 373.5L514.2 373.2Z" fill="#EDF1EE"/>
<path d="M564.9 172.2L566.4 172.8L569.1 174.6L572.4 177.9L574.5 180.9L576.9 185.1L579.6 191.4L582 198L581.7 198.9L580.2 195.6L578.7 192L576.3 187.2L574.2 183.6L570.6 179.4L568.5 176.7L565.8 174L564.9 172.2Z" fill="#F4FDFB"/>
<path d="M62.4 368.4L65.4 368.7L69.3 369.9L74.4 371.1L75 371.4L75.3 372.6H60.9L60 372L61.8 370.5L62.4 368.4Z" fill="#F3FDFB"/>
<path d="M371.1 70.5H374.1L374.7 70.8H383.7V71.1L386.4 71.4V71.7H287.7V71.4L367.8 71.1L371.1 70.5Z" fill="#071C2A"/>
<path d="M332.1 91.2002H372.6L373.8 91.5002V92.1002H331.2V91.5002L332.1 91.2002Z" fill="#37888A"/>
<path d="M151.8 357.3H188.1L189.3 357.9V358.2H149.1V358.8L145.5 359.1L146.4 358.5L148.8 358.2V357.6L151.8 357.3Z" fill="#0C6578"/>
<path d="M311.7 363.9H313.8L318.6 365.7L320.1 366V366.6L321.9 367.2L324.6 369.3L326.4 371.4L326.1 372.9H324.3L323.4 372.3V371.7L322.2 371.1L320.1 368.4L318 366.6V366L317.1 366.3L317.4 366.9L315 367.2L312 366.3L310.8 365.7V364.8L311.7 363.9Z" fill="#06182C"/>
<path d="M401.1 139.5H405.3V145.5L405.6 145.8L425.7 146.1V146.4H388.8V146.1L400.8 145.8L401.1 145.5V139.5Z" fill="#DBEDED"/>
<path d="M206.7 357.9H238.5L243 358.5L246 359.4L247.2 360L247.5 360.9L247.2 361.2H243.9L241.2 360L240 359.7V358.5L207 358.8L206.7 365.7H206.4V358.2L206.7 357.9Z" fill="#30C2B1"/>
<path d="M148.2 373.5H186V374.1L178.5 374.7L150.9 374.4L146.7 374.1V373.8L148.2 373.5Z" fill="#071C2A"/>
<path d="M345.3 304.8H345.6L345.9 308.7L346.2 316.2L346.8 323.1L347.7 339.9L348.3 348.3L348.6 356.1L349.5 366.6V369L348.9 368.1L348.3 362.4L347.4 344.7L346.8 337.8L346.5 336.9L345.9 324.9L345.3 317.4V304.8Z" fill="#32C2B1"/>
<path d="M544.8 356.7H545.1L546.3 361.5V366.9L547.5 369.3L549.9 371.4L554.1 372.6V372.9H544.8V356.7Z" fill="#F5F8F7"/>
<path d="M249.9 132.3H304.2V132.6L300 132.9L257.4 133.2H252.6L249.9 132.9V132.3Z" fill="#032F46"/>
<path d="M447.6 373.5H491.4L490.2 374.1H484.2L443.7 374.7V374.1L447.6 373.8V373.5Z" fill="#071C2A"/>
<path d="M87.6001 232.2H87.9001L88.8001 242.1L89.4001 255.9L90.0001 260.7L90.6001 262.8L92.7001 265.2L93.6001 265.8L97.2001 266.4L97.5001 267.9L95.1001 270.3V277.5L97.2001 279.9L97.5001 280.5L96.3001 279.9L94.5001 278.4L93.9001 276.6V270.3L94.8001 268.8L94.5001 267.3L91.8001 265.5L90.6001 263.7L89.7001 263.1L88.8001 257.1L87.9001 239.4L87.6001 235.8V232.2Z" fill="#F4D3B4"/>
<path d="M201 291.6H203.4L203.1 292.2L201.3 292.5V323.7L201.9 324.3V328.2L201.6 336.9L201 338.4H200.4V322.5L200.7 291.9L201 291.6Z" fill="#A1D8CF"/>
<path d="M87 372H90.6L90 372.6H113.1L129.3 372.9V373.2H54V372.9L87.9 372.6L87 372Z" fill="#49BFAC"/>
<path d="M199.8 280.8H230.7L239.4 281.1L239.7 281.7H223.5L218.7 282H213.9L206.1 281.7H201.9L193.8 281.4V281.1L199.8 280.8Z" fill="#032038"/>
<path d="M333 163.5H334.5L333.9 174.9L333.6 180.3L333.3 180.9H331.8V175.8L332.7 163.8L333 163.5Z" fill="#91BAA6"/>
<path d="M332.1 95.1001H372.6V95.4001L362.4 96.0001H340.2L332.1 95.4001V95.1001Z" fill="#032F46"/>
<path d="M457.5 182.1L458.7 182.7V183.6L459.6 183.9L461.4 186.6V187.2H462V188.1L460.5 187.8L459.6 187.5H456.3L456 188.1H452.7L453 186.9L455.7 183.9L457.5 182.1Z" fill="#ECF8F6"/>
<path d="M428.7 239.7H429L429.3 261L429.6 265.2L485.7 265.5V265.8L428.7 266.1V239.7Z" fill="#061B29"/>
<path d="M183 265.8L183.9 266.1V266.4L259.2 266.7L261.9 267.3V267.6L258.3 267.3H180.9L181.2 266.4L183 265.8Z" fill="#F2D3B3"/>
<path d="M133.2 71.3999L134.1 71.6999L133.5 73.1999L132.6 74.3999H132L131.7 75.5999H131.1L130.5 76.7999L129.3 77.9999H128.7L128.1 79.1999L127.2 80.3999H126.3L126 81.8999L124.2 82.7999L124.5 80.6999L126.6 77.3999L129.3 74.0999L131.7 71.9999L133.2 71.3999Z" fill="#09182B"/>
<path d="M513.3 373.8L514.5 374.1L514.8 376.2L514.5 376.8H513.9L514.2 378H502.8L501.9 377.7L500.1 377.4L501.6 376.2L502.5 375.9L504.9 376.5L505.8 376.2H511.5L512.4 375.6L513.3 373.8Z" fill="#02233E"/>
<path d="M210 373.5H238.8V374.1L226.8 374.7H216.9L208.5 374.1V373.8L210 373.5Z" fill="#071C2A"/>
<path d="M237.3 105.6H237.6L237.9 110.1L237.3 111.9L237 112.5H237.6V113.1H238.5L239.1 116.4L238.8 119.7L238.2 121.2L237.3 122.1H237L236.7 124.8L235.8 125.1L236.1 119.7L237 108.9L237.3 105.6Z" fill="#022441"/>
<path d="M485.1 161.7H485.4L486 165.6L485.7 169.2L484.5 172.2V177.6L485.1 184.2V187.5L484.5 187.2L484.2 185.4L483.6 177.3L483.3 169.5L484.2 165.3L485.1 161.7Z" fill="#35C8B6"/>
<path d="M81 373.2H108V373.5L93.9 373.8L90.6 375.6L87.9 375.3L86.4 375.6L84.3 375L84.6 374.1L81 373.5V373.2Z" fill="#03344E"/>
<path d="M343.5 372H347.1L346.8 372.6L396.6 372.9V373.2H327V372.9H344.7V372.3L343.5 372Z" fill="#86BBA7"/>
<path d="M466.5 161.1L466.8 162.3H467.7V162.9L468.3 163.2V165.6L468.9 166.8V168.9L467.7 171.6L467.1 173.1L465.9 172.8V167.1L466.5 161.1Z" fill="#47CEBD"/>
<path d="M221.1 210H228.6L230.1 210.3L237.6 210.6L275.4 210.9V211.2H220.5V211.8L219 212.1L220.2 210.3L221.1 210Z" fill="#044664"/>
<path d="M199.5 371.7L204.3 372L204 372.6H231L244.5 372.9V373.2H199.5L199.2 372L199.5 371.7Z" fill="#4CC8B5"/>
<path d="M88.2002 378.3H125.4V378.9L123.6 379.5H118.5L109.8 378.9H90.3002L88.2002 378.6V378.3Z" fill="#FEFDFD"/>
<path d="M279 353.7L289.2 354.3L290.4 354H296.1L297.3 358.2L297.9 358.8L297 359.1L295.2 355.5L294.3 354.9H291.9L290.4 355.8L286.5 356.1L285 355.2V354.6H280.2L280.5 354.9V357L281.4 359.1V360H280.8L279 354.9V353.7Z" fill="#F1D5B9"/>
<path d="M155.4 281.1H193.2V281.4L184.2 282H171.9L156.6 281.7L155.4 281.1Z" fill="#041F34"/>
<path d="M274.2 364.8H276L281.7 367.2L282.9 368.4L284.1 368.7L283.5 369.9L282 369.6L280.5 369L277.8 368.4L274.5 367.2L273.9 366H274.5L274.2 364.8Z" fill="#05162A"/>
<path d="M314.1 117.6L316.5 117.9V118.8H319.2L321.9 119.1V120.3L319.8 120.6L318.9 120.9L318 121.8H315.9V122.4L314.4 122.7L314.1 121.5L314.7 119.7V118.2H314.1V117.6Z" fill="#044563"/>
<path d="M98.0998 287.7H99.2998V290.7L98.9998 293.7L98.6998 296.4L97.7998 298.2L96.8998 298.5L96.2998 297.6L96.5998 293.7L97.1998 291.3L97.7998 288L98.0998 287.7Z" fill="#043E60"/>
<path d="M207.6 357.3H238.8L241.2 357.9V358.2L207.6 357.9V357.3Z" fill="#065369"/>
<path d="M86.7 359.7H87L87.3 364.5L88.2 364.8L88.8 367.5L88.2 369H87.6V370.8L87 372H86.4L85.5 370.5L85.8 366.9L86.7 359.7Z" fill="#044664"/>
<path d="M488.1 156.9H488.4L489 165.3L488.7 166.5H489.3V170.4L488.7 172.5L489.3 172.8H488.1L487.8 169.5L486.9 162.3L487.5 158.7L488.1 156.9Z" fill="#36CAB8"/>
<path d="M378.3 111.6L380.4 111.9L381.3 112.5L381.6 114V116.1L381.3 116.4H378.3V115.8H377.7V115.2H377.1V113.1L378.3 111.6Z" fill="#31CDBA"/>
<path d="M545.7 339L547.8 339.6L548.1 340.2L547.5 341.4L546.9 345L546 346.5L545.7 348.6L545.1 353.4H544.8V348.6L545.1 340.8L545.7 339Z" fill="#EDFBF9"/>
<path d="M340.5 228.6H340.8L341.7 243.6L342.3 252.6L342.9 263.4V266.7H342.6L342 260.4L341.4 249L341.1 248.1L340.5 239.4V228.6Z" fill="#32C0B0"/>
<path d="M379.5 91.2002H382.2L382.8 91.5002L383.1 93.9002L382.5 95.1002L381.3 95.7002L380.1 95.4002L378.6 94.5002L378 93.0002L379.5 91.2002Z" fill="#2DC2B2"/>
<path d="M235.5 126.3H235.8L236.1 128.4L237.3 129.6L237.6 132.9L237.3 135.3L235.8 136.5L234.9 137.4L235.2 129.9L235.5 126.3Z" fill="#022744"/>
<path d="M377.1 122.4H379.8L380.4 123V126L380.1 126.9H377.1L376.2 125.4L376.5 123.3L377.1 122.4Z" fill="#2ECAB8"/>
<path d="M378.3 102H381L382.5 103.5L382.2 105.3L380.7 106.2H378.9V105.6H378.3L377.7 104.4V102.6L378.3 102Z" fill="#25BBAB"/>
<path d="M254.1 87.6001H305.7V87.9001L254.7 88.2001L254.4 88.5001H252.9L253.2 87.9001L254.1 87.6001Z" fill="#91BBA7"/>
<path d="M345.3 304.8H345.6L345.9 308.7L346.2 316.2L346.5 319.2L346.8 330.6V336.9H346.5L345.9 324.9L345.3 317.4V304.8Z" fill="#1F9997"/>
<path d="M62.4 368.7L63 369V369.6L68.7 370.8L69 371.7L68.1 372L63.3 372.6H60.9L60 372L61.8 370.5L62.4 368.7Z" fill="#FDFDFC"/>
<path d="M331.5 249L331.8 249.9H332.4L332.7 253.2L333 261.9L333.6 264.3L334.2 275.4L334.5 276V279.9H334.2L333.3 273L333 267.3L332.4 263.1L331.8 253.2L331.5 249Z" fill="#42B5A7"/>
<path d="M524.1 373.5H526.2L526.5 374.7V376.2H528.3L530.7 377.4V377.7H523.5V375L524.1 373.5Z" fill="#022340"/>
<path d="M501 174.9H501.9L501.6 176.1L499.5 179.4L499.2 178.8H498.3V179.4L496.2 179.7L495.9 178.5L496.2 177.9L495.9 177L500.1 175.2L501 174.9Z" fill="#179098"/>
<path d="M238.2 100.2L240 101.1L240.3 103.5L239.7 105.6L238.2 107.7L237.9 109.2H237.6V100.8H238.2V100.2Z" fill="#022642"/>
<path d="M311.7 363.9H313.8L317.1 365.1L317.7 366L317.1 366.3L317.4 366.9L315 367.2L312 366.3L310.8 365.7V364.8L311.7 363.9Z" fill="#051529"/>
<path d="M219.3 212.7H219.6V222.3L218.7 229.2L218.1 228.9V228.3L217.2 228L216.6 226.5L216.9 224.4L217.8 223.2H218.4L219 220.8L219.3 212.7Z" fill="#116979"/>
<path d="M94.1999 266.7H96.5999L96.8999 267.9L95.9999 269.4L95.0999 270.3V277.5L97.1999 279.9L97.4999 280.5L96.2999 279.9L94.4999 278.4L93.8999 276.6V270.3L94.7999 268.8L94.4999 267.3L94.1999 266.7Z" fill="#DFE4E3"/>
<path d="M261.9 73.5H263.7L264.9 74.4V76.2L264 77.1L261.6 77.4L260.4 76.2V74.7L261.9 73.5Z" fill="#F8FAFA"/>
<path d="M248.7 73.5H250.5L251.7 74.4V76.5L251.1 77.1L249 77.4L247.2 76.5V74.7L248.7 73.5Z" fill="#F7FBFA"/>
<path d="M471.9 237.3H487.8L487.2 238.5L471.6 238.2L471.9 237.3Z" fill="#032F46"/>
<path d="M426.3 139.5H452.1V139.8L435.9 140.1H432.9L431.7 140.7H427.2L426.3 139.8V139.5Z" fill="#D7F1F1"/>
<path d="M254.7 73.5H257.7L258 74.1L257.7 76.8L256.2 77.4L254.7 77.1L254.1 75.9V74.1L254.7 73.5Z" fill="#F6FBFB"/>
<path d="M376.2 378H405L404.1 378.6H397.2L389.4 378.9L387.6 378.6L376.2 378.3V378Z" fill="#E3F6F6"/>
<path d="M312 188.4H332.1V189L312 189.3V188.4Z" fill="#044864"/>
<path d="M255.3 82.7998H262.5L263.7 83.3998L262.8 84.2998L260.7 84.5998L255 84.2998L254.7 83.0998L255.3 82.7998Z" fill="#044664"/>
<path d="M239.1 82.7998H239.4L240 87.5998L240.3 89.0998L239.4 92.6998L239.1 96.2998L238.5 97.7998L238.2 100.8H237.9V97.1998L238.8 86.3998L239.1 82.7998Z" fill="#03354E"/>
<path d="M240.3 358.5H243L246 359.4L247.2 360L247.5 360.9L247.2 361.2H243.9L240.3 359.7V358.5Z" fill="#E8B037"/>
<path d="M92.7002 319.8H93.0002V322.2L94.5002 321.3L95.4002 321.6V322.2H94.8002V322.8L94.2002 323.1V324.3L93.0002 324.9L92.4002 327.9L92.1002 328.2L91.8002 331.2L91.2002 331.5L91.5002 325.8L92.4002 321.9L92.7002 319.8Z" fill="#0F6475"/>
<path d="M210.6 291.6H240V291.9L224.4 292.2H210.9L210.6 293.1L210.3 291.9L210.6 291.6Z" fill="#94BAA6"/>
<path d="M139.2 120.9L139.8 121.2L140.1 126V129.6L139.8 129.9H126.3L126.9 129.3H139.5L139.2 120.9Z" fill="#DFE3E0"/>
<path d="M316.8 126L335.1 126.3L336 126.9L334.2 127.2L317.4 126.9L316.8 126.6V126Z" fill="#022E45"/>
<path d="M428.7 239.7H429L429.3 261L429.6 265.2L429.9 265.5L433.8 265.8V266.1H428.7V239.7Z" fill="#061327"/>
<path d="M386.7 27L388.2 27.6L391.5 30.6L393.9 32.7L399.3 38.1L400.8 39.9L400.5 40.5L396.9 36.9L395.4 35.1L393 33L392.1 32.1V31.5L390.9 30.9L389.4 30V29.4L388.2 28.8L386.7 27Z" fill="#F3FDFB"/>
<path d="M114.6 378.3H125.4V378.9L123.6 379.5H118.5L115.2 379.2L114.3 378.6L114.6 378.3Z" fill="#FEFDFD"/>
<path d="M44.6998 372H57.5998L58.7998 372.6L43.7998 373.2L44.0998 372.3L44.6998 372Z" fill="#F7F9F9"/>
<path d="M340.5 347.4H340.8L341.4 355.5H342L342.3 356.4V366.3L342.6 370.2L342 369L341.7 366.6L341.4 360.6L340.5 351.6V347.4Z" fill="#409F99"/>
<path d="M471.3 167.4H471.6L471.9 169.2L471.6 178.8L471.3 184.2V188.7L470.7 189.6L470.4 187.8V183.9L471 177.3V167.7L471.3 167.4Z" fill="#31C6B4"/>
<path d="M146.1 66.2998H149.7L150.9 66.5998V67.4998L147 68.3998L144.9 68.0998L143.4 66.8998L146.1 66.2998Z" fill="#08182C"/>
<path d="M240.3 71.3999H240.6L241.2 74.0999L241.5 75.2999L240.9 77.9999L240 81.5999L239.4 82.1999V78.5999L240 72.5999L240.3 71.3999Z" fill="#033149"/>
<path d="M385.8 132.3H386.1V146.1L385.2 145.8L384.9 141.6L385.2 136.8L385.5 135.9L385.8 132.3Z" fill="#06566C"/>
<path d="M492 167.4H493.5L493.2 168.6L489.3 172.5H488.7L489.3 169.8L490.8 168L492 167.4Z" fill="#EDFAF9"/>
<path d="M201 291.6H203.4L203.1 292.2L201.3 292.5L201 318H200.7V291.9L201 291.6Z" fill="#55C7B5"/>
<path d="M136.5 376.8H138L138.3 377.1L159.3 377.4V377.7L133.5 378V377.7L136.2 377.4L136.5 376.8Z" fill="#071C2A"/>
<path d="M96.3001 300H96.9001L97.5001 301.5V303.6L96.0001 305.7L95.1001 304.8V302.4L95.4001 301.2L96.0001 300.9L96.3001 300Z" fill="#054664"/>
<path d="M260.4 280.5L261.6 280.8L260.7 281.1L251.1 281.4L251.4 283.2L250.5 284.7L249.9 284.1L249 281.4L247.8 280.8L260.4 280.5Z" fill="#F2E9D8"/>
<path d="M44.4002 372.9H54.0002L57.3002 373.2L57.0002 373.8H50.1002L49.8002 373.5H47.4002L47.1002 373.8H43.2002L43.5002 373.2L44.4002 372.9Z" fill="#043F60"/>
<path d="M499.2 163.2H499.8L499.5 165L498 168L497.7 167.4L498 166.2L497.4 165.3L495 167.4L492 170.4L491.4 170.1L493.8 167.4L495.6 165.9L497.1 164.4L499.2 163.2Z" fill="#2BB0A8"/>
<path d="M205.8 204.9H206.7V206.4L208.2 208.5L208.5 210L207.6 211.5L206.7 211.8L205.5 205.8L205.8 204.9Z" fill="#044664"/>
<path d="M454.5 203.1L454.8 203.7L457.5 204V204.9L454.8 205.2L440.4 204.9V204.6L451.8 204.3L454.2 204L454.5 203.1Z" fill="#40D6C2"/>
<path d="M248.4 72.8999H250.5L252 73.7999L252.3 74.9999V77.0999L250.5 77.6999L249.9 78.5999L248.4 78.2999L248.1 77.0999L251.1 76.7999L251.4 76.4999V74.3999L250.5 73.7999H248.7L247.5 74.6999L247.2 76.4999L246.6 75.8999L246.9 74.3999L248.4 72.8999Z" fill="#3AD9C5"/>
<path d="M245.1 66.8999H246.9L247.2 67.4999L246.9 68.3999L249.9 67.7999L250.5 67.4999V68.0999H251.1V68.6999L248.1 69.5999L244.8 69.8999L245.4 68.6999L245.1 66.8999Z" fill="#022340"/>
<path d="M88.7998 255.9H89.3998L89.9998 260.7L90.5998 262.8L92.6998 265.2L93.5998 265.8L97.1998 266.4L97.4998 267.9L97.1998 268.5H96.5998V267L93.2998 266.7L91.7998 265.5L90.5998 263.7L89.6998 263.1L88.7998 257.1V255.9Z" fill="#F1D4B7"/>
<path d="M453.3 174.9L454.8 175.2L457.8 176.4L456.9 177.9L455.4 178.5L453.3 176.1V174.9Z" fill="#1D8B94"/>
<path d="M496.5 174L498 174.3L498.3 175.8L495.9 177.3L494.7 177.6L494.4 176.7L495.3 174.6L496.5 174Z" fill="#F0FAF9"/>
<path d="M254.1 72.8999H257.4L258.3 73.4999L258.6 75.5999L258 77.0999L256.8 77.6999L256.2 78.5999L254.7 78.2999L255.3 77.9999V77.3999L257.4 76.7999L257.7 74.0999V73.4999L254.7 73.7999L254.4 74.0999L254.7 77.0999H254.1L253.2 74.6999L254.1 72.8999Z" fill="#3AD9C5"/>
<path d="M99.2998 328.2H99.5998L99.2998 330.6L97.1998 343.8L96.5998 346.5H96.2998L96.5998 343.5L97.7998 334.8L98.0998 331.8L99.2998 328.2Z" fill="#31CCB9"/>
<path d="M207 211.5L208.5 211.8L208.8 212.4V222.9H208.5L208.2 215.4L207 214.5L206.7 211.8L207 211.5Z" fill="#C4D9CF"/>
<path d="M388.2 75L390 75.3L390.9 75.9L390.6 77.1L388.5 77.4L388.2 77.7H386.4L385.2 76.5L387.6 75.6L388.2 75Z" fill="#0FB39F"/>
<path d="M86.7 359.7H87V364.2L86.7 368.7L87 372H86.4L85.5 370.5L85.8 366.9L86.7 359.7Z" fill="#2FA199"/>
<path d="M542.7 153.3L545.4 154.2L548.7 156L552.6 159L554.1 160.8L552.9 160.2L551.7 159L549.3 157.8L548.1 156.9V156.3L546.3 155.7L542.7 153.6V153.3Z" fill="#F3FDFB"/>
<path d="M45.2998 378H62.6998V378.3L57.8998 378.6H55.1998L52.7998 378.9L51.5998 378.6L45.2998 378.3V378Z" fill="#C5D9D0"/>
<path d="M384 147H385.8V150.9L384 150.6L383.7 150V147.3L384 147Z" fill="#061327"/>
<path d="M559.2 372L560.4 372.3L559.5 375.6H559.2V373.2H544.8V372.9L557.7 372.6L559.2 372Z" fill="#0D4F69"/>
<path d="M343.5 372H347.1L346.8 372.6L345.3 373.2H327V372.9H344.7V372.3L343.5 372Z" fill="#20B7A7"/>
<path d="M101.7 294.6H102.3L102.6 298.2L101.7 299.4H100.8V297.6L100.2 297.3L101.1 294.9L101.7 294.6Z" fill="#053E60"/>
<path d="M334.5 280.2H334.8L335.4 288.6L336 290.7V298.5H335.7L335.4 293.4L334.8 289.2L334.5 285V280.2Z" fill="#49B9AB"/>
<path d="M397.5 78.8999H397.8V81.8999L397.2 89.9999H396.9V82.4999L396 82.1999V79.7999L397.2 79.4999L397.5 78.8999Z" fill="#022F4B"/>
<path d="M212.1 299.7H212.4V302.4L211.8 307.8L211.2 316.2H210.9V303.3L211.5 303L212.1 299.7Z" fill="#2AADA5"/>
<path d="M420 139.5H422.7L426 139.8L425.1 140.4L423.9 141L420.3 141.6L420 139.5Z" fill="#D5F4F4"/>
<path d="M316.2 108.6H318L318.6 109.2L318.3 110.7L317.1 111V111.6L316.5 112.2L315.3 111.9L315.9 108.9L316.2 108.6Z" fill="#044664"/>
<path d="M535.5 376.8L537.9 377.1H552.3L553.2 377.7H534.3L535.5 376.8Z" fill="#022340"/>
<path d="M128.4 362.4H128.7V369.6L128.1 370.5L127.2 368.7L127.5 365.7L128.4 362.4Z" fill="#136477"/>
<path d="M96.0002 268.5L96.6002 268.8L95.1002 270.3V277.5L97.2002 279.9L97.5002 280.5L96.3002 279.9L94.5002 278.4L94.2002 275.1V270.6L96.0002 268.5Z" fill="#F1D4B8"/>
<path d="M401.1 139.5H405.3L405 141.3L404.7 140.4L404.4 141H403.5L403.2 141.9L402.3 141.6L401.4 141.9L401.1 139.5Z" fill="#D5F4F4"/>
<path d="M495.9 377.4H502.5L502.8 378H500.7V378.6L500.1 378.9H497.1L495.9 377.4Z" fill="#071C2A"/>
<path d="M203.1 291.9H203.7V295.2L203.1 295.5V294.9H201.6L201 292.5L203.1 291.9Z" fill="#FDFCFC"/>
<path d="M99.6 280.8L106.5 281.1V282L105.3 282.3L104.4 282H101.1L99.9 282.3L99 281.7V281.1L99.6 280.8Z" fill="#043F60"/>
<path d="M219.9 211.8H225.3L230.4 212.1V212.4H220.5L220.2 213L219.9 218.7H219.6V212.1L219.9 211.8Z" fill="#41CCB9"/>
<path d="M98.3998 309.3L99.5998 309.6V312.3L98.9998 314.7L98.0998 315L97.7998 314.7V312.6L98.6998 309.9L98.3998 309.3Z" fill="#053E60"/>
<path d="M212.7 296.4L213.3 297.6L216 303.9L215.7 304.5L214.2 302.4L213 301.8L212.7 296.4Z" fill="#DFEAEB"/>
<path d="M378.3 111.6H379.8L378.6 111.9V112.8L380.1 113.1V114.6L378.9 114.9L377.4 114.3L377.1 115.2V113.1L378.3 111.6Z" fill="#0EA79A"/>
<path d="M426.3 139.5H432.3L431.7 140.7H427.2L426.3 139.8V139.5Z" fill="#D5F3F3"/>
<path d="M310.5 370.2L312.6 370.5L314.7 370.2L315.3 371.4L315 371.7H310.2V370.8L310.5 370.2Z" fill="#061327"/>
<path d="M87 372H90.6L90 372.6H95.7L101.1 372.9V373.2H88.5L87 372Z" fill="#6FC1AE"/>
<path d="M199.5 371.7L204.3 372L204 372.6L204.9 373.2H199.5L199.2 372L199.5 371.7Z" fill="#92D8CD"/>
<path d="M208.2 213.6H208.5V221.1L206.4 223.2V222.3L207.6 220.8V215.1H207.9L208.2 213.6Z" fill="#EAF5F3"/>
<path d="M95.1002 308.7L96.3002 309.3V311.4L95.4002 313.2H94.8002V313.8H94.2002V312L94.8002 309.9L95.1002 308.7Z" fill="#053E60"/>
<path d="M379.8 102.9L381.6 103.5L381.9 104.1L382.5 103.5L382.2 105.3L380.7 106.2H378.9V105.9L381 105.3L381.3 105L379.8 104.7L379.5 105.3L378.9 103.5L379.8 102.9Z" fill="#0EA79A"/>
<path d="M547.5 340.2L547.8 340.8L547.2 343.2L546.6 345.3L545.7 346.5L545.4 342.9L546 342H546.6L547.2 340.5L547.5 340.2Z" fill="#FEFDFD"/>
<path d="M483.9 177.6H484.5L485.1 184.2V187.5L484.5 187.2L484.2 185.4L483.9 177.6Z" fill="#31C6B4"/>
<path d="M292.2 354H296.1L297.3 358.2L297.9 358.8L297 359.1L295.2 355.5L294.3 354.9L291.9 354.6L292.2 354Z" fill="#EDD1B3"/>
<path d="M343.2 280.2H343.5L344.1 287.1V292.2H343.8L342.9 283.8L343.2 280.2Z" fill="#096676"/>
<path d="M498.9 186.6H500.1L499.2 188.4H498.6L498.3 189.6L496.8 189.3L497.1 187.5L496.5 187.2L498.9 186.6Z" fill="#289C9B"/>
<path d="M494.7 187.5H497.1L497.4 188.4L497.1 189.3L497.7 189.9L496.5 190.2L495.9 189.6L494.7 189.3V188.4H493.8V187.8L494.7 187.5Z" fill="#086772"/>
<path d="M279 353.7H281.1L282.6 354V354.3L280.2 354.6L280.5 354.9V357L281.4 359.1V360H280.8L279 354.9V353.7Z" fill="#EFD2B5"/>
<path d="M100.5 302.1L101.1 303.3L100.5 306.6L99.6 306.9L99 304.2L99.9 302.4L100.5 302.1Z" fill="#053E60"/>
<path d="M183 77.3999L183.6 77.9999L183.9 80.9999L182.4 84.8999L182.1 83.6999L183 77.3999Z" fill="#135968"/>
<path d="M180 62.3999L182.1 63.5999L182.7 66.2999V70.7999L182.4 72.8999H182.1L181.8 65.3999L181.5 64.1999L180.6 63.5999V62.9999H180V62.3999Z" fill="#0D4960"/>
<path d="M428.7 309.6H445.5V309.9L430.2 310.2L429.3 310.5L428.7 309.6Z" fill="#061C2A"/>
<path d="M207.9 296.1L209.1 296.7V299.7L208.5 300.6H207.6L207.3 299.4L207.9 296.1Z" fill="#044664"/>
<path d="M267.3 362.4L269.7 362.7L274.8 364.5V364.8H271.8L270.9 364.5L270.6 363.9L267.6 363.3L267.3 362.4Z" fill="#051A2F"/>
<path d="M468.6 158.4L469.2 159.3L471 165.3L470.7 166.5L470.1 165.9L469.8 165V162.3L468.9 162L468.6 161.1V158.4Z" fill="#38CCBA"/>
<path d="M88.8001 347.4L89.4001 348.6V350.1L88.8001 351.6L88.2001 353.4L87.9001 355.5H87.6001V353.1L88.5001 347.7L88.8001 347.4Z" fill="#35908F"/>
<path d="M579 285.9L579.3 286.8L577.8 290.4L576.3 291.9L576 291.3L578.7 286.2L579 285.9Z" fill="#F3FDFB"/>
<path d="M245.1 73.5L245.7 74.1L246 78L246.3 78.9H244.8V73.8L245.1 73.5Z" fill="#0EAC9B"/>
<path d="M290.4 361.2H293.7L293.4 362.1L291.9 362.4L285.6 361.8V361.5L290.4 361.2Z" fill="#05172B"/>
<path d="M29.7001 273.3H30.3001L30.0001 274.5L29.1001 274.8L28.5001 276L26.4001 278.4L26.1001 277.8L28.2001 274.8L29.7001 273.3Z" fill="#F5FDFB"/>
<path d="M379.5 91.2002H381.9V91.5002L379.8 91.8002L379.2 92.4002L378.9 93.9002L379.8 93.6002L380.7 92.7002L381.3 93.3002L379.8 95.1002L378.6 94.5002L378 93.0002L379.5 91.2002Z" fill="#0EA399"/>
<path d="M495.3 184.8L496.5 185.1L496.8 186.6L495.9 187.2L494.4 186.9V185.7H495L495.3 184.8Z" fill="#EDFAF8"/>
<path d="M250.2 91.2002L250.5 92.4002L249.9 99.0002H249.6L249.3 92.1002L250.2 91.2002Z" fill="#075C70"/>
<path d="M300 360H301.8L303.3 360.9V361.2H301.8V361.8L302.4 362.1H300.6L300 360Z" fill="#05172C"/>
<path d="M240 359.7L242.1 360L242.4 360.9L241.2 361.2L242.4 362.1L241.2 362.4L240.9 363.3L240 360.9V359.7Z" fill="#06263C"/>
<path d="M183 265.8L183.9 266.1V266.4L187.5 266.7V267L184.2 267.3H180.9L181.2 266.4L183 265.8Z" fill="#F3D2AC"/>
<path d="M44.4002 372.9H51.3002V373.2L47.4002 373.5L47.1002 373.8H43.2002L43.5002 373.2L44.4002 372.9Z" fill="#1F7E84"/>
<path d="M429 261H429.3L429.6 265.2L429.9 265.5L433.8 265.8V266.1H428.7V262.8L429 261Z" fill="#061528"/>
<path d="M331.5 249L331.8 249.9H332.4L332.7 253.2V257.4H332.4L332.1 254.1L331.5 251.1V249Z" fill="#1E8D8F"/>
<path d="M378.3 102.6H378.9V104.1L379.8 104.7H381.6L380.4 105.9L378.3 105.6V102.6Z" fill="#32CBB9"/>
<path d="M94.1998 307.2H94.4998V311.1L93.5998 315.3H93.2998L93.5998 310.8L94.1998 307.2Z" fill="#43AA9F"/>
<path d="M91.7998 265.2L93.2998 265.5L95.0998 266.1L97.1998 266.4L97.4998 267.9L97.1998 268.5H96.5998V267L93.2998 266.7L91.7998 265.2Z" fill="#EDD8C2"/>
<path d="M237.3 105.6H237.6L237.9 110.1L237.3 111.9L237 115.2H236.7V111.6L237.3 105.6Z" fill="#033651"/>
<path d="M567.3 310.5L567.6 311.7L565.8 314.4L564.6 315.3L565.2 313.2L567.3 310.5Z" fill="#F3FDFB"/>
<path d="M340.8 241.2H341.1V243.6H341.7V249L341.1 248.1L340.8 244.2V241.2Z" fill="#189695"/>
<path d="M99.2998 328.2H99.5998L99.2998 330.6L98.6998 334.8L97.7998 336L98.0998 331.8L99.2998 328.2Z" fill="#23AEA5"/>
<path d="M513.9 151.5H515.4L514.5 152.4L511.2 153.3L510 153.9L508.8 153.6L513 151.8L513.9 151.5Z" fill="#F4FDFB"/>
<path d="M91.5 340.5L92.7 340.8L93 342.6L92.4 344.1L91.8 343.8L91.5 342V340.5Z" fill="#044563"/>
<path d="M210.6 312.3H210.9V316.5L210.3 321.3H210V315.9L210.3 315.6L210.6 312.3Z" fill="#086174"/>
<path d="M238.8 93.6001H239.1V96.3001L238.5 97.8001L238.2 100.8H237.9V97.2001L238.2 94.5001L238.8 93.6001Z" fill="#03334D"/>
<path d="M396 71.1001H397.5V73.2001L396.3 73.5001L395.7 72.6001L396 71.1001Z" fill="#022340"/>
<path d="M460.8 186.3L461.4 186.6V187.2H462V188.1L460.5 187.8L459.6 187.5H456L455.1 186.6L459.9 186.9L460.8 187.2V186.3Z" fill="#B6D0C5"/>
<path d="M455.4 163.2L456.9 163.8L458.1 164.7V165.6L456 165.3L455.4 164.1V163.2Z" fill="#3DC1B4"/>
<path d="M135.3 351.3H135.9L135.3 352.5L134.1 353.7L132.3 355.8L131.4 356.1V355.5L132.9 354L134.7 351.9H135.3V351.3Z" fill="#09556B"/>
<path d="M200.7 318L201.3 318.6V323.4H200.4L200.7 318Z" fill="#98E5DF"/>
<path d="M94.4999 269.1L95.3999 269.4L94.4999 270.6V277.2L93.8999 276.6V270.3L94.4999 269.1Z" fill="#DFE1DE"/>
<path d="M523.5 372.9L526.2 373.2V373.5L524.1 373.8L523.8 376.2L523.5 377.1L523.2 376.8V373.2L523.5 372.9Z" fill="#033852"/>
<path d="M559.2 372L560.4 372.3L559.5 375.6H559.2L558.9 373.2L557.7 372.6L559.2 372Z" fill="#F1F3F2"/>
<path d="M239.7 75.6001H240L240.3 80.7001L239.7 82.2001H239.4V78.6001L239.7 75.6001Z" fill="#05485F"/>
<path d="M110.1 378.3H114.6L115.2 379.2L110.1 378.9V378.3Z" fill="#F6F7F6"/>
<path d="M71.7002 378.3H77.1002L76.2002 379.2L72.3002 378.9L71.7002 378.3Z" fill="#FBFAFA"/>
<path d="M558.6 373.2H559.2V377.7L558.3 377.4L558.6 376.8L558 376.5L558.6 373.2Z" fill="#03223A"/>
<path d="M308.4 362.7H310.2L311.1 363.6H309.3L309.6 364.5L309 364.8L308.1 364.5L308.4 362.7Z" fill="#05172C"/>
<path d="M238.5 357.3L241.2 357.9V358.2L232.5 357.9V357.6L238.5 357.3Z" fill="#044563"/>
<path d="M496.8 378H500.7V378.6L500.1 378.9H497.1L496.8 378Z" fill="#DEE7E0"/>
<path d="M136.5 376.8H138L138.9 377.7L138.3 378H133.5V377.7L136.2 377.4L136.5 376.8Z" fill="#041D34"/>
<path d="M453 186.9L456 187.2V188.1H452.7L453 186.9Z" fill="#F8FBFA"/>
<path d="M552.9 333.3V334.2L550.2 337.2L549.6 337.5L550.2 336.3L551.4 334.5H552V333.9L552.9 333.3Z" fill="#F3FDFB"/>
<path d="M294.6 180L296.4 180.6L295.8 181.2H288.6V180.9L294.9 180.6L294.6 180Z" fill="#DFDFDB"/>
<path d="M376.2 123.3L376.5 124.2V126L375.3 125.7L374.7 125.1V124.2L376.2 123.3Z" fill="#044B66"/>
<path d="M430.2 139.5H432.3L431.7 140.7L427.5 140.1V139.8L430.2 139.5Z" fill="#E3F8F7"/>
<path d="M385.2 124.5H385.8L386.1 125.4V127.8L384.9 126.6L384.6 125.1L385.2 124.5Z" fill="#044664"/>
<path d="M462.3 194.4L464.4 194.7L465 195.3L464.1 195.6H462L461.7 194.7L462.3 194.4Z" fill="#E2E4D2"/>
<path d="M236.1 119.7H236.4L236.7 124.8L235.8 125.1L236.1 119.7Z" fill="#033A55"/>
<path d="M381.3 93.6001H381.9L382.2 95.1001L381.3 95.7001L380.1 95.4001L380.7 94.2001L381.3 93.6001Z" fill="#39D7C3"/>
<path d="M264 76.7998L264.6 77.0998L263.1 78.5998L261.6 78.2998L261.3 77.0998L264 76.7998Z" fill="#3AD9C5"/>
<path d="M144.3 289.8H146.1L146.7 290.4L146.4 290.7L147 291.3L144 291L143.4 290.4H144.9L144.3 289.8Z" fill="#0C526C"/>
<path d="M467.1 279.6H468L467.7 281.4L467.4 280.5L463.5 280.2V279.9L467.1 279.6Z" fill="#044361"/>
<path d="M499.2 163.2H499.8L499.5 165L498 168L497.7 167.4L499.2 164.1L498.3 163.8L499.2 163.2Z" fill="#36D2BE"/>
<path d="M392.4 72H393.3V72.6H393.9L393.6 77.7H393.3L393 73.5L392.4 72Z" fill="#084454"/>
<path d="M545.1 358.2L545.7 359.1L546 361.8L545.1 362.4V358.2Z" fill="#F4FDFB"/>
<path d="M523.5 375L524.7 375.3L525 376.8L524.4 377.4L523.5 377.7V375Z" fill="#032F46"/>
<path d="M267.3 362.4L269.7 362.7L271.2 363.3V363.6H269.1L267.3 363V362.4Z" fill="#051D32"/>
<path d="M454.5 203.1L454.8 203.7L457.5 204V204.3L455.4 204.6H451.8V204.3L454.2 204L454.5 203.1Z" fill="#54B6A2"/>
<path d="M100.2 322.5H100.5L100.2 325.5L99.9001 327.9H99.6001V323.7L100.2 322.5Z" fill="#29BBAE"/>
<path d="M242.4 288.3H243.3L242.7 289.5L240.9 291.3H240.3L240.6 290.4H241.2V289.5L242.1 289.2L242.4 288.3Z" fill="#03243B"/>
<path d="M469.8 162.6L470.4 163.2L471 166.2L470.4 166.5L469.8 165V162.6Z" fill="#32C8B6"/>
<path d="M497.7 164.1H499.2L498.6 165.9H497.7L497.4 164.7L497.7 164.1Z" fill="#11B5A1"/>
<path d="M401.1 142.5H401.4V145.5L400.8 146.1H397.8V145.8L400.2 145.5L400.8 144.9L401.1 142.5Z" fill="#F3FDFB"/>
<path d="M156.9 130.5H159.9L160.2 131.7L159 132L158.4 131.1L156.9 130.8V130.5Z" fill="#109496"/>
<path d="M261.3 72.8999H264L264.9 73.7999L264.6 74.3999L263.7 73.7999H261.3V72.8999Z" fill="#3AD9C5"/>
<path fill-rule="evenodd" clip-rule="evenodd" d="M500.036 89C500.34 88.35 500.673 87.683 501.036 87C499.037 84.3376 497.371 81.5042 496.036 78.5C496.975 76.5561 498.309 74.8894 500.036 73.5C513.966 65.1956 527.966 56.8623 542.036 48.5C540.703 47.8333 539.369 47.8333 538.036 48.5C521.712 56.2734 505.378 64.1068 489.036 72C488.145 71.3902 487.145 71.0569 486.036 71C481.385 68.2676 476.719 65.4343 472.036 62.5C470.499 61.3904 469.833 59.8904 470.036 58C497.104 52.9888 524.104 47.6554 551.036 42C551.196 43.6992 551.03 45.3659 550.536 47C537.323 64.9377 524.489 83.1043 512.036 101.5C509.791 101.305 507.958 100.138 506.536 98C505.269 95.225 503.769 92.559 502.036 90C501.579 89.202 500.912 88.869 500.036 89Z" fill="#50C0A6"/>
<path fill-rule="evenodd" clip-rule="evenodd" d="M501.5 88.5C501.158 89.338 500.492 89.672 499.5 89.5C496.455 89.296 493.621 89.296 491 89.5C490.501 83.5092 490.334 77.5092 490.5 71.5C506.842 63.6068 523.176 55.7734 539.5 48C540.833 47.3333 542.167 47.3333 543.5 48C529.43 56.3623 515.43 64.6956 501.5 73C499.773 74.3894 498.439 76.0561 497.5 78C498.835 81.0042 500.501 83.8376 502.5 86.5C502.137 87.183 501.804 87.85 501.5 88.5Z" fill="#2A685A"/>
<path opacity="0.986" fill-rule="evenodd" clip-rule="evenodd" d="M487.5 70.5C488.609 70.5569 489.609 70.8902 490.5 71.5C490.334 77.5092 490.501 83.5092 491 89.5C493.621 89.296 496.455 89.296 499.5 89.5C496.949 90.484 494.282 91.484 491.5 92.5C490.914 92.291 490.414 91.957 490 91.5C489.667 85.1667 489.333 78.8333 489 72.5C488.283 71.9558 487.783 71.2891 487.5 70.5Z" fill="#2A685A"/>
</svg>
