<svg width="628" height="397" viewBox="0 0 628 397" fill="none" xmlns="http://www.w3.org/2000/svg">
<path fill-rule="evenodd" clip-rule="evenodd" d="M540.5 378.5C540.5 358.833 540.5 339.167 540.5 319.5C542.885 314.889 544.219 314.889 544.5 319.5C546.5 319.5 548.5 319.5 550.5 319.5C550.777 322.448 550.444 325.281 549.5 328C550.874 331.41 551.541 331.243 551.5 327.5C552.675 327.281 553.675 327.614 554.5 328.5C555.5 330.5 556.5 332.5 557.5 334.5C556.524 336.123 557.024 337.457 559 338.5C559.483 337.552 559.649 336.552 559.5 335.5C560.552 335.649 561.552 335.483 562.5 335C563.763 332.614 565.597 330.781 568 329.5C568 328.167 568 326.833 568 325.5C571.864 322.646 574.53 318.979 576 314.5C577.882 311.377 580.215 308.711 583 306.5C583.333 302.167 583.667 297.833 584 293.5C586.386 292.237 588.219 290.403 589.5 288C586.709 285.223 587.375 283.723 591.5 283.5C591.334 278.821 591.501 274.155 592 269.5C597.006 266.242 598.839 261.576 597.5 255.5C599.199 255.66 600.866 255.494 602.5 255C604.697 250.185 606.53 250.351 608 255.5C608.333 255.167 608.667 254.833 609 254.5C609.231 241.415 609.398 228.415 609.5 215.5C608.167 215.5 606.833 215.5 605.5 215.5C604.833 220.833 604.167 226.167 603.5 231.5C602.167 231.5 600.833 231.5 599.5 231.5C599.5 228.833 599.5 226.167 599.5 223.5C594.167 223.5 588.833 223.5 583.5 223.5C583.5 218.167 583.5 212.833 583.5 207.5C580.167 207.5 576.833 207.5 573.5 207.5C573.5 203.5 571.5 201.5 567.5 201.5C567.5 200.167 567.5 198.833 567.5 197.5C566.325 197.719 565.325 197.386 564.5 196.5C565.309 194.929 565.643 193.262 565.5 191.5C568.833 191.5 572.167 191.5 575.5 191.5C575.5 192.833 575.5 194.167 575.5 195.5C578.518 195.335 581.518 195.502 584.5 196C585.943 197.067 587.276 198.234 588.5 199.5C589.48 196.914 589.813 194.247 589.5 191.5C588.022 191.762 586.689 191.429 585.5 190.5C586.894 189.313 586.727 188.646 585 188.5C584.127 188.735 583.293 189.069 582.5 189.5C580.382 188.054 578.049 187.387 575.5 187.5C575.5 185.167 575.5 182.833 575.5 180.5C572.833 180.5 570.167 180.5 567.5 180.5C567.785 178.712 567.452 177.045 566.5 175.5C565.684 177.287 564.684 178.954 563.5 180.5C561.561 178.878 561.228 177.044 562.5 175C561.667 174.167 560.833 173.333 560 172.5C559.481 173.516 558.647 174.182 557.5 174.5C550.151 173.973 549.818 172.64 556.5 170.5C554.726 169.813 553.059 168.98 551.5 168C552.5 167.667 553.5 167.333 554.5 167C551.377 165.118 548.711 162.785 546.5 160C548.256 159.798 549.922 159.298 551.5 158.5C548.92 157.451 546.254 156.784 543.5 156.5C543.561 153.95 544.894 152.45 547.5 152C546.207 151.51 544.873 151.343 543.5 151.5C543.649 150.448 543.483 149.448 543 148.5C540.833 147.667 539.333 146.167 538.5 144C539.5 143.667 540.5 143.333 541.5 143C540.219 140.597 538.386 138.763 536 137.5C536.835 126.165 537.168 114.831 537 103.5C540.261 98.6471 542.095 93.3138 542.5 87.5002C547.5 82.3335 552.5 77.1669 557.5 72.0002C554.709 69.2228 555.375 67.7228 559.5 67.5002C558.285 63.2761 557.451 58.9428 557 54.5002C554.214 48.9883 549.714 46.655 543.5 47.5002C543.5 45.5002 543.5 43.5002 543.5 41.5002C540.833 41.5002 538.167 41.5002 535.5 41.5002C535.5 40.1669 535.5 38.8335 535.5 37.5002C530.139 38.1339 525.139 37.1339 520.5 34.5002C518.894 35.0768 517.228 35.4101 515.5 35.5002C510.167 34.8335 504.833 34.1669 499.5 33.5002C489.859 33.8074 480.192 33.974 470.5 34.0002C468.397 35.6906 466.397 37.5239 464.5 39.5002C463.065 37.5991 461.398 37.2657 459.5 38.5002C456.218 40.7582 454.218 43.7582 453.5 47.5002C451.5 47.5002 449.5 47.5002 447.5 47.5002C447.5 49.5002 447.5 51.5002 447.5 53.5002C428.798 56.026 409.964 57.6927 391 58.5002C388.26 57.718 385.426 57.218 382.5 57.0002C383.784 55.7027 383.617 54.536 382 53.5002C381.51 54.7934 381.343 56.1268 381.5 57.5002C378.925 56.7209 376.592 56.8875 374.5 58.0002C373.386 59.5701 372.053 60.9034 370.5 62.0002C374.359 63.8368 378.193 63.6701 382 61.5002C385.718 62.0958 389.384 62.7625 393 63.5002C396.767 63.035 400.767 63.035 405 63.5002C405.833 63.1669 406.667 62.8335 407.5 62.5002C400.858 61.6693 394.191 61.1693 387.5 61.0002C392.918 60.7082 398.252 59.8749 403.5 58.5002C410.156 59.5028 416.823 59.5028 423.5 58.5002C423.5 59.5002 423.5 60.5002 423.5 61.5002C420.813 61.3361 418.146 61.5028 415.5 62.0002C424.418 62.3636 433.085 63.5303 441.5 65.5002C418.5 65.5002 395.5 65.5002 372.5 65.5002C370.704 64.2075 369.037 62.7075 367.5 61.0002C365.833 60.6669 364.167 60.3335 362.5 60.0002C366.449 59.1934 366.449 58.6934 362.5 58.5002C362.815 56.7743 362.981 55.1077 363 53.5002C361.026 56.1185 359.193 55.9519 357.5 53.0002C354.721 52.4392 352.054 51.6058 349.5 50.5002C345.354 49.3532 341.02 49.1866 336.5 50.0002C335.944 50.3828 335.611 50.8828 335.5 51.5002C330.549 52.2278 325.549 52.7278 320.5 53.0002C316.707 56.4257 314.374 60.5924 313.5 65.5002C298.496 65.3336 283.496 65.5003 268.5 66.0002C268 66.5002 267.5 67.0002 267 67.5002C266.5 100.165 266.333 132.832 266.5 165.5C265.668 134.003 265.168 102.336 265 70.5002C264.667 70.8335 264.333 71.1669 264 71.5002C263.833 108.669 263.333 145.669 262.5 182.5C262.5 134.833 262.5 87.1669 262.5 39.5002C262 46 260.5 51.9998 262.5 57.5C330.797 35.39 401.797 20.8902 473.5 14.0002C500.825 10.7542 527.825 12.4208 554.5 19.0002C568.282 22.794 577.782 31.294 583 44.5002C583.667 50.8335 583.667 57.1669 583 63.5002C578.513 80.001 571.18 95.001 561 108.5C555.111 121.888 555.111 135.221 561 148.5C573.61 162.111 586.61 175.444 600 188.5C616.102 208.287 622.102 230.954 618 256.5C615.538 285.554 606.538 312.221 591 336.5C582.873 346.628 574.04 356.128 564.5 365C556.963 370.27 548.963 374.77 540.5 378.5Z" fill="#D1F0ED"/>
<path fill-rule="evenodd" clip-rule="evenodd" d="M540.5 319.5C540.829 285.594 540.496 251.76 539.5 218C544.07 217.45 544.403 216.283 540.5 214.5C541.325 213.614 542.325 213.281 543.5 213.5C543.5 212.5 543.5 211.5 543.5 210.5C542.167 210.5 540.833 210.5 539.5 210.5C539.337 208.143 539.503 205.81 540 203.5C540.495 205.473 540.662 207.473 540.5 209.5C541.873 209.657 543.207 209.49 544.5 209C541.782 207.585 541.115 205.585 542.5 203C541.521 200.863 540.188 199.029 538.5 197.5C531.421 200.079 524.087 201.079 516.5 200.5C516.5 199.5 516.5 198.5 516.5 197.5C514.143 197.663 511.81 197.497 509.5 197C510.108 195.769 510.441 194.436 510.5 193C508.87 178.722 506.537 164.555 503.5 150.5C499.79 149.242 496.123 149.242 492.5 150.5C484.586 149.533 476.586 149.199 468.5 149.5C468.5 146.833 468.5 144.167 468.5 141.5C466.265 141.205 464.265 141.539 462.5 142.5C461.503 162.326 461.17 182.326 461.5 202.5C446.167 202.5 430.833 202.5 415.5 202.5C415.5 202.167 415.5 201.833 415.5 201.5C421.626 197.211 423.126 191.544 420 184.5C417.333 180.5 414.667 176.5 412 172.5C411.51 171.207 411.343 169.873 411.5 168.5C421.506 168.666 431.506 168.5 441.5 168C442.333 167.167 443.167 166.333 444 165.5C444.667 132.833 444.667 100.167 444 67.5C443.292 66.6195 442.458 65.9528 441.5 65.5C433.085 63.5301 424.418 62.3634 415.5 62C418.146 61.5026 420.813 61.3359 423.5 61.5C423.5 60.5 423.5 59.5 423.5 58.5C416.823 59.5026 410.156 59.5026 403.5 58.5C398.252 59.8747 392.918 60.708 387.5 61C394.191 61.1691 400.858 61.6691 407.5 62.5C406.667 62.8333 405.833 63.1667 405 63.5C400.767 63.0348 396.767 63.0348 393 63.5C389.384 62.7623 385.718 62.0956 382 61.5C378.193 63.6699 374.359 63.8366 370.5 62C372.053 60.9032 373.386 59.5699 374.5 58C376.592 56.8873 378.925 56.7207 381.5 57.5C381.343 56.1266 381.51 54.7932 382 53.5C383.617 54.5358 383.784 55.7025 382.5 57C385.426 57.2178 388.26 57.7178 391 58.5C409.964 57.6925 428.798 56.0258 447.5 53.5C447.5 51.5 447.5 49.5 447.5 47.5C449.5 47.5 451.5 47.5 453.5 47.5C454.218 43.758 456.218 40.758 459.5 38.5C461.398 37.2655 463.065 37.5989 464.5 39.5C466.397 37.5237 468.397 35.6904 470.5 34C480.192 33.9738 489.859 33.8072 499.5 33.5C504.833 34.1667 510.167 34.8333 515.5 35.5C517.228 35.4099 518.894 35.0766 520.5 34.5C525.139 37.1337 530.139 38.1337 535.5 37.5C535.5 38.8333 535.5 40.1667 535.5 41.5C538.167 41.5 540.833 41.5 543.5 41.5C543.5 43.5 543.5 45.5 543.5 47.5C549.714 46.6548 554.214 48.9881 557 54.5C557.451 58.9426 558.285 63.2759 559.5 67.5C555.375 67.7226 554.709 69.2226 557.5 72C552.5 77.1667 547.5 82.3333 542.5 87.5C542.095 93.3136 540.261 98.6469 537 103.5C537.168 114.831 536.835 126.165 536 137.5C538.386 138.763 540.219 140.597 541.5 143C540.5 143.333 539.5 143.667 538.5 144C539.333 146.167 540.833 147.667 543 148.5C543.483 149.448 543.649 150.448 543.5 151.5C544.873 151.343 546.207 151.51 547.5 152C544.894 152.45 543.561 153.95 543.5 156.5C546.254 156.784 548.92 157.451 551.5 158.5C549.922 159.298 548.256 159.798 546.5 160C548.711 162.785 551.377 165.118 554.5 167C553.5 167.333 552.5 167.667 551.5 168C553.059 168.98 554.726 169.813 556.5 170.5C549.818 172.64 550.151 173.973 557.5 174.5C558.647 174.182 559.481 173.516 560 172.5C560.833 173.333 561.667 174.167 562.5 175C561.228 177.044 561.561 178.878 563.5 180.5C564.684 178.954 565.684 177.287 566.5 175.5C567.452 177.045 567.785 178.712 567.5 180.5C570.167 180.5 572.833 180.5 575.5 180.5C575.5 182.833 575.5 185.167 575.5 187.5C578.049 187.387 580.382 188.054 582.5 189.5C583.293 189.069 584.127 188.735 585 188.5C586.727 188.646 586.894 189.313 585.5 190.5C586.689 191.429 588.022 191.762 589.5 191.5C589.813 194.247 589.48 196.914 588.5 199.5C587.276 198.234 585.943 197.067 584.5 196C581.518 195.502 578.518 195.335 575.5 195.5C575.5 194.167 575.5 192.833 575.5 191.5C572.167 191.5 568.833 191.5 565.5 191.5C565.643 193.262 565.309 194.929 564.5 196.5C565.325 197.386 566.325 197.719 567.5 197.5C567.5 198.833 567.5 200.167 567.5 201.5C571.5 201.5 573.5 203.5 573.5 207.5C576.833 207.5 580.167 207.5 583.5 207.5C583.5 212.833 583.5 218.167 583.5 223.5C588.833 223.5 594.167 223.5 599.5 223.5C599.5 226.167 599.5 228.833 599.5 231.5C600.833 231.5 602.167 231.5 603.5 231.5C604.167 226.167 604.833 220.833 605.5 215.5C606.833 215.5 608.167 215.5 609.5 215.5C609.398 228.415 609.231 241.415 609 254.5C608.667 254.833 608.333 255.167 608 255.5C606.53 250.351 604.697 250.185 602.5 255C600.866 255.494 599.199 255.66 597.5 255.5C598.839 261.576 597.006 266.242 592 269.5C591.501 274.155 591.334 278.821 591.5 283.5C587.375 283.723 586.709 285.223 589.5 288C588.219 290.403 586.386 292.237 584 293.5C583.667 297.833 583.333 302.167 583 306.5C580.215 308.711 577.882 311.377 576 314.5C574.53 318.979 571.864 322.646 568 325.5C568 326.833 568 328.167 568 329.5C565.597 330.781 563.763 332.614 562.5 335C561.552 335.483 560.552 335.649 559.5 335.5C559.649 336.552 559.483 337.552 559 338.5C557.024 337.457 556.524 336.123 557.5 334.5C556.5 332.5 555.5 330.5 554.5 328.5C553.675 327.614 552.675 327.281 551.5 327.5C551.541 331.243 550.874 331.41 549.5 328C550.444 325.281 550.777 322.448 550.5 319.5C548.5 319.5 546.5 319.5 544.5 319.5C544.219 314.889 542.885 314.889 540.5 319.5Z" fill="#D2F4EF"/>
<path fill-rule="evenodd" clip-rule="evenodd" d="M251.5 181.5C222.833 181.5 194.167 181.5 165.5 181.5C165.279 180.265 164.612 179.265 163.5 178.5C166.432 177.2 168.766 175.2 170.5 172.5C168.141 171.286 165.808 171.286 163.5 172.5C163.5 171.167 163.5 169.833 163.5 168.5C166.459 167.007 169.126 165.007 171.5 162.5C171.113 161.28 170.28 160.613 169 160.5C167.056 161.439 165.389 162.773 164 164.5C163.833 164 163.667 163.5 163.5 163C165.615 159.882 168.115 157.048 171 154.5C171.49 153.207 171.657 151.873 171.5 150.5C170.127 150.343 168.793 150.51 167.5 151C166.458 152.918 165.292 154.751 164 156.5C165.885 151.793 166.718 146.793 166.5 141.5C165.5 141.5 164.5 141.5 163.5 141.5C163.5 108.167 163.5 74.8331 163.5 41.4998C192.902 40.168 222.402 40.168 252 41.4998C252.832 88.3349 252.665 135.002 251.5 181.5Z" fill="#F9FAFA"/>
<path fill-rule="evenodd" clip-rule="evenodd" d="M262.5 39.5C262.5 87.1667 262.5 134.833 262.5 182.5C262.047 183.458 261.381 184.292 260.5 185C248.171 185.5 235.838 185.667 223.5 185.5C223.5 189.5 223.5 193.5 223.5 197.5C228.511 197.334 233.511 197.501 238.5 198C239.728 199.49 239.728 200.99 238.5 202.5C219.757 202.82 201.09 202.486 182.5 201.5C182.5 200.167 182.5 198.833 182.5 197.5C187.5 197.5 192.5 197.5 197.5 197.5C198.483 193.702 198.817 189.702 198.5 185.5C187.167 185.5 175.833 185.5 164.5 185.5C164.5 184.5 164.5 183.5 164.5 182.5C193.671 182.831 222.671 182.498 251.5 181.5C252.665 135.002 252.832 88.3351 252 41.5C222.402 40.1682 192.902 40.1682 163.5 41.5C162.888 80.7919 162.054 120.125 161 159.5C160.085 158.672 159.419 157.672 159 156.5C158.5 117.501 158.333 78.5014 158.5 39.5C158.511 37.9826 159.177 36.8159 160.5 36C193.5 35.3333 226.5 35.3333 259.5 36C261.426 36.4224 262.426 37.5891 262.5 39.5Z" fill="#194564"/>
<path fill-rule="evenodd" clip-rule="evenodd" d="M349.5 50.5001C344.77 50.2835 340.103 50.6168 335.5 51.5001C335.611 50.8827 335.944 50.3827 336.5 50.0001C341.02 49.1865 345.354 49.3531 349.5 50.5001Z" fill="#0C194A"/>
<path fill-rule="evenodd" clip-rule="evenodd" d="M349.5 50.5C352.054 51.6056 354.721 52.439 357.5 53C359.193 55.9517 361.026 56.1183 363 53.5C362.981 55.1075 362.815 56.7741 362.5 58.5C366.449 58.6932 366.449 59.1932 362.5 60C364.167 60.3333 365.833 60.6667 367.5 61C369.037 62.7073 370.704 64.2073 372.5 65.5C372.932 66.7095 373.599 67.7095 374.5 68.5C374.263 69.791 374.596 70.791 375.5 71.5C375.5 71.8333 375.5 72.1667 375.5 72.5C375.5 75.5 375.5 78.5 375.5 81.5C374.007 84.5832 373.007 87.9165 372.5 91.5C371.833 91.5 371.5 91.8333 371.5 92.5C369.989 95.0051 368.655 97.6717 367.5 100.5C364.236 102.094 361.569 104.427 359.5 107.5C355.22 108.54 350.887 108.706 346.5 108C344.473 105.823 343.139 103.323 342.5 100.5C342.307 98.3122 343.141 96.6455 345 95.5C345.667 92.5 345.667 89.5 345 86.5C342.936 85.4086 340.769 85.2419 338.5 86C337.873 88.3434 336.873 90.5101 335.5 92.5C332.924 90.1219 331.924 87.1219 332.5 83.5C328.833 83.5 325.167 83.5 321.5 83.5C317.833 81.8333 315.167 79.1667 313.5 75.5C313.5 72.1667 313.5 68.8333 313.5 65.5C314.374 60.5922 316.707 56.4255 320.5 53C325.549 52.7276 330.549 52.2276 335.5 51.5C340.103 50.6167 344.77 50.2834 349.5 50.5Z" fill="#0C194A"/>
<path fill-rule="evenodd" clip-rule="evenodd" d="M372.5 65.5C395.5 65.5 418.5 65.5 441.5 65.5C442.458 65.9528 443.292 66.6195 444 67.5C444.667 100.167 444.667 132.833 444 165.5C443.167 166.333 442.333 167.167 441.5 168C431.506 168.5 421.506 168.666 411.5 168.5C409.833 165.167 408.167 161.833 406.5 158.5C417.748 158.821 428.915 158.487 440 157.5C440.83 127.997 440.664 98.6638 439.5 69.5C418.006 68.5027 396.34 68.1693 374.5 68.5C373.599 67.7095 372.932 66.7095 372.5 65.5Z" fill="#1E4964"/>
<path fill-rule="evenodd" clip-rule="evenodd" d="M374.5 68.5C396.34 68.1693 418.006 68.5027 439.5 69.5C417.807 68.8445 396.474 69.5112 375.5 71.5C374.596 70.791 374.263 69.791 374.5 68.5Z" fill="#FAFCFC"/>
<path fill-rule="evenodd" clip-rule="evenodd" d="M313.5 75.5C315.167 79.1667 317.833 81.8333 321.5 83.5C321.727 91.858 323.56 99.858 327 107.5C329.697 110.87 333.197 112.204 337.5 111.5C337.5 113.5 337.5 115.5 337.5 117.5C337.167 118.833 336.833 120.167 336.5 121.5C336.167 121.5 335.833 121.5 335.5 121.5C326.161 121.334 316.827 121.5 307.5 122C305.942 122.21 304.609 122.71 303.5 123.5C300.528 125.641 298.028 128.308 296 131.5C295.307 137.788 293.807 143.788 291.5 149.5C289.55 152.406 287.883 155.406 286.5 158.5C281.238 158.805 276.072 158.471 271 157.5C270.5 128.169 270.333 98.8352 270.5 69.5C284.5 69.5 298.5 69.5 312.5 69.5C312.205 71.7354 312.539 73.7354 313.5 75.5Z" fill="#F7F9F9"/>
<path fill-rule="evenodd" clip-rule="evenodd" d="M439.5 69.5001C440.664 98.6639 440.83 127.997 440 157.5C428.915 158.487 417.748 158.821 406.5 158.5C405.361 155.996 404.694 153.33 404.5 150.5C414.167 150.5 423.833 150.5 433.5 150.5C433.5 139.5 433.5 128.5 433.5 117.5C410.831 117.333 388.164 117.5 365.5 118C364.944 118.383 364.611 118.883 364.5 119.5C363.833 119.5 363.167 119.5 362.5 119.5C363.084 116.715 362.084 115.048 359.5 114.5C360.234 113.292 360.567 111.959 360.5 110.5C363.059 110.802 365.393 110.468 367.5 109.5C367.5 106.5 367.5 103.5 367.5 100.5C368.655 97.6718 369.989 95.0052 371.5 92.5001C392.156 91.6772 412.822 91.3439 433.5 91.5001C433.5 88.1668 433.5 84.8334 433.5 81.5001C414.327 81.6511 395.327 81.3177 376.5 80.5001C376.806 77.6147 376.473 74.948 375.5 72.5001C375.5 72.1668 375.5 71.8334 375.5 71.5001C396.474 69.5113 417.807 68.8446 439.5 69.5001Z" fill="#FAFCFC"/>
<path fill-rule="evenodd" clip-rule="evenodd" d="M375.5 72.5C376.473 74.9479 376.806 77.6146 376.5 80.5C395.327 81.3176 414.327 81.651 433.5 81.5C433.5 84.8333 433.5 88.1667 433.5 91.5C412.822 91.3438 392.156 91.6771 371.5 92.5C371.5 91.8333 371.833 91.5 372.5 91.5C376.167 91.5 379.833 91.5 383.5 91.5C383.5 88.1667 383.5 84.8333 383.5 81.5C380.833 81.5 378.167 81.5 375.5 81.5C375.5 78.5 375.5 75.5 375.5 72.5Z" fill="#E8EBEB"/>
<path fill-rule="evenodd" clip-rule="evenodd" d="M375.5 81.5C378.167 81.5 380.833 81.5 383.5 81.5C383.5 84.8333 383.5 88.1667 383.5 91.5C379.833 91.5 376.167 91.5 372.5 91.5C373.007 87.9165 374.007 84.5832 375.5 81.5Z" fill="#2AB39F"/>
<path fill-rule="evenodd" clip-rule="evenodd" d="M291.5 92.4998C288.782 89.4544 286.116 86.4544 283.5 83.4998C286.939 78.1102 291.939 75.7769 298.5 76.4998C298.5 80.8331 298.5 85.1665 298.5 89.4998C295.962 90.0425 293.628 91.0425 291.5 92.4998Z" fill="#ED5E7A"/>
<path fill-rule="evenodd" clip-rule="evenodd" d="M321.5 83.5C325.167 83.5 328.833 83.5 332.5 83.5C331.924 87.1219 332.924 90.1219 335.5 92.5C336.873 90.5101 337.873 88.3434 338.5 86C340.769 85.2419 342.936 85.4086 345 86.5C345.667 89.5 345.667 92.5 345 95.5C343.141 96.6455 342.307 98.3122 342.5 100.5C343.139 103.323 344.473 105.823 346.5 108C350.887 108.706 355.22 108.54 359.5 107.5C361.635 109.369 364.302 110.036 367.5 109.5C365.393 110.468 363.059 110.802 360.5 110.5C360.567 111.959 360.234 113.292 359.5 114.5C357.628 115.511 355.628 116.345 353.5 117C348.177 117.499 342.844 117.666 337.5 117.5C337.5 115.5 337.5 113.5 337.5 111.5C333.197 112.204 329.697 110.87 327 107.5C323.56 99.858 321.727 91.858 321.5 83.5Z" fill="#EEBFA7"/>
<path fill-rule="evenodd" clip-rule="evenodd" d="M170.5 101.5C192.5 101.5 214.5 101.5 236.5 101.5C236.833 106.833 237.167 106.833 237.5 101.5C239.833 101.5 242.167 101.5 244.5 101.5C244.714 103.144 244.38 104.644 243.5 106C219.169 106.5 194.836 106.667 170.5 106.5C170.5 104.833 170.5 103.167 170.5 101.5Z" fill="#EAEAEB"/>
<path fill-rule="evenodd" clip-rule="evenodd" d="M367.5 100.5C367.5 103.5 367.5 106.5 367.5 109.5C364.302 110.036 361.635 109.369 359.5 107.5C361.569 104.427 364.236 102.094 367.5 100.5Z" fill="#0C194A"/>
<path fill-rule="evenodd" clip-rule="evenodd" d="M283.5 83.5C286.116 86.4546 288.782 89.4546 291.5 92.5C289.171 103.005 293.171 106.839 303.5 104C305.747 102.005 306.747 99.505 306.5 96.5C310.842 96.2605 315.176 95.9272 319.5 95.5C318.567 112.595 309.567 120.095 292.5 118C285.738 116.237 281.238 112.07 279 105.5C276.565 98.1868 277.231 91.1868 281 84.5C281.671 83.7476 282.504 83.4142 283.5 83.5Z" fill="#146A71"/>
<path fill-rule="evenodd" clip-rule="evenodd" d="M359.5 114.5C362.084 115.048 363.084 116.715 362.5 119.5C361.244 119.461 360.244 119.961 359.5 121C351.841 121.5 344.174 121.666 336.5 121.5C336.833 120.167 337.167 118.833 337.5 117.5C342.844 117.666 348.177 117.499 353.5 117C355.628 116.345 357.628 115.511 359.5 114.5Z" fill="#30B099"/>
<path fill-rule="evenodd" clip-rule="evenodd" d="M335.5 121.5C335.5 122.167 335.5 122.833 335.5 123.5C324.833 123.5 314.167 123.5 303.5 123.5C304.609 122.71 305.942 122.21 307.5 122C316.827 121.5 326.161 121.334 335.5 121.5Z" fill="#F8C951"/>
<path fill-rule="evenodd" clip-rule="evenodd" d="M362.5 119.5C361.71 120.794 360.71 121.961 359.5 123C351.507 123.5 343.507 123.666 335.5 123.5C335.5 122.833 335.5 122.167 335.5 121.5C335.833 121.5 336.167 121.5 336.5 121.5C344.174 121.666 351.841 121.5 359.5 121C360.244 119.961 361.244 119.461 362.5 119.5Z" fill="#30B099"/>
<path fill-rule="evenodd" clip-rule="evenodd" d="M406.5 158.5C406.167 158.5 405.833 158.5 405.5 158.5C402.411 152.955 401.078 146.955 401.5 140.5C405.875 134.148 411.875 130.648 419.5 130C420.833 128.667 422.167 127.333 423.5 126C419.379 127.02 415.045 127.687 410.5 128C406.62 130.379 403.62 133.546 401.5 137.5C400.04 130.434 396.04 125.268 389.5 122C380.905 122.092 372.571 121.259 364.5 119.5C364.611 118.883 364.944 118.383 365.5 118C388.164 117.5 410.831 117.333 433.5 117.5C433.5 128.5 433.5 139.5 433.5 150.5C423.833 150.5 414.167 150.5 404.5 150.5C404.694 153.33 405.361 155.996 406.5 158.5Z" fill="#E9EAE9"/>
<path fill-rule="evenodd" clip-rule="evenodd" d="M401.5 140.5C401.5 139.5 401.5 138.5 401.5 137.5C403.62 133.546 406.62 130.379 410.5 128C415.045 127.687 419.379 127.02 423.5 126C422.167 127.333 420.833 128.667 419.5 130C411.875 130.648 405.875 134.148 401.5 140.5Z" fill="#61B7B9"/>
<path fill-rule="evenodd" clip-rule="evenodd" d="M362.5 119.5C363.167 119.5 363.833 119.5 364.5 119.5C372.571 121.259 380.905 122.092 389.5 122C396.04 125.268 400.04 130.434 401.5 137.5C401.5 138.5 401.5 139.5 401.5 140.5C401.078 146.955 402.411 152.955 405.5 158.5C404.85 158.196 404.183 157.863 403.5 157.5C402.218 171.854 402.218 186.187 403.5 200.5C365.348 201.14 327.348 200.473 289.5 198.5C290.999 196.51 291.832 194.177 292 191.5C292.212 178.312 292.712 165.145 293.5 152C293.316 150.624 292.649 149.791 291.5 149.5C293.807 143.788 295.307 137.788 296 131.5C298.028 128.308 300.528 125.641 303.5 123.5C314.167 123.5 324.833 123.5 335.5 123.5C343.507 123.666 351.507 123.5 359.5 123C360.71 121.961 361.71 120.794 362.5 119.5Z" fill="#F8C951"/>
<path fill-rule="evenodd" clip-rule="evenodd" d="M480.5 159.5C480.5 156.833 480.5 154.167 480.5 151.5C483.743 150.42 487.076 150.253 490.5 151C491.444 153.719 491.777 156.552 491.5 159.5C487.833 159.5 484.167 159.5 480.5 159.5Z" fill="#F8A810"/>
<path fill-rule="evenodd" clip-rule="evenodd" d="M462.5 142.5C464.167 142.5 465.833 142.5 467.5 142.5C467.5 161.167 467.5 179.833 467.5 198.5C475.5 198.5 483.5 198.5 491.5 198.5C499.5 198.5 507.5 198.5 515.5 198.5C515.5 199.5 515.5 200.5 515.5 201.5C498.008 202.497 480.341 202.83 462.5 202.5C462.5 182.5 462.5 162.5 462.5 142.5Z" fill="#0C3D57"/>
<path fill-rule="evenodd" clip-rule="evenodd" d="M480.5 151.5C480.5 154.167 480.5 156.833 480.5 159.5C480.167 159.5 479.833 159.5 479.5 159.5C476.316 157.586 472.649 156.92 468.5 157.5C468.5 155.833 468.5 154.167 468.5 152.5C469.879 151.391 471.545 150.724 473.5 150.5C475.858 150.753 478.192 151.086 480.5 151.5Z" fill="#F6CC5F"/>
<path fill-rule="evenodd" clip-rule="evenodd" d="M468.5 149.5C476.586 149.199 484.586 149.533 492.5 150.5C492.5 152.833 492.5 155.167 492.5 157.5C492.5 158.5 492.5 159.5 492.5 160.5C487.968 160.818 483.634 160.485 479.5 159.5C479.833 159.5 480.167 159.5 480.5 159.5C484.167 159.5 487.833 159.5 491.5 159.5C491.777 156.552 491.444 153.719 490.5 151C487.076 150.253 483.743 150.42 480.5 151.5C478.192 151.086 475.858 150.753 473.5 150.5C471.545 150.724 469.879 151.391 468.5 152.5C468.5 151.5 468.5 150.5 468.5 149.5Z" fill="#E0CE79"/>
<path fill-rule="evenodd" clip-rule="evenodd" d="M291.5 149.5C292.649 149.791 293.316 150.624 293.5 152C292.712 165.145 292.212 178.312 292 191.5C291.832 194.177 290.999 196.51 289.5 198.5C288.167 199.167 287.167 200.167 286.5 201.5C286.167 201.5 285.833 201.5 285.5 201.5C282.5 201.5 279.5 201.5 276.5 201.5C274.827 200.657 273.66 199.324 273 197.5C272.333 193.167 272.333 188.833 273 184.5C276.13 179.227 278.964 173.894 281.5 168.5C283.167 165.167 284.833 161.833 286.5 158.5C287.883 155.406 289.55 152.406 291.5 149.5Z" fill="#F9A712"/>
<path fill-rule="evenodd" clip-rule="evenodd" d="M228.5 158.5C229.643 161.976 229.81 165.642 229 169.5C228.617 170.056 228.117 170.389 227.5 170.5C215.829 170.667 204.162 170.5 192.5 170C188.302 170.134 186.636 168.134 187.5 164C187.629 162.019 188.296 160.353 189.5 159C202.496 158.5 215.496 158.333 228.5 158.5Z" fill="#1EB19D"/>
<path fill-rule="evenodd" clip-rule="evenodd" d="M468.5 157.5C472.649 156.92 476.316 157.586 479.5 159.5C483.634 160.485 487.968 160.818 492.5 160.5C492.5 159.5 492.5 158.5 492.5 157.5C493.473 159.948 493.806 162.615 493.5 165.5C493.5 176.167 493.5 186.833 493.5 197.5C493.167 197.5 492.833 197.5 492.5 197.5C492.5 188.167 492.5 178.833 492.5 169.5C476.107 169.294 475.774 168.294 491.5 166.5C487.555 165.509 483.555 165.176 479.5 165.5C479.5 164.167 479.5 162.833 479.5 161.5C475.833 161.5 472.167 161.5 468.5 161.5C468.5 160.167 468.5 158.833 468.5 157.5Z" fill="#EFC964"/>
<path fill-rule="evenodd" clip-rule="evenodd" d="M313.5 65.5C313.5 68.8333 313.5 72.1667 313.5 75.5C312.539 73.7354 312.205 71.7354 312.5 69.5C298.5 69.5 284.5 69.5 270.5 69.5C270.333 98.8352 270.5 128.169 271 157.5C276.072 158.471 281.238 158.805 286.5 158.5C284.833 161.833 283.167 165.167 281.5 168.5C277.486 168.666 273.486 168.499 269.5 168C268.627 166.955 267.627 166.122 266.5 165.5C266.333 132.832 266.5 100.165 267 67.5C267.5 67 268 66.5 268.5 66C283.496 65.5001 298.496 65.3334 313.5 65.5Z" fill="#234C65"/>
<path fill-rule="evenodd" clip-rule="evenodd" d="M157.5 100.5C157.437 120.576 157.437 140.576 157.5 160.5C157.167 161.167 156.833 161.833 156.5 162.5C154.314 158.602 152.148 158.602 150 162.5C150.367 158.254 150.533 153.92 150.5 149.5C149.167 149.5 147.833 149.5 146.5 149.5C147.113 152.969 145.779 154.969 142.5 155.5C142.642 158.617 143.976 161.117 146.5 163C145.207 163.49 143.873 163.657 142.5 163.5C142.281 164.675 142.614 165.675 143.5 166.5C145.662 168.02 147.995 169.02 150.5 169.5C150.5 170.5 150.5 171.5 150.5 172.5C148.051 171.943 145.718 171.943 143.5 172.5C145.828 175.335 148.828 177.169 152.5 178C150.167 178.333 147.833 178.667 145.5 179C144.015 180.756 144.348 181.923 146.5 182.5C146.476 188.454 147.143 194.288 148.5 200C154.167 200.667 159.833 200.667 165.5 200C165.163 195.676 164.83 191.176 164.5 186.5C175.5 186.5 186.5 186.5 197.5 186.5C197.5 190.167 197.5 193.833 197.5 197.5C192.5 197.5 187.5 197.5 182.5 197.5C182.5 198.833 182.5 200.167 182.5 201.5C167.676 202.496 152.676 202.829 137.5 202.5C137.5 207.833 137.5 213.167 137.5 218.5C137.5 221.167 137.5 223.833 137.5 226.5C137.5 279.833 137.5 333.167 137.5 386.5C128.833 386.5 120.167 386.5 111.5 386.5C111.5 386.167 111.5 385.833 111.5 385.5C113.859 383.448 115.193 380.782 115.5 377.5C118.204 369.193 119.537 360.526 119.5 351.5C120.972 345.637 121.972 339.637 122.5 333.5C124.955 332.09 125.955 329.923 125.5 327C125.333 325.5 125.167 324 125 322.5C124.329 321.748 123.496 321.414 122.5 321.5C121.081 320.549 119.415 320.216 117.5 320.5C117.5 320.167 117.5 319.833 117.5 319.5C125.738 313.704 130.405 305.704 131.5 295.5C129.473 295.338 127.473 295.505 125.5 296C121.508 300.659 118.342 305.826 116 311.5C113.564 314.447 110.731 316.78 107.5 318.5C113.599 307.674 115.765 296.008 114 283.5C112.194 277.007 108.861 276.007 104 280.5C104.205 291.691 103.038 302.691 100.5 313.5C95.6628 303.464 93.8295 292.798 95.0004 281.5C97.0806 278.526 98.2473 275.193 98.5004 271.5C97.5474 267.596 96.0474 263.929 94.0004 260.5C93.5009 254.509 93.3342 248.509 93.5004 242.5C90.0299 241.875 87.1966 242.875 85.0004 245.5C84.4059 251.847 84.5726 258.181 85.5004 264.5C85.7466 268.338 84.5799 271.672 82.0004 274.5C80.8576 285.36 81.691 296.027 84.5004 306.5C84.7678 308.976 84.1011 309.643 82.5004 308.5C81.661 301.476 79.161 295.143 75.0004 289.5C74.4201 280.999 71.9201 273.165 67.5004 266C66.2165 265.316 65.0499 265.483 64.0004 266.5C63.3515 274.845 64.1849 283.012 66.5004 291C65.95 294.324 65.2833 297.491 64.5004 300.5C62.7745 297.272 61.2745 293.939 60.0004 290.5C57.4975 285.812 53.8309 284.479 49.0004 286.5C50.2876 301.295 57.4543 312.295 70.5004 319.5C70.5004 319.833 70.5004 320.167 70.5004 320.5C67.482 320.335 64.482 320.502 61.5004 321C60.748 321.671 60.4146 322.504 60.5004 323.5C59.3713 325.628 59.2046 327.961 60.0004 330.5C60.4166 332.55 61.5833 333.884 63.5004 334.5C64.65 340.102 65.3167 345.769 65.5004 351.5C65.5004 353.833 65.5004 356.167 65.5004 358.5C64.3176 357.496 62.9843 356.662 61.5004 356C49.0223 344.692 39.0223 331.525 31.5004 316.5C31.7139 314.856 31.3806 313.356 30.5004 312C31.9919 309.379 32.6586 306.545 32.5004 303.5C34.8337 303.5 37.1671 303.5 39.5004 303.5C39.6661 299.154 39.4994 294.821 39.0004 290.5C37.1647 288.292 34.8314 286.958 32.0004 286.5C31.5011 281.511 31.3345 276.511 31.5004 271.5C32.8337 271.5 34.1671 271.5 35.5004 271.5C35.8337 268.5 34.5004 267.167 31.5004 267.5C31.6625 265.473 31.4959 263.473 31.0004 261.5C28.3892 257.558 26.2226 253.391 24.5004 249C25.9231 247.588 25.7564 246.421 24.0004 245.5C23.5049 243.527 23.3383 241.527 23.5004 239.5C26.8095 239.308 29.3095 240.641 31.0004 243.5C31.3337 244.833 31.6671 246.167 32.0004 247.5C37.0004 242.167 42.0004 236.833 47.0004 231.5C47.4978 228.854 47.6645 226.187 47.5004 223.5C50.1671 223.5 52.8337 223.5 55.5004 223.5C55.5004 218.167 55.5004 212.833 55.5004 207.5C58.1671 207.5 60.8337 207.5 63.5004 207.5C63.1957 202.238 63.529 197.072 64.5004 192C58.2873 192.065 52.2873 191.232 46.5004 189.5C44.7217 192.276 43.7217 191.943 43.5004 188.5C43.7143 184.856 44.881 184.523 47.0004 187.5C52.1977 185.58 57.6977 184.913 63.5004 185.5C63.3419 188.187 64.1752 190.52 66.0004 192.5C70.1329 191.69 74.6329 191.356 79.5004 191.5C79.823 187.774 79.4896 184.107 78.5004 180.5C76.3678 182.091 74.7011 184.091 73.5004 186.5C72.2642 187.246 70.9309 187.579 69.5004 187.5C69.5004 183.5 69.5004 179.5 69.5004 175.5C73.0075 174.994 76.1741 175.66 79.0004 177.5C79.2387 173.72 79.4054 169.72 79.5004 165.5C84.1789 165.334 88.8456 165.501 93.5004 166C93.1671 166.333 92.8337 166.667 92.5004 167C93.4484 167.483 94.4484 167.649 95.5004 167.5C95.9274 164.212 95.2607 161.212 93.5004 158.5C94.8159 157.193 95.8159 155.693 96.5004 154C97.4484 153.517 98.4484 153.351 99.5004 153.5C99.5004 155.5 99.5004 157.5 99.5004 159.5C103.5 159.5 107.5 159.5 111.5 159.5C111.5 157.5 111.5 155.5 111.5 153.5C116.326 152.183 119.826 149.183 122 144.5C122.948 146.57 124.448 148.07 126.5 149C129.482 149.498 132.482 149.665 135.5 149.5C135.201 147.396 135.534 145.396 136.5 143.5C139.235 141.268 141.402 138.601 143 135.5C143.333 137.833 143.667 140.167 144 142.5C145.832 131.54 145.998 120.54 144.5 109.5C146.861 109.326 149.194 108.993 151.5 108.5C151.351 109.552 151.517 110.552 152 111.5C152.953 108.568 153.453 105.568 153.5 102.5C154.833 101.833 156.167 101.167 157.5 100.5Z" fill="#D0F3EE"/>
<path fill-rule="evenodd" clip-rule="evenodd" d="M228.5 158.5C215.496 158.333 202.496 158.5 189.5 159C188.296 160.353 187.629 162.019 187.5 164C186.636 168.134 188.302 170.134 192.5 170C204.162 170.5 215.829 170.667 227.5 170.5C214.327 171.825 200.994 171.825 187.5 170.5C185.285 166.516 184.952 162.349 186.5 158C200.673 157.173 214.673 157.339 228.5 158.5Z" fill="#67C5B5"/>
<path fill-rule="evenodd" clip-rule="evenodd" d="M158.5 39.5C158.333 78.5014 158.5 117.501 159 156.5C159.419 157.672 160.085 158.672 161 159.5C162.054 120.125 162.888 80.7919 163.5 41.5C163.5 74.8333 163.5 108.167 163.5 141.5C164.5 141.5 165.5 141.5 166.5 141.5C166.718 146.793 165.885 151.793 164 156.5C165.292 154.751 166.458 152.918 167.5 151C168.793 150.51 170.127 150.343 171.5 150.5C171.657 151.873 171.49 153.207 171 154.5C168.115 157.048 165.615 159.882 163.5 163C163.667 163.5 163.833 164 164 164.5C165.389 162.773 167.056 161.439 169 160.5C170.28 160.613 171.113 161.28 171.5 162.5C169.126 165.007 166.459 167.007 163.5 168.5C162.5 168.5 161.5 168.5 160.5 168.5C160.785 166.712 160.452 165.045 159.5 163.5C158.334 167.527 158.501 171.527 160 175.5C161.729 175.026 162.895 174.026 163.5 172.5C165.808 171.286 168.141 171.286 170.5 172.5C168.766 175.2 166.432 177.2 163.5 178.5C164.612 179.265 165.279 180.265 165.5 181.5C164.508 181.328 163.842 181.662 163.5 182.5C157.833 182.5 152.167 182.5 146.5 182.5C144.348 181.923 144.015 180.756 145.5 179C147.833 178.667 150.167 178.333 152.5 178C148.828 177.169 145.828 175.335 143.5 172.5C145.718 171.943 148.051 171.943 150.5 172.5C150.5 171.5 150.5 170.5 150.5 169.5C147.995 169.02 145.662 168.02 143.5 166.5C142.614 165.675 142.281 164.675 142.5 163.5C143.873 163.657 145.207 163.49 146.5 163C143.976 161.117 142.642 158.617 142.5 155.5C145.779 154.969 147.113 152.969 146.5 149.5C147.833 149.5 149.167 149.5 150.5 149.5C150.533 153.92 150.367 158.254 150 162.5C152.148 158.602 154.314 158.602 156.5 162.5C156.833 161.833 157.167 161.167 157.5 160.5C157.437 140.576 157.437 120.576 157.5 100.5C157.17 79.9931 157.503 59.6598 158.5 39.5Z" fill="#194564"/>
<path fill-rule="evenodd" clip-rule="evenodd" d="M516.5 200.5C516.5 200.833 516.5 201.167 516.5 201.5C516.167 201.5 515.833 201.5 515.5 201.5C515.5 200.5 515.5 199.5 515.5 198.5C507.5 198.5 499.5 198.5 491.5 198.5C491.5 198.167 491.5 197.833 491.5 197.5C491.833 197.5 492.167 197.5 492.5 197.5C492.833 197.5 493.167 197.5 493.5 197.5C495.5 197.5 497.5 197.5 499.5 197.5C498.129 186.594 496.129 175.927 493.5 165.5C493.806 162.615 493.473 159.948 492.5 157.5C492.5 155.167 492.5 152.833 492.5 150.5C496.123 149.242 499.79 149.242 503.5 150.5C506.537 164.555 508.87 178.722 510.5 193C510.441 194.436 510.108 195.769 509.5 197C511.81 197.497 514.143 197.663 516.5 197.5C516.5 198.5 516.5 199.5 516.5 200.5Z" fill="#1C6E73"/>
<path fill-rule="evenodd" clip-rule="evenodd" d="M497.5 156.5C500.127 156.293 501.793 157.46 502.5 160C500.42 165.759 498.087 165.926 495.5 160.5C495.752 158.927 496.418 157.594 497.5 156.5Z" fill="#1C6E73"/>
<path fill-rule="evenodd" clip-rule="evenodd" d="M163.5 168.5C163.5 169.833 163.5 171.167 163.5 172.5C162.895 174.026 161.729 175.026 160 175.5C158.501 171.527 158.334 167.527 159.5 163.5C160.452 165.045 160.785 166.712 160.5 168.5C161.5 168.5 162.5 168.5 163.5 168.5Z" fill="#537683"/>
<path fill-rule="evenodd" clip-rule="evenodd" d="M405.5 158.5C405.833 158.5 406.167 158.5 406.5 158.5C408.167 161.833 409.833 165.167 411.5 168.5C411.343 169.873 411.51 171.207 412 172.5C414.667 176.5 417.333 180.5 420 184.5C423.126 191.544 421.626 197.211 415.5 201.5C411.466 201.495 407.466 201.162 403.5 200.5C402.218 186.187 402.218 171.854 403.5 157.5C404.183 157.863 404.85 158.196 405.5 158.5Z" fill="#F8A714"/>
<path fill-rule="evenodd" clip-rule="evenodd" d="M462.5 142.5C464.265 141.539 466.265 141.205 468.5 141.5C468.5 144.167 468.5 146.833 468.5 149.5C468.5 150.5 468.5 151.5 468.5 152.5C468.5 154.167 468.5 155.833 468.5 157.5C468.5 158.833 468.5 160.167 468.5 161.5C468.5 173.5 468.5 185.5 468.5 197.5C472.833 197.5 477.167 197.5 481.5 197.5C484.833 197.5 488.167 197.5 491.5 197.5C491.5 197.833 491.5 198.167 491.5 198.5C483.5 198.5 475.5 198.5 467.5 198.5C467.5 179.833 467.5 161.167 467.5 142.5C465.833 142.5 464.167 142.5 462.5 142.5Z" fill="#838656"/>
<path fill-rule="evenodd" clip-rule="evenodd" d="M266.5 165.5C267.627 166.122 268.627 166.955 269.5 168C273.486 168.499 277.486 168.666 281.5 168.5C278.964 173.894 276.13 179.227 273 184.5C272.333 188.833 272.333 193.167 273 197.5C273.66 199.324 274.827 200.657 276.5 201.5C276.5 201.833 276.5 202.167 276.5 202.5C275.833 202.5 275.167 202.5 274.5 202.5C262.5 202.5 250.5 202.5 238.5 202.5C239.728 200.99 239.728 199.49 238.5 198C233.511 197.501 228.511 197.334 223.5 197.5C223.5 193.5 223.5 189.5 223.5 185.5C235.838 185.667 248.171 185.5 260.5 185C261.381 184.292 262.047 183.458 262.5 182.5C263.333 145.669 263.833 108.669 264 71.5C264.333 71.1667 264.667 70.8333 265 70.5C265.168 102.336 265.668 134.003 266.5 165.5Z" fill="#CBF0E7"/>
<path fill-rule="evenodd" clip-rule="evenodd" d="M468.5 161.5C472.167 161.5 475.833 161.5 479.5 161.5C479.5 162.833 479.5 164.167 479.5 165.5C483.555 165.176 487.555 165.509 491.5 166.5C475.774 168.294 476.107 169.294 492.5 169.5C492.5 178.833 492.5 188.167 492.5 197.5C492.167 197.5 491.833 197.5 491.5 197.5C491.5 188.5 491.5 179.5 491.5 170.5C487.833 170.5 484.167 170.5 480.5 170.5C480.196 179.584 480.529 188.584 481.5 197.5C477.167 197.5 472.833 197.5 468.5 197.5C468.5 185.5 468.5 173.5 468.5 161.5Z" fill="#EFC964"/>
<path fill-rule="evenodd" clip-rule="evenodd" d="M491.5 197.5C488.167 197.5 484.833 197.5 481.5 197.5C480.529 188.584 480.196 179.584 480.5 170.5C484.167 170.5 487.833 170.5 491.5 170.5C491.5 179.5 491.5 188.5 491.5 197.5Z" fill="#F6A711"/>
<path fill-rule="evenodd" clip-rule="evenodd" d="M469.5 162.5C472.5 162.5 475.5 162.5 478.5 162.5C477.741 173.817 477.407 185.15 477.5 196.5C474.833 196.5 472.167 196.5 469.5 196.5C469.5 185.167 469.5 173.833 469.5 162.5Z" fill="#F9CA4D"/>
<path fill-rule="evenodd" clip-rule="evenodd" d="M165.5 181.5C194.167 181.5 222.833 181.5 251.5 181.5C222.671 182.498 193.671 182.831 164.5 182.5C164.5 183.5 164.5 184.5 164.5 185.5C175.833 185.5 187.167 185.5 198.5 185.5C198.817 189.702 198.483 193.702 197.5 197.5C197.5 193.833 197.5 190.167 197.5 186.5C186.5 186.5 175.5 186.5 164.5 186.5C163.566 185.432 163.232 184.099 163.5 182.5C163.842 181.662 164.508 181.328 165.5 181.5Z" fill="#194564"/>
<path fill-rule="evenodd" clip-rule="evenodd" d="M153.5 102.5C153.453 105.568 152.953 108.568 152 111.5C151.517 110.552 151.351 109.552 151.5 108.5C149.194 108.993 146.861 109.326 144.5 109.5C145.998 120.54 145.832 131.54 144 142.5C143.667 140.167 143.333 137.833 143 135.5C141.402 138.601 139.235 141.268 136.5 143.5C135.534 145.396 135.201 147.396 135.5 149.5C132.482 149.665 129.482 149.498 126.5 149C124.448 148.07 122.948 146.57 122 144.5C119.826 149.183 116.326 152.183 111.5 153.5C111.5 155.5 111.5 157.5 111.5 159.5C107.5 159.5 103.5 159.5 99.5 159.5C99.5 157.5 99.5 155.5 99.5 153.5C98.448 153.351 97.448 153.517 96.5 154C95.8155 155.693 94.8155 157.193 93.5 158.5C95.2603 161.212 95.927 164.212 95.5 167.5C94.448 167.649 93.448 167.483 92.5 167C92.8333 166.667 93.1667 166.333 93.5 166C88.8452 165.501 84.1785 165.334 79.5 165.5C79.405 169.72 79.2383 173.72 79 177.5C76.1737 175.66 73.0071 174.994 69.5 175.5C69.5 179.5 69.5 183.5 69.5 187.5C70.9305 187.579 72.2638 187.246 73.5 186.5C74.7007 184.091 76.3674 182.091 78.5 180.5C79.4892 184.107 79.8226 187.774 79.5 191.5C74.6325 191.356 70.1325 191.69 66 192.5C64.1748 190.52 63.3415 188.187 63.5 185.5C57.6973 184.913 52.1973 185.58 47 187.5C44.8806 184.523 43.7139 184.856 43.5 188.5C43.7213 191.943 44.7213 192.276 46.5 189.5C52.2869 191.232 58.2869 192.065 64.5 192C63.5286 197.072 63.1953 202.238 63.5 207.5C60.8333 207.5 58.1667 207.5 55.5 207.5C55.5 212.833 55.5 218.167 55.5 223.5C52.8333 223.5 50.1667 223.5 47.5 223.5C47.6641 226.187 47.4974 228.854 47 231.5C42 236.833 37 242.167 32 247.5C31.6667 246.167 31.3333 244.833 31 243.5C29.3091 240.641 26.8091 239.308 23.5 239.5C23.3379 241.527 23.5045 243.527 24 245.5C25.756 246.421 25.9227 247.588 24.5 249C26.2222 253.391 28.3888 257.558 31 261.5C31.4955 263.473 31.6621 265.473 31.5 267.5C34.5 267.167 35.8333 268.5 35.5 271.5C34.1667 271.5 32.8333 271.5 31.5 271.5C31.3341 276.511 31.5007 281.511 32 286.5C34.831 286.958 37.1643 288.292 39 290.5C39.499 294.821 39.6657 299.154 39.5 303.5C37.1667 303.5 34.8333 303.5 32.5 303.5C32.6582 306.545 31.9915 309.379 30.5 312C31.3802 313.356 31.7135 314.856 31.5 316.5C19.588 294.867 13.2546 271.533 12.5 246.5C13.4893 229.199 18.4893 213.199 27.5 198.5C39.8204 182.153 53.8204 167.32 69.5 154C95.5192 133.604 123.519 116.438 153.5 102.5Z" fill="#D5F3F2"/>
<path fill-rule="evenodd" clip-rule="evenodd" d="M493.5 165.5C496.129 175.927 498.129 186.594 499.5 197.5C497.5 197.5 495.5 197.5 493.5 197.5C493.5 186.833 493.5 176.167 493.5 165.5Z" fill="#C4ECE7"/>
<path fill-rule="evenodd" clip-rule="evenodd" d="M146.5 182.5C152.167 182.5 157.833 182.5 163.5 182.5C163.232 184.099 163.566 185.432 164.5 186.5C164.83 191.176 165.163 195.676 165.5 200C159.833 200.667 154.167 200.667 148.5 200C147.143 194.288 146.476 188.454 146.5 182.5Z" fill="#F7C94F"/>
<path fill-rule="evenodd" clip-rule="evenodd" d="M289.5 198.5C327.348 200.473 365.348 201.14 403.5 200.5C407.466 201.162 411.466 201.495 415.5 201.5C415.5 201.833 415.5 202.167 415.5 202.5C374.165 202.667 332.832 202.5 291.5 202C290.038 200.372 288.372 200.205 286.5 201.5C287.167 200.167 288.167 199.167 289.5 198.5Z" fill="#D5D166"/>
<path fill-rule="evenodd" clip-rule="evenodd" d="M415.5 202.5C430.833 202.5 446.167 202.5 461.5 202.5C486.33 203.332 511.33 203.832 536.5 204C537.022 204.561 537.355 205.228 537.5 206C536.879 209.186 536.212 212.352 535.5 215.5C403.14 216.828 270.807 216.828 138.5 215.5C138.5 211.5 138.5 207.5 138.5 203.5C146.141 204.096 153.808 204.429 161.5 204.5C199.333 203.967 236.999 203.301 274.5 202.5C275.167 202.5 275.833 202.5 276.5 202.5C278.966 203.634 281.633 203.801 284.5 203C285.056 202.617 285.389 202.117 285.5 201.5C285.833 201.5 286.167 201.5 286.5 201.5C288.372 200.205 290.038 200.372 291.5 202C332.832 202.5 374.165 202.667 415.5 202.5Z" fill="#1DB49E"/>
<path fill-rule="evenodd" clip-rule="evenodd" d="M462.5 142.5C462.5 162.5 462.5 182.5 462.5 202.5C480.341 202.83 498.008 202.497 515.5 201.5C515.833 201.5 516.167 201.5 516.5 201.5C523.648 202.492 530.981 202.825 538.5 202.5C538.5 207.833 538.5 213.167 538.5 218.5C404.833 218.5 271.167 218.5 137.5 218.5C137.5 213.167 137.5 207.833 137.5 202.5C152.676 202.829 167.676 202.496 182.5 201.5C201.09 202.486 219.757 202.82 238.5 202.5C250.5 202.5 262.5 202.5 274.5 202.5C236.999 203.301 199.333 203.967 161.5 204.5C153.808 204.429 146.141 204.096 138.5 203.5C138.5 207.5 138.5 211.5 138.5 215.5C270.807 216.828 403.14 216.828 535.5 215.5C536.212 212.352 536.879 209.186 537.5 206C537.355 205.228 537.022 204.561 536.5 204C511.33 203.832 486.33 203.332 461.5 202.5C461.17 182.326 461.503 162.326 462.5 142.5Z" fill="#299E9B"/>
<path fill-rule="evenodd" clip-rule="evenodd" d="M276.5 201.5C279.5 201.5 282.5 201.5 285.5 201.5C285.389 202.117 285.056 202.617 284.5 203C281.633 203.801 278.966 203.634 276.5 202.5C276.5 202.167 276.5 201.833 276.5 201.5Z" fill="#7FAF5D"/>
<path fill-rule="evenodd" clip-rule="evenodd" d="M137.5 218.5C271.167 218.5 404.833 218.5 538.5 218.5C538.5 221.167 538.5 223.833 538.5 226.5C507.5 226.5 476.5 226.5 445.5 226.5C434.167 226.5 422.833 226.5 411.5 226.5C452.665 225.667 493.998 225.167 535.5 225C537.56 223.507 537.893 221.674 536.5 219.5C403.958 219.743 271.292 219.743 138.5 219.5C138.5 221.5 138.5 223.5 138.5 225.5C227.668 225.167 316.668 225.501 405.5 226.5C405.167 226.5 404.833 226.5 404.5 226.5C366.167 226.5 327.833 226.5 289.5 226.5C269.833 226.5 250.167 226.5 230.5 226.5C199.5 226.5 168.5 226.5 137.5 226.5C137.5 223.833 137.5 221.167 137.5 218.5Z" fill="#104457"/>
<path fill-rule="evenodd" clip-rule="evenodd" d="M411.5 226.5C409.5 226.5 407.5 226.5 405.5 226.5C316.668 225.501 227.668 225.167 138.5 225.5C138.5 223.5 138.5 221.5 138.5 219.5C271.292 219.743 403.958 219.743 536.5 219.5C537.893 221.674 537.56 223.507 535.5 225C493.998 225.167 452.665 225.667 411.5 226.5Z" fill="#053B5F"/>
<path fill-rule="evenodd" clip-rule="evenodd" d="M289.5 226.5C327.833 226.5 366.167 226.5 404.5 226.5C404.5 227.167 404.833 227.5 405.5 227.5C405.666 234.841 405.5 242.174 405 249.5C403.961 250.244 403.461 251.244 403.5 252.5C401.715 254.954 399.382 256.621 396.5 257.5C396.433 258.959 396.766 260.292 397.5 261.5C396.391 261.443 395.391 261.11 394.5 260.5C394.833 258.5 395.167 256.5 395.5 254.5C397.167 254.5 398.833 254.5 400.5 254.5C400.992 252.159 402.159 250.159 404 248.5C404.81 241.918 404.643 235.418 403.5 229C365.835 228.5 328.168 228.333 290.5 228.5C290.233 236.222 290.566 243.889 291.5 251.5C290.833 251.167 290.167 250.833 289.5 250.5C289.5 242.5 289.5 234.5 289.5 226.5Z" fill="#F7CA4F"/>
<path fill-rule="evenodd" clip-rule="evenodd" d="M230.5 226.5C250.167 226.5 269.833 226.5 289.5 226.5C289.5 234.5 289.5 242.5 289.5 250.5C291.357 253.704 293.357 256.871 295.5 260C290.979 264.623 289.479 270.123 291 276.5C293.4 278.415 295.9 280.081 298.5 281.5C296.207 300.225 293.374 318.892 290 337.5C287.732 353.779 285.898 370.112 284.5 386.5C266.5 386.5 248.5 386.5 230.5 386.5C230.5 333.167 230.5 279.833 230.5 226.5Z" fill="#D1F4EE"/>
<path fill-rule="evenodd" clip-rule="evenodd" d="M404.5 226.5C404.833 226.5 405.167 226.5 405.5 226.5C407.5 226.5 409.5 226.5 411.5 226.5C422.833 226.5 434.167 226.5 445.5 226.5C445.5 279.5 445.5 332.5 445.5 385.5C445.5 385.833 445.5 386.167 445.5 386.5C433.833 386.5 422.167 386.5 410.5 386.5C406.488 351.742 401.655 317.075 396 282.5C395.722 281.584 395.222 280.918 394.5 280.5C397.719 280.141 400.553 278.808 403 276.5C403.667 272.5 403.667 268.5 403 264.5C402.617 263.944 402.117 263.611 401.5 263.5C399.938 263.267 398.605 262.6 397.5 261.5C396.766 260.292 396.433 258.959 396.5 257.5C399.382 256.621 401.715 254.954 403.5 252.5C404.458 252.047 405.292 251.381 406 250.5C406.822 242.655 406.656 234.989 405.5 227.5C404.833 227.5 404.5 227.167 404.5 226.5Z" fill="#D1F4F0"/>
<path fill-rule="evenodd" clip-rule="evenodd" d="M394.5 260.5C362.209 259.18 329.875 259.18 297.5 260.5C297.649 259.448 297.483 258.448 297 257.5C294.96 255.63 293.127 253.63 291.5 251.5C290.566 243.889 290.233 236.222 290.5 228.5C328.168 228.333 365.835 228.5 403.5 229C404.643 235.418 404.81 241.918 404 248.5C402.159 250.159 400.992 252.159 400.5 254.5C398.833 254.5 397.167 254.5 395.5 254.5C395.167 256.5 394.833 258.5 394.5 260.5Z" fill="#F7CA4F"/>
<path fill-rule="evenodd" clip-rule="evenodd" d="M405.5 227.5C406.656 234.989 406.822 242.655 406 250.5C405.292 251.381 404.458 252.047 403.5 252.5C403.461 251.244 403.961 250.244 405 249.5C405.5 242.174 405.666 234.841 405.5 227.5Z" fill="#E3E2AC"/>
<path fill-rule="evenodd" clip-rule="evenodd" d="M394.5 260.5C395.391 261.11 396.391 261.443 397.5 261.5C398.605 262.6 399.938 263.267 401.5 263.5C403.248 268.68 402.582 273.513 399.5 278C365.168 278.5 330.835 278.667 296.5 278.5C289.801 272.212 290.135 266.212 297.5 260.5C329.875 259.18 362.209 259.18 394.5 260.5Z" fill="#F8A509"/>
<path fill-rule="evenodd" clip-rule="evenodd" d="M289.5 250.5C290.167 250.833 290.833 251.167 291.5 251.5C293.127 253.63 294.96 255.63 297 257.5C297.483 258.448 297.649 259.448 297.5 260.5C290.135 266.212 289.801 272.212 296.5 278.5C297.833 279.167 299.167 279.833 300.5 280.5C300.158 281.338 299.492 281.672 298.5 281.5C295.9 280.081 293.4 278.415 291 276.5C289.479 270.123 290.979 264.623 295.5 260C293.357 256.871 291.357 253.704 289.5 250.5Z" fill="#F8A509"/>
<path fill-rule="evenodd" clip-rule="evenodd" d="M445.5 226.5C476.5 226.5 507.5 226.5 538.5 226.5C538.5 229.5 538.5 232.5 538.5 235.5C537.501 285.331 537.168 335.331 537.5 385.5C534.15 385.665 530.817 385.498 527.5 385C527.043 384.586 526.709 384.086 526.5 383.5C527.247 383.264 528.08 382.93 529 382.5C529.333 381.5 529.667 380.5 530 379.5C530.829 358.329 530.663 337.329 529.5 316.5C504.339 315.502 479.005 315.169 453.5 315.5C452.325 315.719 451.325 315.386 450.5 314.5C451.506 313.604 451.506 312.938 450.5 312.5C449.5 314 448.5 315.5 447.5 317C449.101 320.249 449.934 323.749 450 327.5C450.826 318.202 451.326 318.202 451.5 327.5C450.355 332.705 449.688 338.038 449.5 343.5C450.633 351.826 451.633 360.16 452.5 368.5C449.628 372.47 448.961 376.803 450.5 381.5C451.086 381.291 451.586 380.957 452 380.5C458.576 381.549 465.243 382.216 472 382.5C488.824 381.45 505.657 381.283 522.5 382C523.624 382.249 524.624 382.749 525.5 383.5C498.768 384.175 472.101 384.842 445.5 385.5C445.5 332.5 445.5 279.5 445.5 226.5Z" fill="#20B3A1"/>
<path fill-rule="evenodd" clip-rule="evenodd" d="M529.5 269.5C529.832 258.813 529.499 248.146 528.5 237.5C527.893 237.624 527.56 237.957 527.5 238.5C503.833 238.5 480.167 238.5 456.5 238.5C456.5 248.167 456.5 257.833 456.5 267.5C480.167 267.5 503.833 267.5 527.5 267.5C504.167 268.167 480.833 268.833 457.5 269.5C456.167 269.5 454.833 269.5 453.5 269.5C453.5 258.5 453.5 247.5 453.5 236.5C479.167 236.5 504.833 236.5 530.5 236.5C530.828 247.679 530.495 258.679 529.5 269.5Z" fill="#097B76"/>
<path fill-rule="evenodd" clip-rule="evenodd" d="M529.5 269.5C505.5 269.5 481.5 269.5 457.5 269.5C480.833 268.833 504.167 268.167 527.5 267.5C527.5 257.833 527.5 248.167 527.5 238.5C527.56 237.957 527.893 237.624 528.5 237.5C529.499 248.146 529.832 258.813 529.5 269.5Z" fill="#015B5A"/>
<path fill-rule="evenodd" clip-rule="evenodd" d="M527.5 238.5C527.5 248.167 527.5 257.833 527.5 267.5C503.833 267.5 480.167 267.5 456.5 267.5C456.5 257.833 456.5 248.167 456.5 238.5C480.167 238.5 503.833 238.5 527.5 238.5Z" fill="#1DB3A1"/>
<path fill-rule="evenodd" clip-rule="evenodd" d="M480.5 243.5C488.5 243.5 496.5 243.5 504.5 243.5C504.5 245.833 504.5 248.167 504.5 250.5C496.167 250.5 487.833 250.5 479.5 250.5C479.298 248.05 479.631 245.717 480.5 243.5Z" fill="#0D6C73"/>
<path fill-rule="evenodd" clip-rule="evenodd" d="M401.5 263.5C402.117 263.611 402.617 263.944 403 264.5C403.667 268.5 403.667 272.5 403 276.5C400.553 278.808 397.719 280.141 394.5 280.5C363.167 280.5 331.833 280.5 300.5 280.5C299.167 279.833 297.833 279.167 296.5 278.5C330.835 278.667 365.168 278.5 399.5 278C402.582 273.513 403.248 268.68 401.5 263.5Z" fill="#C89F3A"/>
<path fill-rule="evenodd" clip-rule="evenodd" d="M64.5 300.5C66.1401 303.78 67.8068 307.114 69.5 310.5C72.5272 312.86 75.1938 315.527 77.5 318.5C75.2573 319.474 72.924 319.808 70.5 319.5C57.4539 312.295 50.2872 301.295 49 286.5C53.8305 284.479 57.4971 285.812 60 290.5C61.2741 293.939 62.7741 297.272 64.5 300.5Z" fill="#1B818D"/>
<path fill-rule="evenodd" clip-rule="evenodd" d="M300.5 280.5C331.833 280.5 363.167 280.5 394.5 280.5C395.222 280.918 395.722 281.584 396 282.5C401.655 317.075 406.488 351.742 410.5 386.5C409.167 386.5 407.833 386.5 406.5 386.5C405.878 385.373 405.045 384.373 404 383.5C400.213 356.161 396.38 328.828 392.5 301.5C392.091 297.124 391.425 292.79 390.5 288.5C388.5 288.5 386.5 288.5 384.5 288.5C376.833 288.5 369.167 288.5 361.5 288.5C352.5 288.5 343.5 288.5 334.5 288.5C326.5 288.5 318.5 288.5 310.5 288.5C308.5 288.5 306.5 288.5 304.5 288.5C299.631 317.383 295.464 346.383 292 375.5C291.389 379.436 290.223 383.102 288.5 386.5C287.167 386.5 285.833 386.5 284.5 386.5C285.898 370.112 287.732 353.779 290 337.5C293.374 318.892 296.207 300.225 298.5 281.5C299.492 281.672 300.158 281.338 300.5 280.5Z" fill="#11405C"/>
<path fill-rule="evenodd" clip-rule="evenodd" d="M299.5 282.5C331.167 282.5 362.833 282.5 394.5 282.5C394.756 286.862 394.923 291.195 395 295.5C393.853 292.382 392.52 289.382 391 286.5C389.484 283.994 387.318 283.16 384.5 284C386.872 285.471 386.872 286.637 384.5 287.5C376.552 286.703 368.719 286.703 361 287.5C341.898 286.839 322.731 286.173 303.5 285.5C301.668 284.943 300.335 283.943 299.5 282.5Z" fill="#053B60"/>
<path fill-rule="evenodd" clip-rule="evenodd" d="M100.5 313.5C99.8501 315.435 99.5168 317.435 99.4996 319.5C95.76 319.759 92.0934 319.426 88.4996 318.5C86.3091 315.235 84.3091 311.901 82.4996 308.5C84.1003 309.643 84.767 308.976 84.4996 306.5C81.6902 296.027 80.8568 285.36 81.9996 274.5C84.5791 271.672 85.7458 268.338 85.4996 264.5C84.5718 258.181 84.4051 251.847 84.9996 245.5C87.1958 242.875 90.0291 241.875 93.4996 242.5C93.3334 248.509 93.5001 254.509 93.9996 260.5C96.0466 263.929 97.5466 267.596 98.4996 271.5C98.2465 275.193 97.0798 278.526 94.9996 281.5C93.8287 292.798 95.662 303.464 100.5 313.5Z" fill="#4DD7C4"/>
<path fill-rule="evenodd" clip-rule="evenodd" d="M82.5002 308.5C84.3097 311.901 86.3097 315.235 88.5002 318.5C92.094 319.426 95.7606 319.759 99.5002 319.5C99.5174 317.435 99.8507 315.435 100.5 313.5C103.038 302.691 104.205 291.691 104 280.5C108.861 276.007 112.194 277.007 114 283.5C115.765 296.008 113.599 307.674 107.5 318.5C110.625 319.479 113.958 319.813 117.5 319.5C117.5 319.833 117.5 320.167 117.5 320.5C101.833 320.5 86.1669 320.5 70.5002 320.5C70.5002 320.167 70.5002 319.833 70.5002 319.5C72.9242 319.808 75.2575 319.474 77.5002 318.5C75.194 315.527 72.5274 312.86 69.5002 310.5C67.807 307.114 66.1403 303.78 64.5002 300.5C65.2831 297.491 65.9498 294.324 66.5002 291C64.1847 283.012 63.3513 274.845 64.0002 266.5C65.0497 265.483 66.2163 265.316 67.5002 266C71.9199 273.165 74.4199 280.999 75.0002 289.5C79.1608 295.143 81.6608 301.476 82.5002 308.5Z" fill="#27B39D"/>
<path fill-rule="evenodd" clip-rule="evenodd" d="M137.5 226.5C168.5 226.5 199.5 226.5 230.5 226.5C230.5 279.833 230.5 333.167 230.5 386.5C199.5 386.5 168.5 386.5 137.5 386.5C137.5 333.167 137.5 279.833 137.5 226.5Z" fill="#28B0A1"/>
<path fill-rule="evenodd" clip-rule="evenodd" d="M221.5 236.5C221.828 247.679 221.495 258.679 220.5 269.5C220.827 259.319 220.494 249.319 219.5 239.5C195.5 238.167 171.5 238.167 147.5 239.5C146.506 249.319 146.173 259.319 146.5 269.5C146.167 269.5 145.833 269.5 145.5 269.5C145.5 258.5 145.5 247.5 145.5 236.5C170.833 236.5 196.167 236.5 221.5 236.5Z" fill="#057671"/>
<path fill-rule="evenodd" clip-rule="evenodd" d="M221.5 379.5C222.497 358.006 222.831 336.34 222.5 314.5C198.491 314.833 174.491 314.5 150.5 313.5C150.977 312.522 151.643 311.689 152.5 311C175.004 310.832 197.337 310.332 219.5 309.5C221.477 298.884 222.144 287.884 221.5 276.5C195.239 275.793 169.073 275.126 143 274.5C142.781 279.515 142.781 284.515 143 289.5C141.644 290.38 140.144 290.714 138.5 290.5C138.5 284.167 138.5 277.833 138.5 271.5C139.5 271.5 140.5 271.5 141.5 271.5C141.168 260.48 141.501 249.48 142.5 238.5C142.847 249.199 143.847 259.533 145.5 269.5C145.833 269.5 146.167 269.5 146.5 269.5C171.167 269.5 195.833 269.5 220.5 269.5C221.495 258.679 221.828 247.679 221.5 236.5C195.098 235.168 168.598 235.168 142 236.5C139.554 233.949 139.387 231.449 141.5 229C170.831 228.5 200.165 228.333 229.5 228.5C229.5 280.833 229.5 333.167 229.5 385.5C225.1 385.762 222.433 383.762 221.5 379.5Z" fill="#18B5A1"/>
<path fill-rule="evenodd" clip-rule="evenodd" d="M147.5 239.5C147.5 248.833 147.5 258.167 147.5 267.5C171.5 267.5 195.5 267.5 219.5 267.5C219.5 258.167 219.5 248.833 219.5 239.5C220.494 249.319 220.827 259.319 220.5 269.5C195.833 269.5 171.167 269.5 146.5 269.5C146.173 259.319 146.506 249.319 147.5 239.5Z" fill="#026160"/>
<path fill-rule="evenodd" clip-rule="evenodd" d="M219.5 239.5C219.5 248.833 219.5 258.167 219.5 267.5C195.5 267.5 171.5 267.5 147.5 267.5C147.5 258.167 147.5 248.833 147.5 239.5C171.5 238.167 195.5 238.167 219.5 239.5Z" fill="#1DB2A1"/>
<path fill-rule="evenodd" clip-rule="evenodd" d="M171.5 243.5C179.833 243.5 188.167 243.5 196.5 243.5C196.756 245.792 196.423 247.959 195.5 250C187.507 250.5 179.507 250.666 171.5 250.5C171.5 248.167 171.5 245.833 171.5 243.5Z" fill="#0D6D73"/>
<path fill-rule="evenodd" clip-rule="evenodd" d="M361.5 288.5C369.167 288.5 376.833 288.5 384.5 288.5C384.5 314.5 384.5 340.5 384.5 366.5C383.791 367.404 382.791 367.737 381.5 367.5C375.167 367.5 368.833 367.5 362.5 367.5C362.559 341.16 362.226 314.827 361.5 288.5Z" fill="#147F8F"/>
<path fill-rule="evenodd" clip-rule="evenodd" d="M310.5 288.5C310.5 314.833 310.5 341.167 310.5 367.5C311.5 367.5 312.5 367.5 313.5 367.5C313.5 369.833 313.5 372.167 313.5 374.5C312.57 378.4 312.237 382.4 312.5 386.5C304.5 386.5 296.5 386.5 288.5 386.5C290.223 383.102 291.389 379.436 292 375.5C295.464 346.383 299.631 317.383 304.5 288.5C306.5 288.5 308.5 288.5 310.5 288.5Z" fill="#CBF1EC"/>
<path fill-rule="evenodd" clip-rule="evenodd" d="M334.5 288.5C343.5 288.5 352.5 288.5 361.5 288.5C362.226 314.827 362.559 341.16 362.5 367.5C363.842 369.361 364.842 371.361 365.5 373.5C362.669 377.154 362.002 381.154 363.5 385.5C352.854 386.499 342.187 386.832 331.5 386.5C331.85 381.969 331.183 377.636 329.5 373.5C329.259 371.114 329.925 369.114 331.5 367.5C332.336 341.315 333.336 314.982 334.5 288.5Z" fill="#CFF2EE"/>
<path fill-rule="evenodd" clip-rule="evenodd" d="M117.5 319.5C113.958 319.813 110.625 319.479 107.5 318.5C110.731 316.78 113.564 314.447 116 311.5C118.342 305.826 121.508 300.659 125.5 296C127.473 295.505 129.473 295.338 131.5 295.5C130.405 305.704 125.738 313.704 117.5 319.5Z" fill="#21828C"/>
<path fill-rule="evenodd" clip-rule="evenodd" d="M221.5 276.5C222.144 287.884 221.477 298.884 219.5 309.5C194.833 309.5 170.167 309.5 145.5 309.5C145.5 298.5 145.5 287.5 145.5 276.5C170.833 276.5 196.167 276.5 221.5 276.5Z" fill="#046765"/>
<path fill-rule="evenodd" clip-rule="evenodd" d="M147.5 278.5C171.5 278.5 195.5 278.5 219.5 278.5C219.5 288.167 219.5 297.833 219.5 307.5C195.5 307.5 171.5 307.5 147.5 307.5C147.5 297.833 147.5 288.167 147.5 278.5Z" fill="#1BB4A1"/>
<path fill-rule="evenodd" clip-rule="evenodd" d="M171.5 283.5C179.5 283.5 187.5 283.5 195.5 283.5C195.5 285.5 195.5 287.5 195.5 289.5C187.5 289.5 179.5 289.5 171.5 289.5C171.5 287.5 171.5 285.5 171.5 283.5Z" fill="#0C676F"/>
<path fill-rule="evenodd" clip-rule="evenodd" d="M453.5 276.5C478.833 276.5 504.167 276.5 529.5 276.5C529.5 287.5 529.5 298.5 529.5 309.5C504.167 309.5 478.833 309.5 453.5 309.5C453.5 298.5 453.5 287.5 453.5 276.5Z" fill="#066564"/>
<path fill-rule="evenodd" clip-rule="evenodd" d="M456.5 277.5C480.167 277.5 503.833 277.5 527.5 277.5C527.5 287.5 527.5 297.5 527.5 307.5C503.833 307.5 480.167 307.5 456.5 307.5C456.5 297.5 456.5 287.5 456.5 277.5Z" fill="#1BB3A1"/>
<path fill-rule="evenodd" clip-rule="evenodd" d="M479.5 283.5C487.833 283.5 496.167 283.5 504.5 283.5C504.5 285.833 504.5 288.167 504.5 290.5C496.493 290.666 488.493 290.5 480.5 290C479.577 287.959 479.244 285.792 479.5 283.5Z" fill="#0B6B72"/>
<path fill-rule="evenodd" clip-rule="evenodd" d="M310.5 288.5C318.5 288.5 326.5 288.5 334.5 288.5C333.336 314.982 332.336 341.315 331.5 367.5C325.5 367.5 319.5 367.5 313.5 367.5C312.5 367.5 311.5 367.5 310.5 367.5C310.5 341.167 310.5 314.833 310.5 288.5Z" fill="#1A818F"/>
<path fill-rule="evenodd" clip-rule="evenodd" d="M540.5 319.5C540.5 339.167 540.5 358.833 540.5 378.5C539.833 378.5 539.5 378.833 539.5 379.5C538.501 331.67 538.168 283.67 538.5 235.5C538.5 232.5 538.5 229.5 538.5 226.5C538.5 223.833 538.5 221.167 538.5 218.5C538.5 213.167 538.5 207.833 538.5 202.5C530.981 202.825 523.648 202.492 516.5 201.5C516.5 201.167 516.5 200.833 516.5 200.5C524.087 201.079 531.421 200.079 538.5 197.5C540.188 199.029 541.521 200.863 542.5 203C541.115 205.585 541.782 207.585 544.5 209C543.207 209.49 541.873 209.657 540.5 209.5C540.662 207.473 540.495 205.473 540 203.5C539.503 205.81 539.337 208.143 539.5 210.5C540.833 210.5 542.167 210.5 543.5 210.5C543.5 211.5 543.5 212.5 543.5 213.5C542.325 213.281 541.325 213.614 540.5 214.5C544.403 216.283 544.07 217.45 539.5 218C540.496 251.76 540.829 285.594 540.5 319.5Z" fill="#BEF3ED"/>
<path fill-rule="evenodd" clip-rule="evenodd" d="M70.5005 320.5C86.1672 320.5 101.833 320.5 117.5 320.5C119.415 320.216 121.081 320.549 122.5 321.5C102.497 321.333 82.4977 321.5 62.5005 322C61.9563 322.717 61.2896 323.217 60.5005 323.5C60.4147 322.504 60.7481 321.671 61.5005 321C64.4821 320.502 67.4821 320.335 70.5005 320.5Z" fill="#8EA055"/>
<path fill-rule="evenodd" clip-rule="evenodd" d="M384.5 288.5C386.5 288.5 388.5 288.5 390.5 288.5C391.425 292.79 392.091 297.124 392.5 301.5C390.932 299.189 390.098 296.522 390 293.5C389.092 291.561 387.592 290.561 385.5 290.5C385.831 316.005 385.498 341.339 384.5 366.5C384.5 340.5 384.5 314.5 384.5 288.5Z" fill="#A7E5E7"/>
<path fill-rule="evenodd" clip-rule="evenodd" d="M122.5 321.5C123.496 321.414 124.329 321.748 125 322.5C125.167 324 125.333 325.5 125.5 327C125.955 329.923 124.955 332.09 122.5 333.5C121.972 339.637 120.972 345.637 119.5 351.5C119.167 351.5 118.833 351.5 118.5 351.5C118.689 345.374 119.356 339.374 120.5 333.5C116.881 334.244 113.215 334.577 109.5 334.5C94.167 334.5 78.8336 334.5 63.5003 334.5C61.5832 333.884 60.4165 332.55 60.0003 330.5C59.2045 327.961 59.3712 325.628 60.5003 323.5C61.2894 323.217 61.9561 322.717 62.5003 322C82.4975 321.5 102.497 321.333 122.5 321.5Z" fill="#DE920C"/>
<path fill-rule="evenodd" clip-rule="evenodd" d="M63.5 334.5C78.8333 334.5 94.1667 334.5 109.5 334.5C108.395 345.357 106.395 356.024 103.5 366.5C101.11 368.893 98.4433 370.893 95.5 372.5C87.1932 373.498 78.8599 373.831 70.5 373.5C70.4595 376.881 70.7929 380.214 71.5 383.5C71.1667 383.5 70.8333 383.5 70.5 383.5C69.596 382.791 69.2627 381.791 69.5 380.5C68.9894 376.217 69.6561 372.217 71.5 368.5C70.675 367.614 69.675 367.281 68.5 367.5C69.1685 361.705 68.1685 356.372 65.5 351.5C65.3163 345.769 64.6496 340.102 63.5 334.5Z" fill="#F7C94F"/>
<path fill-rule="evenodd" clip-rule="evenodd" d="M392.5 301.5C396.38 328.828 400.213 356.161 404 383.5C405.045 384.373 405.878 385.373 406.5 386.5C398.493 386.666 390.493 386.5 382.5 386C384.79 380.306 383.457 375.806 378.5 372.5C379.209 371.596 380.209 371.263 381.5 371.5C381.5 370.167 381.5 368.833 381.5 367.5C382.791 367.737 383.791 367.404 384.5 366.5C385.498 341.339 385.831 316.005 385.5 290.5C387.592 290.561 389.092 291.561 390 293.5C390.098 296.522 390.932 299.189 392.5 301.5Z" fill="#CDF3EC"/>
<path fill-rule="evenodd" clip-rule="evenodd" d="M118.5 351.5C118.833 351.5 119.167 351.5 119.5 351.5C119.537 360.526 118.204 369.193 115.5 377.5C117.049 368.919 118.049 360.253 118.5 351.5Z" fill="#EADC9F"/>
<path fill-rule="evenodd" clip-rule="evenodd" d="M313.5 367.5C319.5 367.5 325.5 367.5 331.5 367.5C329.925 369.114 329.259 371.114 329.5 373.5C325.462 371.478 321.129 370.978 316.5 372C315.309 372.698 314.309 373.531 313.5 374.5C313.5 372.167 313.5 369.833 313.5 367.5Z" fill="#D2B79E"/>
<path fill-rule="evenodd" clip-rule="evenodd" d="M362.5 367.5C368.833 367.5 375.167 367.5 381.5 367.5C381.5 368.833 381.5 370.167 381.5 371.5C380.209 371.263 379.209 371.596 378.5 372.5C373.919 370.864 369.586 371.197 365.5 373.5C364.842 371.361 363.842 369.361 362.5 367.5Z" fill="#D4BFA8"/>
<path opacity="0.843" fill-rule="evenodd" clip-rule="evenodd" d="M65.5 351.5C68.1685 356.372 69.1685 361.705 68.5 367.5C69.675 367.281 70.675 367.614 71.5 368.5C69.6561 372.217 68.9894 376.217 69.5 380.5C67.8077 373.328 66.4743 365.995 65.5 358.5C65.5 356.167 65.5 353.833 65.5 351.5Z" fill="#F2D37A"/>
<path fill-rule="evenodd" clip-rule="evenodd" d="M118.5 351.5C118.049 360.253 117.049 368.919 115.5 377.5C115.193 380.782 113.859 383.448 111.5 385.5C98.8293 385.667 86.1627 385.5 73.5004 385C72.9562 384.283 72.2895 383.783 71.5004 383.5C70.7933 380.214 70.4599 376.881 70.5004 373.5C78.8603 373.831 87.1936 373.498 95.5004 372.5C98.4437 370.893 101.11 368.893 103.5 366.5C106.395 356.024 108.395 345.357 109.5 334.5C113.215 334.577 116.881 334.244 120.5 333.5C119.356 339.374 118.689 345.374 118.5 351.5Z" fill="#F8A60D"/>
<path fill-rule="evenodd" clip-rule="evenodd" d="M221.5 379.5C196.167 379.5 170.833 379.5 145.5 379.5C145.5 358.167 145.5 336.833 145.5 315.5C170.833 315.5 196.167 315.5 221.5 315.5C221.5 336.833 221.5 358.167 221.5 379.5Z" fill="#096E6F"/>
<path fill-rule="evenodd" clip-rule="evenodd" d="M148.5 318.5C171.994 317.502 195.661 317.169 219.5 317.5C219.5 337.5 219.5 357.5 219.5 377.5C195.5 377.5 171.5 377.5 147.5 377.5C147.17 357.66 147.503 337.993 148.5 318.5Z" fill="#1BA097"/>
<path fill-rule="evenodd" clip-rule="evenodd" d="M148.5 318.5C171.833 318.5 195.167 318.5 218.5 318.5C218.826 337.41 218.493 356.243 217.5 375C194.591 376.479 171.591 376.979 148.5 376.5C148.5 357.167 148.5 337.833 148.5 318.5Z" fill="#1CB4A2"/>
<path fill-rule="evenodd" clip-rule="evenodd" d="M171.5 324.5C179.5 324.5 187.5 324.5 195.5 324.5C195.5 326.833 195.5 329.167 195.5 331.5C187.5 331.5 179.5 331.5 171.5 331.5C171.5 329.167 171.5 326.833 171.5 324.5Z" fill="#0D6C74"/>
<path fill-rule="evenodd" clip-rule="evenodd" d="M538.5 235.5C538.168 283.67 538.501 331.67 539.5 379.5C539.205 381.735 539.539 383.735 540.5 385.5C540.5 385.833 540.5 386.167 540.5 386.5C538.167 386.5 535.833 386.5 533.5 386.5C533.5 388.167 533.5 389.833 533.5 391.5C532.566 390.432 532.232 389.099 532.5 387.5C530.167 387.5 527.833 387.5 525.5 387.5C498.878 386.518 472.211 386.184 445.5 386.5C445.5 386.167 445.5 385.833 445.5 385.5C472.101 384.842 498.768 384.175 525.5 383.5C524.624 382.749 523.624 382.249 522.5 382C505.657 381.283 488.824 381.45 472 382.5C465.243 382.216 458.576 381.549 452 380.5C451.586 380.957 451.086 381.291 450.5 381.5C448.961 376.803 449.628 372.47 452.5 368.5C451.633 360.16 450.633 351.826 449.5 343.5C449.688 338.038 450.355 332.705 451.5 327.5C451.326 318.202 450.826 318.202 450 327.5C449.934 323.749 449.101 320.249 447.5 317C448.5 315.5 449.5 314 450.5 312.5C451.506 312.938 451.506 313.604 450.5 314.5C451.325 315.386 452.325 315.719 453.5 315.5C453.169 337.007 453.503 358.34 454.5 379.5C479.212 379.824 503.878 379.49 528.5 378.5C529.5 357.844 529.833 337.177 529.5 316.5C530.663 337.329 530.829 358.329 530 379.5C529.667 380.5 529.333 381.5 529 382.5C528.08 382.93 527.247 383.264 526.5 383.5C526.709 384.086 527.043 384.586 527.5 385C530.817 385.498 534.15 385.665 537.5 385.5C537.168 335.331 537.501 285.331 538.5 235.5Z" fill="#29AC9F"/>
<path fill-rule="evenodd" clip-rule="evenodd" d="M529.5 316.5C529.833 337.177 529.5 357.844 528.5 378.5C503.878 379.49 479.212 379.824 454.5 379.5C454.5 358.5 454.5 337.5 454.5 316.5C479.5 316.5 504.5 316.5 529.5 316.5Z" fill="#086B6B"/>
<path fill-rule="evenodd" clip-rule="evenodd" d="M453.5 315.5C479.005 315.169 504.339 315.502 529.5 316.5C504.5 316.5 479.5 316.5 454.5 316.5C454.5 337.5 454.5 358.5 454.5 379.5C453.503 358.34 453.169 337.007 453.5 315.5Z" fill="#1F938E"/>
<path fill-rule="evenodd" clip-rule="evenodd" d="M527.5 318.5C504.167 318.5 480.833 318.5 457.5 318.5C457.5 337.833 457.5 357.167 457.5 376.5C480.5 376.5 503.5 376.5 526.5 376.5C526.174 367.983 526.507 359.65 527.5 351.5C527.5 360.167 527.5 368.833 527.5 377.5C503.833 377.5 480.167 377.5 456.5 377.5C456.5 357.5 456.5 337.5 456.5 317.5C480.339 317.169 504.006 317.502 527.5 318.5Z" fill="#20A29A"/>
<path fill-rule="evenodd" clip-rule="evenodd" d="M527.5 318.5C527.5 329.5 527.5 340.5 527.5 351.5C526.507 359.65 526.174 367.983 526.5 376.5C503.5 376.5 480.5 376.5 457.5 376.5C457.5 357.167 457.5 337.833 457.5 318.5C480.833 318.5 504.167 318.5 527.5 318.5Z" fill="#1CB4A2"/>
<path fill-rule="evenodd" clip-rule="evenodd" d="M480.5 324.5C488.5 324.5 496.5 324.5 504.5 324.5C504.5 326.833 504.5 329.167 504.5 331.5C496.167 331.5 487.833 331.5 479.5 331.5C479.298 329.05 479.631 326.717 480.5 324.5Z" fill="#0B6D74"/>
<path fill-rule="evenodd" clip-rule="evenodd" d="M70.5 383.5C70.8333 383.5 71.1667 383.5 71.5 383.5C72.2891 383.783 72.9558 384.283 73.5 385C86.1623 385.5 98.8289 385.667 111.5 385.5C111.5 385.833 111.5 386.167 111.5 386.5C98.5 386.5 85.5 386.5 72.5 386.5C72.5 385.833 72.1667 385.5 71.5 385.5C71.1667 384.833 70.8333 384.167 70.5 383.5Z" fill="#BA9637"/>
<path opacity="0.071" fill-rule="evenodd" clip-rule="evenodd" d="M540.5 386.5C540.5 386.167 540.5 385.833 540.5 385.5C559.17 385.333 577.836 385.5 596.5 386C596.833 386.333 597.167 386.667 597.5 387C596.891 388.948 596.224 390.782 595.5 392.5C595.5 390.833 595.5 389.167 595.5 387.5C577.201 386.539 558.868 386.206 540.5 386.5Z" fill="#627888"/>
<path fill-rule="evenodd" clip-rule="evenodd" d="M540.5 386.5C558.868 386.206 577.201 386.539 595.5 387.5C595.5 389.167 595.5 390.833 595.5 392.5C574.66 392.831 553.993 392.497 533.5 391.5C533.5 389.833 533.5 388.167 533.5 386.5C535.833 386.5 538.167 386.5 540.5 386.5Z" fill="#092A42"/>
<path fill-rule="evenodd" clip-rule="evenodd" d="M329.5 373.5C331.183 377.636 331.85 381.969 331.5 386.5C342.187 386.832 352.854 386.499 363.5 385.5C362.002 381.154 362.669 377.154 365.5 373.5C369.586 371.197 373.919 370.864 378.5 372.5C383.457 375.806 384.79 380.306 382.5 386C390.493 386.5 398.493 386.666 406.5 386.5C407.833 386.5 409.167 386.5 410.5 386.5C422.167 386.5 433.833 386.5 445.5 386.5C472.211 386.184 498.878 386.518 525.5 387.5C525.5 389.167 525.5 390.833 525.5 392.5C524.5 392.5 523.5 392.5 522.5 392.5C357.001 391.5 191.334 391.167 25.5 391.5C25.5 390.167 25.5 388.833 25.5 387.5C26.6085 386.71 27.9419 386.21 29.5 386C43.496 385.5 57.496 385.333 71.5 385.5C72.1667 385.5 72.5 385.833 72.5 386.5C72.9175 387.222 73.5842 387.722 74.5 388C144.664 387.985 214.664 387.485 284.5 386.5C285.833 386.5 287.167 386.5 288.5 386.5C296.5 386.5 304.5 386.5 312.5 386.5C312.237 382.4 312.57 378.4 313.5 374.5C314.309 373.531 315.309 372.698 316.5 372C321.129 370.978 325.462 371.478 329.5 373.5Z" fill="#072A41"/>
<path fill-rule="evenodd" clip-rule="evenodd" d="M72.5 386.5C85.5 386.5 98.5 386.5 111.5 386.5C120.167 386.5 128.833 386.5 137.5 386.5C168.5 386.5 199.5 386.5 230.5 386.5C248.5 386.5 266.5 386.5 284.5 386.5C214.664 387.485 144.664 387.985 74.5 388C73.5842 387.722 72.9175 387.222 72.5 386.5Z" fill="#183636"/>
<path opacity="0.862" fill-rule="evenodd" clip-rule="evenodd" d="M25.4996 387.5C25.4996 388.833 25.4996 390.167 25.4996 391.5C191.334 391.167 357.001 391.5 522.5 392.5C356.5 392.5 190.5 392.5 24.4996 392.5C24.2151 390.585 24.5485 388.919 25.4996 387.5Z" fill="#2A4053"/>
<path opacity="0.506" fill-rule="evenodd" clip-rule="evenodd" d="M613.5 396.5C609.5 396.5 605.5 396.5 601.5 396.5C600.909 392.259 602.742 390.593 607 391.5C611.075 390.745 613.241 392.412 613.5 396.5Z" fill="#7F8995"/>
</svg>
