<svg width="830" height="648" viewBox="0 0 830 648" fill="none" xmlns="http://www.w3.org/2000/svg">
<path d="M284.88 158.651H290.932L297.849 160.812L302.604 164.271L304.766 166.432L307.359 169.89L309.521 174.213L311.682 183.292L315.573 196.26V199.719L313.411 202.312L311.682 203.177H306.495L303.901 202.745L302.172 204.906L300.01 205.771H298.714V206.635H297.849L298.281 209.229L297.849 210.094L307.359 209.661L311.25 211.39L313.844 213.12L316.87 216.578L318.167 217.875L319.896 221.765L321.625 230.411V242.083L320.76 249.432L317.734 262.401L315.141 268.021L314.708 271.047L312.547 271.479L311.25 271.911L310.385 273.208L310.818 275.802L314.708 282.719L316.438 287.042L318.599 293.526L319.896 300.875V307.792L318.167 314.708L315.573 319.031L313.411 322.057L313.844 323.354L314.276 324.219L316.005 324.651L321.625 327.245L329.839 331.135L334.594 333.297L341.51 335.89L347.563 337.62L351.453 338.484H359.667L366.583 335.458L370.042 331.568L373.068 326.38L375.661 318.599L376.958 312.979L378.255 305.63L380.849 296.552L384.307 288.771L385.172 287.042H386.036L386.469 284.88L391.224 277.963L394.682 273.64L396.844 271.047H397.708L398.573 269.318L403.328 264.562L405.49 262.833H406.354V261.969L410.677 258.51L416.729 254.187L419.323 252.458H420.188V251.594L430.995 245.109L440.938 240.354L448.286 236.896L454.339 234.734L458.661 233.005L466.875 230.411L480.276 226.953L490.651 224.792L503.62 223.062L517.021 222.198H525.667L538.203 223.062L553.333 225.656L565.005 229.547L572.354 233.005L577.542 236.031V236.896L579.271 237.328L584.458 241.219L587.484 244.677L591.807 249.864L594.833 255.052L597.859 262.401L599.156 268.021V270.614L599.589 271.479L600.885 270.182L601.75 260.239L603.479 253.755L605.641 248.568L608.667 244.677L610.828 242.948L613.422 241.651H619.042L621.203 242.515L625.958 242.083L626.823 242.948L631.578 244.677L633.74 248.135L635.036 250.729L637.63 253.755L638.495 256.781L638.063 261.536L637.198 264.562L635.901 276.667L634.172 282.286L632.443 285.745L636.333 287.042V287.906L638.063 288.771L642.818 296.984V300.01L642.385 302.172L643.25 304.333L645.844 316.87L648.005 325.083L649.734 329.838L650.599 331.568L652.328 332.864V333.729L654.49 334.594L661.406 338.052L664.432 339.349L665.729 340.646L668.755 336.323L673.943 328.109L674.375 327.677H705.5L705.068 329.406L695.557 344.104L691.234 350.588L690.37 351.453L692.964 354.479L696.422 361.396L700.313 371.338L705.068 386.901L708.094 397.276L714.578 423.213L716.74 432.292V434.885L715.875 435.75L716.307 438.344L718.901 441.802V442.667L720.63 443.531L721.495 445.26L723.224 446.125L724.089 448.719H721.063L720.63 448.286L715.875 447.854L721.495 449.151L728.411 448.719L732.734 450.88L733.167 452.609L730.573 453.906H724.089L715.875 451.745L709.391 450.88L707.229 449.583L706.797 449.151V446.125L707.229 444.828L708.526 444.396L711.12 445.693L710.688 445.26L709.391 444.396V443.531H708.526L708.094 436.182L705.932 434.021L702.906 429.698L697.719 421.917L693.396 415L689.505 408.948V412.406L690.37 414.135L692.099 424.078L694.26 434.021L695.99 443.099V448.286L697.286 450.448L699.88 452.609L700.745 454.771L702.474 455.635L702.042 457.364L700.745 457.797H704.635L706.797 457.364L711.984 459.958L712.417 460.823L711.552 462.12L710.255 462.552H702.042L696.422 460.823L689.073 459.958L686.911 459.094L686.479 480.276L685.182 486.76L683.021 491.948L679.995 497.135L673.078 504.052L668.323 507.078L662.703 509.239L659.245 510.104L654.922 510.536L745.703 510.969V512.698H177.24V510.969L412.839 510.536L392.953 507.943L389.063 507.51L389.495 504.484L390.792 501.89L394.25 499.297L399.005 498.432L405.057 498L416.297 493.245L430.563 494.974L432.724 495.406V504.484L432.292 510.969L471.198 510.536L469.469 508.375L469.036 507.51V504.052L470.333 501.89L472.927 500.594H498L497.568 439.64H456.068L454.771 444.396L445.26 470.765L439.208 487.625L438.776 488.489L433.589 488.057L417.594 485.463L416.297 485.031L417.161 479.844L424.51 451.745L429.698 430.995L425.375 436.182L423.214 439.208H422.349L421.484 441.37L415.865 448.286L412.406 452.609L408.083 458.229L404.625 462.552L399.87 459.526L401.167 460.823V462.12L399.005 462.552L398.141 465.146H397.276L396.411 466.875L393.385 470.333L386.469 480.708L384.307 483.734L382.146 482.437L373.5 475.521L368.313 471.63L361.828 466.443L350.589 457.797H349.292L351.453 465.146V467.739L345.833 472.927L341.078 476.818L334.161 482.437L328.974 485.896H327.245L327.677 483.302L332.865 476.385L333.729 474.656L328.542 466.443L324.219 463.417L317.302 458.229L311.25 453.474V452.609L309.521 451.745L305.63 448.719V447.854L303.901 446.989L296.984 440.505L292.661 436.614L289.635 433.588L286.609 430.13L283.151 426.239V425.375L281.854 424.943L278.396 420.62V419.755H277.531L271.911 411.974L267.589 405.489L265.427 413.271L259.807 434.453L255.484 450.88L247.271 481.14L245.974 485.463L248.568 485.896L248.135 488.489L243.813 500.161L240.786 501.026L222.198 502.755H213.984L212.688 502.323L213.12 500.594L217.443 498.864L223.927 496.703L224.359 496.271L225.224 486.328L228.25 485.463L227.818 483.734L229.979 469.036L233.438 445.26L236.896 421.917L239.922 400.734L242.083 387.333L245.542 373.5L248.568 360.099L254.188 336.323L261.969 303.469L264.13 294.39L263.698 291.797L263.266 283.583L259.375 282.719L247.703 280.557L240.354 278.396L236.896 277.099L227.818 274.073L219.172 272.344L217.875 271.047H202.745L188.047 271.479H181.13L176.375 263.698L167.729 249L159.948 236.031V234.734H159.083L158.219 232.573L161.245 232.14L183.292 230.844L192.802 229.979L200.583 229.547L206.635 229.114L207.932 230.411L213.984 241.651L219.172 250.729L219.604 252.458H222.63L231.708 253.755H243.813L245.542 252.89L245.974 251.161L243.813 250.297L244.245 247.271L245.109 245.542H245.974L247.271 241.651L249.432 235.599L251.594 230.411L253.323 226.088L255.484 222.63L255.917 221.333L258.078 219.172L261.536 216.146L264.13 214.417L267.589 213.12H269.75L270.615 211.823H273.208L274.073 212.255L276.667 211.39L279.693 210.958V207.068L269.318 204.042L264.995 202.312L265.859 200.151L270.615 191.937L271.047 190.64H271.911L271.479 181.13L270.615 177.239V172.917L271.911 168.594L274.938 164.703L279.26 160.812L283.151 159.083L284.88 158.651Z" fill="#D3EEE9"/>
<path d="M235.166 300.443H242.083L252.458 301.307L260.239 302.604L261.968 303.469L261.536 306.927L255.916 331.136L252.458 345.401L246.406 370.906L243.812 382.146L241.651 392.089L238.192 416.297L235.599 433.156L233.005 451.313L229.114 477.682L228.25 485.031L230.411 485.464V485.896L225.656 486.328L224.791 496.271L222.63 497.568L214.849 500.162L213.119 501.026L212.687 502.323H222.198L240.786 500.594L243.38 500.162L248.567 485.896H245.541L252.026 462.12L256.781 444.396L261.968 424.943L266.724 406.354L267.588 405.057L271.047 409.813L274.073 414.568L277.531 418.891V419.755H278.396L281.422 423.646L285.312 427.969L288.338 431.427L293.526 437.047L300.442 443.531L304.765 447.422L305.63 447.854V448.719L307.359 449.583L311.25 452.61L313.411 454.771L320.76 460.391L326.38 464.714L329.406 466.875L334.161 474.656L333.297 476.386L328.974 482.005L327.677 484.167L327.244 485.896L330.271 484.599L335.026 481.141L341.078 476.386L347.562 470.766L351.021 467.74L350.588 463.849L349.291 457.797L350.588 457.365L356.208 461.688L360.531 465.146L368.312 471.198L373.932 475.521L378.687 479.412L383.875 483.302L385.172 482.005L392.953 470.333L395.114 467.74H395.979L397.276 465.146H398.14L399.005 462.552L401.166 462.12L400.302 460.391L398.573 458.662L400.734 459.526L404.625 462.12L409.812 455.636L412.838 451.745L417.593 445.693L421.916 440.073L422.349 439.208H423.213L424.078 437.479L428.833 431.427L430.13 430.563L428.401 437.912L421.484 465.146L416.297 485.031L425.375 486.328L438.776 488.49L440.073 484.167L447.854 462.12L455.203 441.802L456.067 439.641H497.567L498 438.776V500.594L472.927 501.026L470.333 501.891L469.468 504.052V507.511L471.198 510.104L471.63 510.969H432.291V504.485L432.724 495.406L427.968 494.974L416.297 493.677L405.057 498.432L395.547 499.297L392.088 501.026L390.359 503.188L389.062 507.511H392.953L412.838 510.104L415.432 510.537V510.969H177.239L176.807 511.833L174.646 509.672L171.619 505.781V504.917H170.755L166 498L160.812 489.787L158.218 485.464L153.896 476.386L150.869 469.469L148.276 462.12L145.682 453.906L142.656 440.073L141.359 428.833L140.927 422.349V411.542L142.224 397.708L144.385 385.604L146.114 379.12L150.005 367.448L152.166 362.261L158.218 350.156L161.244 345.833L161.677 344.537H162.541L162.974 342.807L167.729 336.323L170.755 332.865L174.646 328.542L179.833 323.354L182.859 321.193L184.588 319.464L190.208 315.573H191.073V314.708L195.828 312.115L204.041 307.792L211.39 304.766L223.062 301.74L229.547 300.875L235.166 300.443Z" fill="#D3EEE9"/>
<path d="M284.88 158.651H290.932L297.849 160.812L302.604 164.271L304.766 166.432L307.359 169.89L309.521 174.213L311.682 183.292L315.573 196.26V199.719L313.411 202.312L311.682 203.177H306.495L303.901 202.745L302.172 204.906L300.01 205.771H298.714V206.635H297.849L298.281 209.229L297.849 210.094L307.359 209.661L311.25 211.39L313.844 213.12L316.87 216.578L318.167 217.875L319.896 221.765L321.625 230.411V242.083L320.76 249.432L317.734 262.401L315.141 268.021L314.708 271.047L312.547 271.479L311.25 271.911L310.385 273.208L310.818 275.802L314.708 282.719L316.438 287.042L318.599 293.526L319.896 300.875V307.792L318.167 314.708L315.573 319.031L311.25 325.515L306.927 332.432L302.604 338.917L298.714 347.995L295.255 357.073L292.229 367.015L290.5 376.094L290.068 379.12V386.901L291.365 391.656L293.958 397.708L298.281 405.057L303.469 411.974L307.359 416.729L312.547 422.781L312.979 424.078H313.844V424.943L315.141 425.375L318.167 428.833L323.354 434.453L337.188 448.286L344.104 454.338L346.698 452.609H347.995L351.453 465.146V467.739L345.833 472.927L341.078 476.818L334.161 482.437L328.974 485.896H327.245L327.677 483.302L332.865 476.385L333.729 474.656L328.542 466.443L324.219 463.417L317.302 458.229L311.25 453.474V452.609L309.521 451.745L305.63 448.719V447.854L303.901 446.989L296.984 440.505L292.661 436.614L289.635 433.588L286.609 430.13L283.151 426.239V425.375L281.854 424.943L278.396 420.62V419.755H277.531L271.911 411.974L267.589 405.489L265.427 413.271L259.807 434.453L255.484 450.88L247.271 481.14L245.974 485.463L248.568 485.896L248.135 488.489L243.813 500.161L240.786 501.026L222.198 502.755H213.984L212.688 502.323L213.12 500.594L217.443 498.864L223.927 496.703L224.359 496.271L225.224 486.328L228.25 485.463L227.818 483.734L229.979 469.036L233.438 445.26L236.896 421.917L239.922 400.734L242.083 387.333L245.542 373.5L248.568 360.099L254.188 336.323L261.969 303.469L264.13 294.39L263.698 291.797L263.266 283.583L259.375 282.719L247.703 280.557L240.354 278.396L236.896 277.099L227.818 274.073L219.172 272.344L217.875 271.047H202.745L188.047 271.479H181.13L176.375 263.698L167.729 249L159.948 236.031V234.734H159.083L158.219 232.573L161.245 232.14L183.292 230.844L192.802 229.979L200.583 229.547L206.635 229.114L207.932 230.411L213.984 241.651L219.172 250.729L219.604 252.458H222.63L231.708 253.755H243.813L245.542 252.89L245.974 251.161L243.813 250.297L244.245 247.271L245.109 245.542H245.974L247.271 241.651L249.432 235.599L251.594 230.411L253.323 226.088L255.484 222.63L255.917 221.333L258.078 219.172L261.536 216.146L264.13 214.417L267.589 213.12H269.75L270.615 211.823H273.208L274.073 212.255L276.667 211.39L279.693 210.958V207.068L269.318 204.042L264.995 202.312L265.859 200.151L270.615 191.937L271.047 190.64H271.911L271.479 181.13L270.615 177.239V172.917L271.911 168.594L274.938 164.703L279.26 160.812L283.151 159.083L284.88 158.651Z" fill="#609896"/>
<path d="M592.672 370.906H597.427L599.588 376.094V376.958H600.453L602.614 379.12L607.369 381.281L613.422 383.01L622.5 384.307L628.984 384.74H658.38L660.109 386.901L660.974 390.359L662.271 401.167L664.432 407.651L668.323 415L671.781 421.917L676.968 430.563L682.588 439.641L686.479 445.693V453.474L688.64 453.906L695.557 456.932L698.583 457.797H704.635L706.797 457.365L711.984 459.958L712.416 460.823L711.552 462.12L710.255 462.552H702.041L696.422 460.823L689.073 459.958L686.911 459.094L686.479 480.276L685.182 486.76L683.021 491.948L679.994 497.135L673.078 504.052L668.323 507.078L662.703 509.24L659.244 510.104L654.922 510.536L745.703 510.969V512.698H177.239V510.969L412.838 510.536L392.953 507.943L389.062 507.51L389.494 504.484L390.791 501.891L394.25 499.297L399.005 498.432L405.057 498L416.297 493.245L430.562 494.974L432.724 495.406V504.484L432.291 510.969L471.198 510.536L469.468 508.375L469.036 507.51V504.052L470.333 501.891L472.927 500.594H498V436.182H503.619V500.594H529.125L532.151 502.323L533.015 504.052V507.51L532.151 509.672L530.854 510.536H593.536L587.916 509.672L581.432 507.51L577.109 504.917L573.218 501.891L570.192 498.865L565.869 492.38L563.708 487.625L562.411 480.708V400.734L563.708 394.25L565.869 389.063L568.896 384.307L573.651 379.12L577.109 376.526L581.432 373.932L587.916 371.771L592.672 370.906Z" fill="#144160"/>
<path d="M613.422 241.651H619.042L621.203 242.515L625.958 242.083L626.823 242.948L631.578 244.677L633.739 248.135L635.036 250.729L637.63 253.755L638.495 256.781L638.062 261.536L637.198 264.562L635.901 276.667L634.172 282.286L632.443 285.745L636.333 287.042V287.906L638.062 288.771L642.818 296.984V300.01L642.385 302.172L643.25 304.333L645.844 316.87L648.005 325.083L649.734 329.838L650.599 331.568L652.328 332.864V333.729L654.489 334.594L661.406 338.052L664.432 339.349L665.729 340.646L668.755 336.323L673.943 328.109L674.375 327.677H705.5L705.068 329.406L695.557 344.104L691.234 350.588L690.37 351.453L692.963 354.479L696.422 361.396L700.312 371.338L705.068 386.901L708.094 397.276L714.578 423.213L716.739 432.292V434.885L715.875 435.75L716.307 438.344L718.901 441.802V442.667L720.63 443.531L721.495 445.26L723.224 446.125L724.088 448.719H721.062L720.63 448.286L715.875 447.854L721.495 449.151L728.411 448.719L732.734 450.88L733.167 452.609L730.573 453.906H724.088L715.875 451.745L709.39 450.88L707.229 449.583L706.797 449.151V446.125L707.229 444.828L708.526 444.396L711.12 445.693L710.687 445.26L709.39 444.396V443.531H708.526L708.094 436.182L705.932 434.021L702.906 429.698L697.719 421.917L693.396 415L689.505 408.948V412.406L690.37 414.135L692.099 424.078L694.26 434.021L695.989 443.099V448.286L697.286 450.448L699.88 452.609L700.745 454.771L702.474 455.635L702.042 457.364L700.745 457.797H697.286L691.667 455.635L686.479 453.474L686.047 445.693L683.021 440.937L677.833 432.724L671.349 421.917L667.89 415L664 407.651L661.838 401.167L660.542 390.359L659.677 386.901L658.38 385.172H628.984L619.042 384.307L612.125 383.01L605.208 380.849L600.885 378.255L600.453 376.958H599.588L597.859 373.5V370.474L595.698 368.312L595.265 366.583L596.13 360.099L599.588 347.995L602.614 336.323L602.182 332L601.75 331.568L601.318 328.109L600.021 325.083L599.156 319.031L598.724 318.167L597.427 308.224V311.25L599.156 320.328V322.489L596.995 320.328L592.672 314.708L587.484 307.792L585.323 303.036L584.026 299.146V290.932L585.755 287.042L589.213 283.151L594.833 279.693L596.995 277.963L599.588 274.937L600.885 270.182L601.75 260.239L603.479 253.755L605.64 248.568L608.667 244.677L610.828 242.948L613.422 241.651Z" fill="#146E72"/>
<path d="M284.88 158.651H290.932L297.849 160.812L302.604 164.271L304.766 166.432L307.359 169.89L309.521 174.213L311.682 183.292L315.573 196.26V199.719L313.411 202.312L311.682 203.177H306.495L303.901 202.745L302.172 204.906L300.01 205.771H298.714V206.635H297.849L298.281 209.229L297.849 210.094L307.359 209.661L311.25 211.39L313.844 213.12L316.87 216.578L318.167 217.875L319.896 221.765L321.625 230.411V242.083L320.76 249.432L317.734 262.401L315.141 268.021L314.708 271.047L312.547 271.479L311.25 271.911L310.385 273.208L310.818 275.802L314.708 282.719V284.015L309.089 285.312L294.823 287.906H292.661V283.583L288.339 284.015V288.771L285.312 289.635L275.802 291.364H274.073L273.641 289.635V284.015H269.318L268.885 292.229L266.292 293.094L264.13 292.661L263.698 291.797L263.266 283.583L259.375 282.719L247.703 280.557L240.354 278.396L236.896 277.099L227.818 274.073L219.172 272.344L217.875 271.047H202.745L188.047 271.479H181.13L176.375 263.698L167.729 249L159.948 236.031V234.734H159.083L158.219 232.573L161.245 232.14L183.292 230.844L192.802 229.979L200.583 229.547L206.635 229.114L207.932 230.411L213.984 241.651L219.172 250.729L219.604 252.458H222.63L231.708 253.755H243.812L245.542 252.89L245.974 251.161L243.812 250.297L244.245 247.271L245.109 245.542H245.974L247.271 241.651L249.432 235.599L251.594 230.411L253.323 226.088L255.484 222.63L255.917 221.333L258.078 219.172L261.536 216.146L264.13 214.417L267.589 213.12H269.75L270.615 211.823H273.208L274.073 212.255L276.667 211.39L279.693 210.958V207.068L269.318 204.042L264.995 202.312L265.859 200.151L270.615 191.937L271.047 190.64H271.911L271.479 181.13L270.615 177.239V172.917L271.911 168.594L274.937 164.703L279.26 160.812L283.151 159.083L284.88 158.651Z" fill="#FCE2CA"/>
<path d="M418.89 349.724H423.646L458.229 354.047L466.875 355.344L469.036 357.505L470.765 368.745L473.359 389.495L474.224 395.979V398.573L478.547 399.87L486.328 402.896H491.083L494.541 402.031L498.864 400.735L523.073 408.948L526.531 410.245L525.666 414.136L523.073 421.052L521.343 423.646L518.75 425.807L513.562 428.401L508.375 429.698L504.916 430.13H459.526L458.229 434.886L450.88 455.203L444.828 472.063L439.208 487.625L438.776 488.49L433.588 488.057L417.593 485.464L416.297 485.031L417.161 479.844L424.51 451.745L429.698 430.995L425.375 436.182L423.213 439.208H422.349L421.484 441.37L415.864 448.287L412.406 452.61L408.083 458.229L404.625 462.552L399.869 459.526L393.817 454.771L387.333 450.016L386.036 448.719L391.656 440.505L397.708 431.86L401.166 426.672L404.625 421.917L408.948 415.432L416.729 404.193L422.781 394.682L421.916 392.521L421.052 390.792L418.458 372.636L416.297 357.938L415.864 353.615L417.161 351.021L418.89 349.724Z" fill="#DADCDC"/>
<path d="M708.094 397.708L709.39 399.005L714.578 401.599L722.359 405.922L728.411 409.38L736.625 414.568L738.354 415.865V416.729L740.083 417.594L743.542 420.188V421.052H744.406V421.917H745.271V422.781H746.135V423.646H747V424.511H747.864L752.187 430.563L754.781 434.453L757.807 441.37L759.969 450.448L760.401 453.042V466.875L758.672 477.25L755.213 488.49L753.052 493.677L748.297 503.62L744.838 509.24L744.406 510.537L745.703 510.969H654.057L654.922 510.104L660.542 509.24L666.161 507.511L670.484 505.349L674.375 502.323L679.562 497.136L683.021 491.084L684.75 486.761L686.047 480.276L686.479 458.662L689.073 459.526L696.422 460.391L702.042 462.12H710.255L711.552 461.688L711.984 460.391L706.797 457.797L704.635 458.229H698.583V457.797L702.042 456.932L701.609 455.203L699.88 453.474V452.61L698.583 452.177V451.313L696.854 450.448L695.557 448.287V443.099L692.963 430.13L690.802 419.755L689.937 414.136L689.073 412.406V408.516L690.802 410.245L694.26 415.865L698.151 421.917L703.338 429.698L706.364 434.021L708.526 436.182L708.958 441.37L708.526 443.531H709.39L710.687 444.828L712.417 445.693L711.12 446.125L708.094 444.828H707.229V449.151L709.39 450.448L718.036 451.745L724.088 453.474H730.573L732.734 452.61L732.302 450.88L728.411 449.151L721.495 449.583L715.875 448.287L715.443 447.422L720.63 447.854L721.062 448.287H723.656L723.224 446.125L721.062 445.261L719.765 443.099L717.604 440.938L715.443 437.479L715.875 435.318L716.307 434.886L715.875 430.995L710.255 407.219L708.094 399.005V397.708Z" fill="#D3EEE9"/>
<path d="M602.615 336.323L603.479 336.755L605.208 341.078L606.938 344.536L607.37 345.833L608.667 346.265V347.13L613.854 347.995L626.391 348.427L637.198 347.562L642.818 347.13L643.25 346.698L646.708 347.13L647.141 347.995L646.276 350.156L644.115 351.453L635.469 353.182L643.682 354.479L653.625 355.776L662.703 357.505L669.62 359.667L673.078 361.396L676.104 365.286L678.698 371.338L681.292 378.255L684.318 389.062L689.073 407.651L689.505 408.515V412.406L690.37 414.135L692.099 424.078L694.26 434.021L695.99 443.099V448.286L697.286 450.448L699.88 452.609L700.745 454.771L702.474 455.635L702.042 457.364L700.745 457.797H697.286L691.667 455.635L686.479 453.474L686.047 445.693L683.021 440.937L677.833 432.724L671.349 421.917L667.891 415L664 407.651L661.839 401.167L660.542 390.359L659.677 386.901L658.38 385.172H628.984L619.042 384.307L612.125 383.01L605.208 380.849L600.885 378.255L600.453 376.958H599.589L597.859 373.5V370.474L595.698 368.312L595.266 366.583L596.13 360.099L599.589 347.995L602.615 336.323Z" fill="#19313F"/>
<path d="M487.625 404.193L491.083 404.625L501.026 408.516L506.214 410.677L517.453 415L523.937 417.594L523.505 420.188L521.344 423.646L518.75 425.807L513.562 428.401L508.375 429.698L504.917 430.13H459.526L458.229 434.886L450.88 455.203L444.828 472.063L439.208 487.625L438.776 488.49L433.589 488.057L417.594 485.464L416.297 485.031L417.161 479.844L424.51 451.745L428.401 436.182L430.562 429.266L433.156 425.375H434.021L434.885 423.646L438.344 419.323L443.531 412.406L446.557 408.948L451.312 405.922L453.042 405.057L455.635 404.625L487.625 404.193Z" fill="#FCFDFD"/>
<path d="M523.937 331.135L528.26 332L533.88 334.161L538.635 336.755L542.958 340.213L546.416 344.536L548.146 347.995L550.739 356.64L551.172 360.531L547.281 361.828L537.771 364.854L530.854 367.015L531.286 371.771L534.312 385.604V389.062L533.015 392.088L504.916 389.927L501.026 389.495L498.864 387.765L495.406 386.036L493.677 385.604H486.76L483.734 386.901L480.708 388.63L482.437 379.984L485.896 364.854L487.625 357.505L482.869 357.073L481.573 361.828L480.708 363.557H479.411V360.531L481.573 352.75L485.031 345.833L488.922 341.078L491.948 338.917L497.567 336.755L506.646 332.864H507.51L508.375 338.052L509.239 341.078L510.968 341.943L512.265 342.375H517.885L521.343 340.646L523.505 337.187L523.937 331.135Z" fill="#146E72"/>
<path d="M296.552 349.724H297.417L296.552 353.615L293.094 363.99L290.933 373.5L290.068 379.12V386.901L291.365 391.656L293.959 397.708L298.282 405.057L303.469 411.974L307.36 416.729L312.547 422.781L312.979 424.078H313.844V424.943L315.141 425.375L318.167 428.833L323.354 434.453L337.188 448.287L344.104 454.339L346.698 452.61H347.995L351.453 465.146V467.74L345.834 472.927L341.078 476.818L334.162 482.438L328.974 485.896H327.245L327.677 483.302L332.865 476.386L333.729 474.656L328.542 466.443L324.219 463.417L317.302 458.229L311.25 453.474V452.61L309.521 451.745L305.631 448.719V447.854L303.901 446.99L296.985 440.505L292.662 436.615L289.636 433.589L286.61 430.13L283.151 426.24V425.375L281.854 424.943L278.396 420.62V419.755H277.532L271.912 411.974L268.021 405.922L267.589 404.193L268.453 399.438L270.183 393.386L273.209 387.333L275.802 382.578L276.667 380.417H277.532L278.396 377.823L285.313 366.583L287.042 363.125L289.203 359.667L290.068 359.235L290.933 357.073L292.229 355.344L293.526 352.75L295.688 351.453L296.552 349.724Z" fill="#447873"/>
<path d="M498 436.182H503.619V500.594H529.125L532.151 502.323L533.015 504.052V507.51L532.151 509.672L530.854 510.536L745.703 510.969V512.698H177.239V510.969L412.838 510.536L392.953 507.943L389.062 507.51L389.494 504.484L390.791 501.89L394.25 499.297L399.005 498.432L405.057 498L416.297 493.245L430.562 494.974L432.724 495.406V504.484L432.291 510.969L471.198 510.536L469.468 508.375L469.036 507.51V504.052L470.333 501.89L472.927 500.594H498V436.182Z" fill="#050307"/>
<path d="M482.869 357.073L487.625 357.505L486.76 362.693L483.302 378.687L481.14 388.198L485.031 385.604L486.76 385.172H493.677L498 386.901L500.593 388.63L501.026 389.062L520.911 390.792L533.015 391.656L533.88 389.062V385.604L530.422 369.609V367.015L533.88 365.719L543.39 362.693L547.713 361.828H549.01L549.875 364.854L550.739 372.203L551.604 376.958L552.901 385.172L554.198 392.953L555.062 396.411V408.515L552.901 412.406L551.172 413.271L549.875 415L546.416 415.432H541.661L536.041 413.703L527.396 410.677L526.531 413.703H525.666L526.531 410.245L521.776 408.948L498.864 401.167L494.541 402.463L491.083 403.328H486.328L478.547 400.302L474.224 398.573L472.927 389.495V380.849L473.791 379.12L475.088 376.958L475.953 373.5L476.817 373.068L477.682 369.177L479.411 365.286L480.276 364.422L482.869 357.073Z" fill="#FBE2CB"/>
<path d="M284.881 158.651H290.933L297.849 160.812L302.604 164.271L304.766 166.432L307.36 169.89L309.521 174.213L311.683 183.292L315.573 196.26V199.719L313.412 202.312L311.683 203.177H306.495L303.901 202.745L302.172 204.906L300.011 205.771H298.714V206.635H297.849L298.282 209.229L297.849 210.094H304.334L303.037 210.958L299.146 213.12L296.12 217.875L294.391 223.495L293.526 230.844L293.094 238.625L292.662 253.323L290.933 258.51V261.104L289.203 263.698H288.771V246.838L289.636 232.14L291.365 221.765L293.526 216.146L295.256 213.12L296.552 211.39L294.391 210.958L290.068 211.39L287.474 215.281L284.016 221.333L283.151 223.495L281.854 223.927L280.99 221.333L280.125 211.823L275.802 212.255L276.667 211.39L279.693 210.958V207.068L269.318 204.042L264.995 202.312L265.86 200.151L270.615 191.937L271.047 190.64H271.912L271.479 181.13L270.615 177.239V172.917L271.912 168.594L274.938 164.703L279.261 160.812L283.151 159.083L284.881 158.651Z" fill="#FBE2CB"/>
<path d="M647.141 347.562L649.734 347.995L650.167 348.859H648.005V351.021H689.505L692.099 353.182L695.557 359.234L700.312 371.339L705.068 386.901L708.094 397.276L714.578 423.214L716.74 432.292V434.885L715.875 435.75L716.307 438.344L718.901 441.802V442.667L720.63 443.531L721.495 445.26L723.224 446.125L724.089 448.719H721.062L720.63 448.286L715.875 447.854L721.495 449.151L728.411 448.719L732.734 450.88L733.167 452.609L730.573 453.906H724.089L715.875 451.745L709.391 450.88L707.229 449.583L706.797 449.151V446.125L707.229 444.828L708.526 444.396L711.12 445.693L710.687 445.26L709.391 444.396V443.531H708.526L708.094 436.182L705.932 434.021L702.906 429.698L697.719 421.917L693.396 415L688.641 407.651L682.589 383.875L679.13 373.5L676.969 367.88L673.943 362.693L671.781 360.964L666.161 358.802L656.219 356.641L648.005 355.344L632.875 353.615V353.182L644.115 351.021L646.276 349.724L647.141 347.562Z" fill="#132A37"/>
<path d="M418.89 349.724H423.646L458.229 354.047L466.875 355.344L469.036 357.505L470.765 368.745L473.359 389.495L474.224 397.708L472.927 399.005L470.765 398.141L467.739 396.844L463.849 395.547L462.119 394.682L457.797 393.818L450.015 391.656L446.125 390.36L439.208 388.198L438.343 387.766H432.291L428.401 389.495L426.239 390.792H425.375L424.51 392.953L423.213 394.682L421.052 390.792L418.458 372.636L416.297 357.938L415.864 353.615L417.161 351.021L418.89 349.724Z" fill="#00B67A"/>
<path d="M205.771 229.115L207.5 229.547L213.984 241.651L219.172 250.729L225.224 261.537L227.818 265.86L230.411 265.427L236.896 263.266L241.219 261.537H242.516L242.083 263.266L238.625 265.427L230.411 269.75L229.115 270.182L219.604 270.615L214.849 271.047H202.745L188.047 271.479H181.13L176.375 263.698L167.729 249L159.948 236.031V234.735H159.083L158.219 232.573L161.245 232.141L183.292 230.844L192.802 229.979L200.583 229.547L205.771 229.115Z" fill="#00B67A"/>
<path d="M294.39 210.526L296.984 210.958L295.687 213.12L292.661 219.172L290.932 226.088L290.067 232.14L289.203 246.838L288.771 263.698L286.609 264.562L276.666 265.427H262.833L261.968 261.969L261.536 258.943L257.646 256.349L257.213 258.943L249 262.401H247.271V261.536H246.406L245.974 259.807L254.619 256.349H255.916V255.484L253.755 255.052L247.271 251.594L244.677 249.864L245.109 246.838L248.567 238.625L251.161 231.276L253.323 226.088L255.484 222.63L255.916 221.333L258.078 219.172L261.536 216.146L264.13 214.417L267.588 213.12H269.75L270.614 211.823H273.208L274.073 212.255L275.802 211.823H280.125L280.989 216.146L281.422 221.333L282.286 223.495L283.151 223.062L284.448 220.036L288.771 212.255L290.067 210.958L294.39 210.526Z" fill="#146E72"/>
<path d="M597.427 306.062L601.318 306.495L603.912 307.359L612.125 307.792L613.422 309.089L613.854 311.25V316.87L614.287 317.302L616.016 334.594L617.313 335.891L619.042 336.755L635.037 340.214L636.333 328.974H638.063L642.386 338.052L644.547 340.214L645.844 341.078H653.625L657.083 344.104L660.542 344.969H662.271L664 342.807L665.297 341.51L670.917 332.865L673.943 328.109L674.375 327.677H705.5L705.068 329.406L695.557 344.104L691.235 350.589L690.802 351.021H648.005V348.859L649.735 348.427L645.412 347.13H643.25L642.818 347.563L625.958 348.859L613.854 348.427L608.667 347.13L605.641 343.24L603.479 338.052L602.182 332L601.75 331.568L601.318 328.109L600.021 325.083L599.156 319.031L598.724 318.167L597.427 308.224V306.062Z" fill="#F9B07C"/>
<path d="M304.333 209.662H307.359L311.25 211.391L313.843 213.12L316.869 216.578L318.166 217.875L319.896 221.766L321.625 230.412V242.083L320.76 249.432L317.734 262.401L315.14 268.021L313.843 271.047L309.521 269.75L304.333 266.724L294.39 261.969L291.797 260.672L291.364 257.646L292.229 253.323L292.661 238.625L293.526 226.521L294.823 220.037L297.416 214.849L299.146 212.688L303.036 210.526H304.333V209.662Z" fill="#146E72"/>
<path d="M613.422 241.651H619.042L621.203 242.515L625.958 242.083L626.823 242.948L631.578 244.677L633.739 248.135L635.036 250.729L637.63 253.755L638.495 256.781L638.062 261.536L637.198 264.562L635.901 276.667L634.172 282.286L632.01 285.312L627.687 284.448V278.828L628.12 278.396L632.01 277.531L633.739 274.937L635.901 267.588L635.469 265.427L634.604 263.698L633.307 256.349L631.578 254.187H630.713L627.255 259.375L623.797 262.833L619.906 264.562H615.151V269.75L615.583 271.047V275.37L613.854 281.854L613.422 282.719L606.505 283.583L600.021 285.312L596.13 287.906L594.833 290.068L593.104 295.255L592.239 299.578V302.172L594.833 303.901L596.562 304.765L596.995 306.062L597.859 313.411L599.156 320.328V322.489L596.995 320.328L592.672 314.708L587.484 307.792L585.323 303.036L584.026 299.146V290.932L585.755 287.042L589.213 283.151L594.833 279.693L596.995 277.963L599.588 274.937L600.885 270.182L601.75 260.239L603.479 253.755L605.64 248.568L608.667 244.677L610.828 242.948L613.422 241.651Z" fill="#0C1C25"/>
<path d="M527.396 410.677L531.286 411.542L539.5 414.568L546.417 415.432L545.12 420.188L542.094 430.563L540.365 436.615L539.068 438.344H538.203V439.208L536.906 439.641H504.484L504.917 437.912L504.052 437.479L503.62 436.615L498 436.182V438.776L497.568 439.641H456.5L457.365 435.75L459.526 430.13L504.917 429.698L510.969 428.833L517.453 426.24L520.911 423.646L523.073 420.188L525.234 414.136L526.531 413.271L527.396 410.677Z" fill="#F8CD4C"/>
<path d="M511.834 279.26L517.021 279.693L520.479 281.422L523.073 284.448L524.37 288.771L526.099 289.635L528.261 293.094V299.578L526.099 306.927L524.37 310.385H523.938L523.073 303.469L521.776 303.901L522.641 314.708V318.167L520.912 324.219L517.453 328.109L512.266 330.703L509.24 331.135H504.052L499.729 330.271L495.407 327.677L492.813 324.219L491.948 320.328L493.245 318.167L495.839 316.437L497.568 316.005H505.349L508.808 317.734L510.537 319.031L513.131 319.463L516.157 317.302L517.021 315.14L516.589 306.495V297.849L512.698 296.552L510.969 296.12H507.078L500.162 297.417L488.922 297.849L485.464 296.12L483.735 293.958L482.87 291.364V287.906L485.032 284.448L488.49 282.286L489.787 281.854H496.271L500.594 282.286L506.214 280.125L511.834 279.26Z" fill="#0C1C25"/>
<path d="M498 436.182H503.619V500.594H529.125L532.151 502.323L533.015 504.052V507.51L532.151 509.672L530.422 510.969L525.234 511.401L471.63 510.969L469.468 508.375L469.036 507.51V504.052L470.333 501.89L472.927 500.594H498V436.182Z" fill="#133549"/>
<path d="M284.88 158.651H290.932L297.849 160.812L302.604 164.271L304.765 166.432L307.359 169.89L309.521 174.213L311.682 183.292L315.573 196.26V199.719L313.411 202.312L311.682 203.177H306.494L303.901 202.745L302.172 204.906L298.281 206.203V197.989L298.713 184.156L299.146 180.698L294.39 179.833L290.5 177.672L287.041 174.646L284.448 170.323L284.015 172.052V176.807L276.234 178.969L272.776 180.265H271.479L270.614 177.239V172.917L271.911 168.594L274.937 164.703L279.26 160.812L283.151 159.083L284.88 158.651Z" fill="#0C1C25"/>
<path d="M526.964 330.271H563.708L567.167 332L568.464 333.729L568.896 337.188L566.734 345.833L564.573 352.75L561.115 364.854L558.521 373.5L556.359 381.281L553.766 389.495H553.333L551.604 380.417L550.74 373.5L549.875 368.745L549.01 361.828L546.849 362.261L547.281 361.396L550.74 360.531L549.875 354.912L546.849 345.833L543.823 341.943L541.661 339.349L535.609 335.458L530.854 333.297L526.531 331.568L526.964 330.271Z" fill="#F8CD4C"/>
<path d="M294.391 210.526L299.61 209.862L295.688 213.12L292.662 219.172L290.933 226.089L290.068 232.141L289.203 246.839L288.771 263.698L286.61 264.563L276.667 265.427H273.641L273.209 253.755L272.776 253.323V218.307L273.209 212.255L275.802 211.823L280.041 210.537L280.99 216.146L281.422 221.333L282.287 223.495L283.151 223.063L284.448 220.036L288.771 212.255L290.068 210.958L294.391 210.526Z" fill="#146E72"/>
<path d="M674.375 327.677H705.5L705.068 329.406L695.557 344.104L691.235 350.589L690.802 351.021H648.005V348.86L651.896 348.427H660.11L662.271 346.698L664.432 342.807L668.755 336.323L673.943 328.11L674.375 327.677Z" fill="#00B67A"/>
<path d="M355.776 453.042H359.234L363.125 454.771L367.448 456.932L379.984 459.094L382.578 460.39L387.333 464.281L392.953 468.604L393.818 469.036L392.953 470.765L389.927 475.521L386.469 480.708L384.307 483.734L382.146 482.437L373.5 475.521L368.312 471.63L361.828 466.443L356.208 462.12L350.156 457.364L351.021 455.635L354.047 453.474L355.776 453.042Z" fill="#081C27"/>
<path d="M416.297 493.245L430.562 494.974L432.724 495.406V504.484L432.292 511.401L415.432 510.969L400.302 508.807L389.062 507.51L389.495 504.484L390.792 501.89L394.25 499.297L399.005 498.432L405.057 498L416.297 493.245Z" fill="#081C27"/>
<path d="M602.615 336.323L603.479 336.755L605.208 341.078L606.938 344.536L607.37 345.833L608.667 346.265V347.13L613.854 347.995L626.391 348.427L637.198 347.562H639.792L639.359 349.292L633.307 352.318L625.958 354.911L619.474 358.802L614.719 361.828L610.396 364.422L605.208 367.448L600.021 369.609H596.563L595.266 366.583L596.13 360.099L599.589 347.995L602.615 336.323Z" fill="#146E72"/>
<path d="M507.078 295.688H510.968L515.724 297.417L516.588 297.849L517.453 315.141L516.156 317.734L513.13 319.896L510.104 319.031L506.646 316.87L505.349 316.438H497.567L494.109 317.302H492.38L491.948 314.276L491.083 300.443L491.948 297.417L500.161 296.984L507.078 295.688Z" fill="#FBE3CB"/>
<path d="M630.714 253.755L632.443 254.62L633.74 256.349L635.469 264.995L636.333 265.86L635.901 268.886L633.74 275.802L632.011 277.964L628.12 278.828L627.688 284.448L629.417 285.313H627.255L628.12 287.474L627.688 289.203L625.958 290.5L622.5 290.932L618.61 290.5L615.583 287.906L612.99 284.88V284.016L611.693 283.583V282.719H613.422L615.151 275.37V271.047L614.719 267.156L615.151 264.563L619.906 264.13L624.229 261.969L627.255 258.943L630.714 253.755Z" fill="#F9B483"/>
<path d="M608.667 282.719H611.693L612.989 293.958L614.286 302.172L614.719 306.927L613.422 307.792H603.911L599.588 306.495L596.562 306.063L596.13 304.766L592.672 303.036L591.807 302.172L592.239 297.417L593.969 290.932L595.265 288.339L598.292 285.745L600.885 284.448L608.667 282.719Z" fill="#146E72"/>
<path d="M641.521 300.01H641.953L644.547 309.953L645.844 316.87L648.005 325.083L649.734 329.838L650.599 331.568L652.328 332.864V333.729L654.489 334.594L661.406 338.052L664.432 339.349L665.297 340.213V342.375L663.135 344.104L662.271 345.401L659.677 344.969L656.651 344.104L653.625 341.51H645.844L642.818 339.349L638.927 332L637.198 327.677L637.63 323.354L638.927 314.276L637.63 302.604L640.656 301.307L641.521 300.01Z" fill="#F9B07C"/>
<path d="M346.698 452.609H347.995L351.453 465.146V467.74L345.834 472.927L341.078 476.818L334.162 482.438L328.974 485.896H327.245L327.677 483.302L332.865 476.385L333.729 474.656L328.542 466.443L329.407 464.714L338.052 458.661H338.917V457.797L342.808 455.635L346.698 452.609Z" fill="#081C27"/>
<path d="M231.708 485.896H248.568L248.135 488.49L243.812 500.162L240.786 501.026L222.198 502.755H213.984L212.688 502.323L213.12 500.594L217.443 498.865L223.927 496.703L224.359 496.271L225.224 486.328L231.708 485.896Z" fill="#081C27"/>
<path d="M498 400.734L502.755 402.031L523.073 408.948L526.531 410.245L525.667 414.135L524.37 417.594L521.344 417.161L516.156 415L501.458 409.38L496.703 407.219L488.49 404.193L486.328 403.76V403.328L493.677 402.464L498 400.734Z" fill="#146E72"/>
<path d="M522.208 319.463H523.505L523.938 327.677L524.802 329.838H523.938V337.187L521.776 340.646L519.182 342.375L517.885 342.807H512.266L509.24 341.078L507.51 336.323L507.078 332L509.24 330.703L513.563 329.838L517.885 327.245L520.479 324.219L522.208 319.463Z" fill="#F9E2CC"/>
<path d="M707.661 434.885L714.578 435.318L716.307 434.885V437.724L718.901 441.802L720.63 443.531L723.224 446.125L725.407 449.151L721.063 448.719L720.63 448.286L715.875 447.854L721.495 449.151L728.411 448.719L732.734 450.88L733.167 452.609L730.573 453.906H724.089L715.875 451.745L709.391 450.88L707.229 449.583L706.797 449.151V446.125L707.229 444.828L708.526 444.396L711.12 445.693L710.688 445.26L709.391 444.396V443.531H708.526L708.094 436.182L707.661 434.885Z" fill="#F9B17D"/>
<path d="M270.615 211.823H273.208V265.427H268.885L268.453 229.114L269.318 217.01L270.615 211.823Z" fill="#133549"/>
<path d="M479.843 506.213L522.64 506.646L523.937 509.239L525.234 510.969H476.817L478.979 507.943L479.843 506.213Z" fill="#E5E2EC"/>
<path d="M387.333 451.312L389.062 451.745L392.521 453.474L399.005 458.229L399.437 459.526L401.166 460.823V462.12L399.005 462.552L398.14 465.146H397.276L396.411 466.875L394.25 469.036L392.521 468.604L386.901 464.281L383.01 461.255L382.146 458.229L382.578 456.932L384.307 455.203L385.604 453.042L387.333 451.312Z" fill="#FBE3CC"/>
<path d="M613.854 315.573L615.151 317.302L618.609 323.786L622.068 328.542L622.5 329.838L628.552 332.864L635.469 335.026V340.646L623.364 338.052L619.042 337.187L616.015 335.458L615.583 334.594L613.854 317.302V315.573Z" fill="#146E72"/>
<path d="M300.442 210.094H304.333L303.036 210.958L299.146 213.12L296.119 217.875L294.39 223.495L293.526 230.844L293.093 238.625L292.661 253.323L290.932 258.51V261.104L289.203 263.698H288.771V246.839L289.635 232.141L291.364 221.766L293.526 216.146L296.119 212.688L298.713 210.526L300.442 210.094Z" fill="#133549"/>
<path d="M309.089 275.37L310.818 277.099L313.844 282.286L313.411 284.015L311.682 284.88L294.823 287.906L293.094 287.042V283.583L296.12 282.286L300.875 280.989L306.063 277.963L309.089 275.37Z" fill="#146E72"/>
<path d="M418.891 485.896H423.646L433.589 487.625L434.453 489.787L434.021 493.677L433.589 494.542L431.86 494.974L423.646 494.542L417.162 493.677L416.729 491.948L417.594 490.651L418.026 487.193L418.891 485.896Z" fill="#FBE2CB"/>
<path d="M683.885 442.234L685.182 442.667L687.776 446.125L690.802 446.557L691.667 447.422L692.531 446.557H695.125L696.854 450.016L699.88 452.609L700.745 454.771L702.474 455.635L702.042 457.365L700.745 457.797H697.286L691.667 455.635L686.479 453.474L686.047 445.693L683.885 442.234Z" fill="#F9B280"/>
<path d="M686.047 453.474L688.641 453.906L695.557 456.932L698.583 457.797H704.636L706.797 457.365L711.985 459.958L712.417 460.823L711.552 462.12L710.255 462.552H702.042L696.422 460.823L689.073 459.958L686.047 458.662L685.615 457.365V454.339L686.047 453.474Z" fill="#081C27"/>
<path d="M708.094 444.396L715.875 447.854L721.495 449.151L728.411 448.719L732.734 450.88L733.167 452.61L730.573 453.906H724.089L715.875 451.745L709.391 450.88L707.229 449.583L706.797 449.151V446.125L707.229 444.828L708.094 444.396Z" fill="#081C27"/>
<path d="M689.073 408.516L690.802 410.245L694.26 415.865L698.151 421.917L703.338 429.698L706.364 434.021L708.526 436.182L708.958 441.37L708.526 443.531H709.39L710.687 444.828L712.417 445.693L711.12 446.125L708.526 444.828V443.964L707.229 444.396V437.479L706.364 435.318L704.203 433.156L701.609 429.266L699.015 424.943L697.719 424.078L695.989 420.62L694.26 418.026L692.963 416.729L691.234 413.271L691.667 417.594L692.531 421.484L693.396 423.646L693.828 428.401L694.693 430.995L695.989 438.344L697.286 444.396L697.74 447.39L697.719 448.286L698.583 448.719L699.88 450.448L700.745 451.313L703.138 454.138L703.771 454.339L707.229 457.797H705.5L704.635 458.229H698.583V457.797L702.042 456.932V456.513L699.88 453.474L699.764 453.463L698.583 452.177L697.74 451.439L696.854 450.448L695.557 448.286V443.099L692.963 430.13L690.802 419.755L689.937 414.135L689.073 412.406V408.516Z" fill="#19313F"/>
<path d="M271.047 191.073L271.912 192.37L272.344 196.26L274.506 199.719L277.099 201.448L279.693 202.312L280.125 206.203L278.396 206.635L269.318 204.042L264.995 202.312L265.86 200.151L270.615 191.937L271.047 191.073Z" fill="#0C1C25"/>
<path d="M287.042 284.016L287.906 284.448V288.339L287.474 289.203L275.802 291.365H274.073L273.641 289.203L274.073 284.88L274.505 284.448L287.042 284.016Z" fill="#146E72"/>
<path d="M527.828 302.604L529.557 303.036L530.422 305.63L530.854 310.818L527.396 313.411L524.37 313.844L523.938 318.167H523.073V314.708H522.208L521.344 303.901L523.505 303.036L524.37 309.521L525.234 307.792L526.099 307.359L527.828 302.604Z" fill="#FCE3CB"/>
<path d="M636.766 328.542L638.063 328.974L642.385 338.052L646.276 341.943L644.979 342.807L640.656 342.375L636.333 341.51L635.469 338.917L635.901 332L636.333 328.974L636.766 328.542Z" fill="#FCF7F1"/>
<path d="M268.886 283.583L273.641 284.016L274.073 292.662V296.12L271.047 296.552L268.886 295.688V293.958H264.995V293.094L268.453 292.229L268.886 283.583Z" fill="#133549"/>
<path d="M596.995 306.062H597.427L598.724 313.844L599.156 318.167L600.021 321.625L600.886 326.813L601.75 328.109L602.182 331.568L603.047 334.161L602.615 338.052L600.886 344.969L596.563 360.099L595.698 367.016L596.563 369.177L598.292 370.474L597.86 371.771L595.266 369.609L594.833 368.745V363.557L596.13 357.073L598.292 348.859L599.589 345.401L601.75 336.755V333.729L599.589 328.974L598.724 320.328L596.995 311.25V306.062Z" fill="#146E72"/>
<path d="M289.636 283.583H292.662V287.906L299.578 286.61H303.037L301.308 287.474L294.391 288.771L292.662 289.636V292.662L291.797 294.391H288.771L288.339 290.5L287.907 290.068L285.745 289.636L287.474 288.771H288.339V284.016L289.636 283.583Z" fill="#133549"/>
<path d="M643.25 346.698L646.708 347.13L647.141 347.995L646.276 350.156L644.115 351.453L635.469 353.182H632.875L633.307 351.885L639.359 348.859L640.224 347.13H642.818L643.25 346.698Z" fill="#146E72"/>
<path d="M264.562 283.583H268.453L268.885 284.016V292.229L265.859 293.094V292.229H264.562V283.583Z" fill="#146E72"/>
<path d="M302.604 183.724H305.198L306.494 184.589L306.927 187.182L306.062 189.344L304.333 190.208H300.875L300.442 187.615L301.307 184.589L302.604 183.724Z" fill="#F5E4D6"/>
<path d="M318.166 217.875L319.463 219.172L321.625 225.656L322.057 228.682V243.38L321.192 251.594L320.328 253.755L319.463 258.51L317.302 264.995L315.14 269.75L314.708 268.021L317.302 262.401L319.031 255.484L320.76 246.839L321.192 242.083V230.411L319.463 221.766L318.166 219.172V217.875Z" fill="#146E72"/>
<path d="M507.943 429.266L508.807 430.13L507.078 430.995H460.823L459.958 431.427L458.229 437.479H457.365L456.932 439.208L456.5 438.344L459.526 430.13L504.917 429.698L507.943 429.266Z" fill="#F8CD4C"/>
<path d="M617.745 274.938L622.932 277.099L626.39 277.964L628.12 278.828L627.687 282.719L625.958 281.422L622.5 280.99V280.125L620.771 279.26L618.609 276.667V275.802H617.745V274.938Z" fill="#F6AA5C"/>
<path d="M708.094 397.708L709.391 399.005L711.984 410.245L712.849 412.406L713.714 416.297L715.01 421.917L717.604 432.724L716.74 434.021L712.417 416.297L708.094 399.005V397.708Z" fill="#19313F"/>
<path d="M650.167 348.427H658.813L660.974 348.86L660.542 350.589L659.677 351.021H648.005V348.86L650.167 348.427Z" fill="#00B67A"/>
<path d="M596.995 306.062H597.427L598.724 313.844L599.156 318.167L600.021 321.625L600.885 326.813L601.75 328.109L602.182 331.568L602.614 332V334.161L601.75 333.729L599.588 328.974L598.724 320.328L596.995 311.25V306.062Z" fill="#F9B07C"/>
<path d="M689.073 408.516L690.802 410.245L694.26 415.865L697.286 420.62L696.854 421.484L695.125 419.323L692.963 416.729L691.234 413.271L690.802 415.432L689.937 414.135L689.073 412.406V408.516Z" fill="#19313F"/>
<path d="M632.443 285.312L635.901 285.745L637.198 286.609V287.474H638.063L641.521 293.094L643.682 297.849L643.25 300.443L642.818 301.307L643.25 304.333L642.386 303.469L641.953 300.443L642.386 300.01V296.984L637.198 288.339L635.901 287.042L632.443 285.745V285.312Z" fill="#146E72"/>
<path d="M651.896 384.74H658.38L659.677 386.037L659.245 387.333L657.083 385.604H629.417V385.172L651.896 384.74Z" fill="#19313F"/>
<path d="M671.349 421.917L672.646 423.213L679.995 435.75L681.292 437.479L680.86 438.344L677.833 434.453L677.401 432.292H676.537L673.943 427.536L671.349 423.213V421.917Z" fill="#19313F"/>
<path d="M664 342.807V344.104L661.839 347.562L660.974 347.995L657.948 347.562L657.516 344.969L659.677 344.536L662.271 344.969L664 342.807Z" fill="#F7E8D9"/>
<path d="M597.427 354.479L597.86 355.776L596.563 360.099L595.698 367.015L596.563 369.177L598.292 370.474L597.86 371.771L595.266 369.609L594.833 368.745V363.557L596.13 357.073L596.995 354.911L597.427 354.479Z" fill="#146E72"/>
<path d="M683.885 442.234L685.182 442.667L687.344 445.693L687.776 446.99V451.313L687.344 453.042L689.937 453.906L688.64 454.339L686.479 453.474L686.047 445.693L683.885 442.234Z" fill="#F9B280"/>
<path d="M255.484 221.333L255.917 222.63L252.458 228.682L250.297 235.167L249 236.896L249.432 234.735L251.161 229.115L254.187 223.063L255.484 221.333Z" fill="#146E72"/>
<path d="M635.901 338.917L636.333 340.646L643.25 341.51V339.781L645.411 340.646L646.276 341.943L644.979 342.807L640.656 342.375L636.333 341.51L635.901 341.078V338.917Z" fill="#FDE3CA"/>
<path d="M686.047 337.62L688.208 338.052L687.776 340.213L686.912 341.078H684.75L684.318 339.349L686.047 337.62Z" fill="#F2D0A1"/>
<path d="M307.792 209.229L312.115 210.958L315.573 213.552V214.417H316.438L318.167 217.01L317.734 217.875L315.141 214.849L312.547 212.687L309.521 210.958L307.359 210.094L307.792 209.229Z" fill="#146E72"/>
<path d="M646.276 318.599L647.14 320.328L648.005 322.922H648.437L649.302 327.245L651.463 331.136V332L650.167 331.568L648.005 326.38L646.276 320.761V318.599Z" fill="#FDE3CA"/>
<path d="M635.036 265.427L636.333 265.86L635.901 268.886L633.74 275.802L632.875 276.235L633.307 273.208L634.172 271.912L635.036 268.021V265.427Z" fill="#F9B483"/>
<path d="M523.073 303.037H523.505L523.937 305.198V308.656L523.073 308.224V304.333L522.641 306.063L522.208 310.386H521.776L521.344 303.901L523.073 303.037Z" fill="#FBE3CB"/>
<path d="M459.526 430.13L460.391 430.563L459.094 434.453L458.229 437.479H457.365L456.932 439.208L456.5 438.344L459.526 430.13Z" fill="#F8CD4C"/>
<path d="M550.307 354.912L551.604 356.641L552.036 360.964L551.172 361.828H549.875V360.964L550.74 360.531L550.307 354.912Z" fill="#F8CD4C"/>
<path d="M715.443 447.422L720.63 447.854L723.224 448.719V449.151H719.333L715.443 447.854V447.422Z" fill="#F9B17D"/>
<path d="M270.182 211.823L270.614 212.687L269.75 213.552L266.724 213.984L264.13 214.417L265.427 213.12L270.182 211.823Z" fill="#146E72"/>
<path d="M523.938 408.948L526.964 409.38L527.396 411.542L526.531 413.703H525.667L526.531 410.245L523.938 409.38V408.948Z" fill="#E7E5E9"/>
<path d="M541.661 338.917L543.39 339.781V340.646H544.687V341.943H545.552L546.849 344.536L545.552 344.104L541.661 339.349V338.917Z" fill="#F8CD4C"/>
<path d="M534.312 386.469H534.745L535.177 391.656L533.016 392.089L534.312 386.469Z" fill="#F8CD4C"/>
<path d="M280.557 290.068H283.583V290.5L278.828 291.797H276.234L277.964 290.5L280.557 290.068Z" fill="#14415E"/>
<path d="M594.833 367.016H595.698L596.563 369.177L598.292 370.474L597.86 371.771L595.266 369.609L594.833 367.016Z" fill="#146E72"/>
<path d="M548.146 347.995L549.443 349.292L550.307 352.75L549.875 354.479L548.146 349.724V347.995Z" fill="#F8CD4C"/>
</svg>
