<svg fill="none" xmlns="http://www.w3.org/2000/svg" viewBox="0 0 208 90"><path d="M43.49 89.4c-12.22-.56-22.4-4.9-30.4-13.03C4.34 67.62 0 57.14 0 44.85s4.53-23.33 13.65-32.14C22.27 4.4 32.57.24 44.61.24h32.64c0 3.41-1.24 6.39-3.66 8.81-2.42 2.42-5.4 3.66-8.81 3.66H45.73c-8.87 0-16.44 3.16-22.71 9.43s-9.37 13.84-9.37 22.71c0 9.74 3.66 17.81 11.04 24.2 5.71 4.53 12.28 6.76 19.67 6.76 8.87 0 16.44-3.16 22.71-9.43 6.02-5.96 9.12-13.46 9.43-22.46v-.25H42.75c0-3.47 1.24-6.45 3.66-8.87 2.42-2.42 5.4-3.66 8.81-3.66h33.75v13.71c0 12.41-4.34 22.89-13.03 31.52-8.44 8.38-18.92 12.78-31.46 13.09l-.99-.06Z" fill="#38B773"/><path d="M208 73.06v4.21c0 .61-.04 1.19-.12 1.77-.36 2.68-1.56 5.06-3.55 7.05-2.41 2.42-5.4 3.66-8.87 3.66v-4.23c0-3.41 1.24-6.39 3.66-8.81 2.48-2.41 5.47-3.65 8.87-3.65h.01Z" fill="#E38F48"/><path d="M189.47.54v89.21c-3.48 0-6.46-1.24-8.87-3.66-2.42-2.41-3.66-5.4-3.66-8.8V33.42l-26.99 43.87c-.92 1.43-2.05 2.67-3.35 3.59-2.05 1.43-4.28 2.24-6.77 2.36-2.48-.13-4.78-.94-6.82-2.36-1.3-.92-2.36-2.17-3.29-3.59l-27.05-43.24-6.59-11.1A41.969 41.969 0 0 1 90.2 1.52V.54c3.42 0 6.39 1.24 8.81 3.65a12.455 12.455 0 0 1 2.54 3.66l.07-.06 38.22 62.05L178 7.79l.13.06c.62-1.37 1.43-2.61 2.48-3.66 2.41-2.41 5.4-3.65 8.87-3.65h-.01Z" fill="#38B773"/></svg>