<?xml version="1.0" encoding="UTF-8"?>
<svg version="1.1" viewBox="0 0 2048 1159" width="664" height="376" xmlns="http://www.w3.org/2000/svg">
<path transform="translate(698,48)" d="m0 0h31l43 2 30 3 37 6 38 9 27 8 29 11 24 11 23 12 17 10 12 8 14 10 16 13 11 9 17 16 11 10 14 11 15 11 22 13 19 10 29 12 30 10 36 9 46 9 54 8 57 8 45 8 39 9 35 11 24 10 17 8 22 13 19 14 13 11 18 18 10 13 13 21 11 23 7 19 7 26 6 31 3 24 1 15v58l-2 27-3 25-6 39-7 35-11 43-12 36-11 28-3 6v9l10 35v11l-5 7-7 3-24 2h-5l2 13v11l-2 12-5 12-9 12-9 8-15 8 7 1 97 1 1 1 1 24v28l-1 1-78 1h-1497l-1-1v-53l2-1 70-1-5-10-2-11-3-5-13-10-10-10-11-9-10-8-10-9-12-14-7-8-12-15-11-19-8-16-4-5-2-9-6-12-3-5-4-11-2-12v-49l3-12 8-16 7-12 9-10 5-5 3-6 10-8 8-6 9-9 16-10 21-6 9-1 10-4 12-4 26-8 26-7 8-2 11-4 7-1 7-3 12-2 12-1 10-2 23-2 22-4 19-3 15-1 7-2h30l1-28 3-19 5-18 6-10 9-9 14-11 14-10 20-12 29-15 4-2 1-2-5-2-16-15-28-24-10-8-18-14-17-13-15-12-13-10-16-13-14-11-10-9-11-9-15-14-8-7-18-18-7-8-12-15-11-18-7-15-3-10-1-8v-12l2-10 5-12 8-11 7-8 11-9 10-7 16-9 14-7 28-11 34-12 45-14 47-13 42-10 46-9 32-5 34-4 42-3z" fill="#17BC9A"/>
<path transform="translate(698,48)" d="m0 0h31l43 2 30 3 37 6 38 9 27 8 29 11 24 11 23 12 17 10 12 8 14 10 16 13 11 9 17 16 11 10 14 11 15 11 22 13 19 10 29 12 30 10 36 9 46 9 54 8 57 8 45 8 39 9 35 11 24 10 17 8 22 13 19 14 13 11 18 18 10 13 13 21 11 23 7 19 7 26 6 31 3 24 1 15v58l-2 27-3 25-6 39-7 35-11 43-12 36-11 28-3 6-3-1-4-11-12-39-8-24-6-7-6-2h-36l-1-1v-10l7-79 10-114 8-91 4-48v-13l-6-8-7-5-3-1h-761l-9 4-7 6-4 8-4 40-6 68-1 7h-3l-3-5-10-13-9-10-11-9-11-7-30-13-15-7v12l-5 23-7 19-5 11-4 8-2 5h-3l-9-11-13-11-9-5-7 1-19 9-17 11-13 11-7 8h-3l-12-17-9-17-7-18-4-19v-27l1-4-16 3h-3v2l-9 3h-3v-2l-5-2-16-15-28-24-10-8-18-14-17-13-15-12-13-10-16-13-14-11-10-9-11-9-15-14-8-7-18-18-7-8-12-15-11-18-7-15-3-10-1-8v-12l2-10 5-12 8-11 7-8 11-9 10-7 16-9 14-7 28-11 34-12 45-14 47-13 42-10 46-9 32-5 34-4 42-3z" fill="#D6EFED"/>
<path transform="translate(367,604)" d="m0 0h30l2 91 3 93 1 72 5 14 8 14 2 3-1 24-2 28 41 1 1 1v5l-4 6-2 9v14l4 15 2 4v3l163 1-1-20 1-8 84-1 4-4 6-14 4-14 2-9 39-1 2-61 4 1 5 3 22 12 60 30 8 3 9 4 10 5 9 4 24 10 11 5 13 5 8 4 13 5 16 6 10 5 3 1h36l3-3 8-16 6-20v-6l-12-9-17-12-20-14-66-44-13-8-1-2h218l1 1v140l-1 1h-133l-1 22 62-1 295-1 1-19-104-1-1-3v-100l1-40h103l118 1 1 5-12 37-6 21v10l3 5 6 5 6 2h127l10 2 2 12v11l-2 12-5 12-9 12-9 8-15 8 7 1 97 1 1 1 1 24v28l-1 1-78 1h-1497l-1-1v-53l2-1 70-1-5-10-2-11-3-5-13-10-10-10-11-9-10-8-10-9-12-14-7-8-12-15-11-19-8-16-4-5-2-9-6-12-3-5-4-11-2-12v-49l3-12 8-16 7-12 9-10 5-5 3-6 10-8 8-6 9-9 16-10 21-6 9-1 10-4 12-4 26-8 26-7 8-2 11-4 7-1 7-3 12-2 12-1 10-2 23-2 22-4 19-3 15-1z" fill="#FACB51"/>
<path transform="translate(528,462)" d="m0 0h6v31l5 22 9 21 8 14 9 12v2l5-3 8-9 14-11 19-11 15-7 7 1 11 7 13 12 6 8 2-1 3-7 6-15 4-9 5-15 4-19 1-12 6 2 25 11 18 8 12 9 10 9 7 8 10 13 4 7-4 47-14 160-6 63v12l4 8 8 6 6 2 135 1 20 12 43 29 24 16 18 13 19 13 7 6-1 10-6 18-8 16-3 2h-36l-12-5-11-5-14-5-8-4-16-6-8-4-7-3-15-6-13-6-11-5-10-4-5-3-10-4-24-12-17-8-19-10-16-9-5-3-4-2v35l-1 20-1 6-3 1h-36l-2 13-6 18-6 10-2 1h-84v28h-160l-3-1-5-13-2-9v-14l2-9 4-6v-5l-35-1-6-1v-18l2-31-1-5-8-13-4-9-2-7-1-72-3-93-1-47v-48l1-24 3-19 5-18 6-10 9-9 14-11 14-10 20-12 29-15 11-4 6-1v-2l6-2z" fill="#084061"/>
<path transform="translate(367,604)" d="m0 0h30l2 91 3 93 1 72 5 14 8 14 2 3-1 24-2 28-37 1-139 1-66 1-5 5-3 9-1 4v21l3 10 5 7h-5l-5-10-2-11-3-5-13-10-10-10-11-9-10-8-10-9-12-14-7-8-12-15-11-19-8-16-4-5-2-9-6-12-3-5-4-11-2-12v-49l3-12 8-16 7-12 9-10 5-5 3-6 10-8 8-6 9-9 16-10 21-6 9-1 10-4 12-4 26-8 26-7 8-2 11-4 7-1 7-3 12-2 12-1 10-2 23-2 22-4 19-3 15-1z" fill="#D6EFED"/>
<path transform="translate(1163,589)" d="m0 0h67l9 2 7 6 1 2 1 27v355h97l7 1v20l-296 1h-62v-22l4-1h130l1-380 5-7 6-3z" fill="#096D72"/>
<path transform="translate(910,839)" d="m0 0h218l1 1v140l-1 1h-133l-1 22-242 1-132-1-1-21 1-8 84-1 4-4 6-14 4-14 2-9 39-1 2-61 4 1 5 3 22 12 60 30 8 3 9 4 10 5 9 4 24 10 11 5 13 5 8 4 13 5 16 6 10 5 3 1h36l3-3 8-16 6-20v-6l-12-9-17-12-20-14-66-44-13-8z" fill="#FBFCFC"/>
<path transform="translate(378,943)" d="m0 0h43l35 1 1 1v5l-4 6-2 9v14l4 15 2 4v3l163 1v1l-76 1v53l-290 1h-158l-1-1v-53l2-1 71-1 3-1-5-6-3-10v-21l3-11 4-6 3-2 66-1z" fill="#FAA511"/>
<path transform="translate(1248,838)" d="m0 0h103l118 1 1 5-12 37-6 21v10l3 5 6 5 6 2h26l-1 9-1 6v9l3 15 6 14 10 11 10 7 12 6-1 2h-179l-1-2 1-19-104-1-1-3v-100z" fill="#D7EFED"/>
<path transform="translate(588,185)" d="m0 0 13 3 11 6 3 3 4-1 5-4 10-5h2l-1 4-3 5 19-4 9-1h18l18 3 10 3 16 8 10 7 10 9 9 10 8 14 6 15 1 5v18l-4 7-3 2h-22l-26-2h-29l-16 3-10 5-5 6-2 5v42l-1 8-4 3-5 1-4-3-7-21-7-11-7-5h-8l-8 4-4 5-2 5v7l4 11 7 12 5 7v9l-9 11-11 8-6 2-9-1-7-4-4-6-5-5-4-6v-3h-2l-2-5-7-14-5-15-4-21-2-22v-15l2-19 5-22 6-14 9-13h2l1-3 13-9 13-5 11-2h7l-7-9-5-3z" fill="#611A16"/>
<path transform="translate(682,289)" d="m0 0h29l42 3v11l-1 13v4l5 3 7 8 2 6v17l-6 11-9 7-5 1 1 6-2 19-5 22-5 12-7 10-8 7-10 4-15 3-20 2-3 9-9 20-8 13-12 14-8 6-2 1h-6l-13-12-12-11-16-15-18-20-7-10v-9l11-36 2-4h-2l1-2 9 1 8-3 10-8 7-9v-9l-10-15-5-11-1-4v-7l4-8 8-6 3-1h8l8 6 7 11 7 21 4 2 7-3 1-8v-42l4-8 7-6 10-4z" fill="#F5C8A7"/>
<path transform="translate(1582,410)" d="m0 0 5 5 2 3v13l-4 48-8 91-12 137-5 56v10h36l7 3 6 7 9 27 13 43 3 5 2 13 8 27 1 4v11l-5 7-7 3-24 2-7 1-8-1h-127l-9-4-6-6-1-3v-10l12-40 6-18v-4l-118-1v-1h176l11-2 8-5 6-9 2-8 3-31v-15l7-82 10-108 8-93 5-58-1-10-4-5z" fill="#3CD6B9"/>
<path transform="translate(526,647)" d="m0 0 3 1 4 25 6 21 9 26 11 24 9 16 11 16 13 16 16 16 13 10 18 11 17 8 18 6 21 5 15 2 14 1h34l2 1 1 16-1 21-1 42h-39l-2-7-8-5-26-14-23-11-15-8-23-11-36-17-36-16-29-12-11-5-4-2v-12l6-52 5-43 4-33 3-20z" fill="#062A3D"/>
<path transform="translate(910,839)" d="m0 0h218l1 1v94l-15-4-11-2h-21l-40 5-2 2-1-7-12-9-17-12-20-14-66-44-13-8z" fill="#D6EFED"/>
<path transform="translate(320,838)" d="m0 0 38 1 7 2 5 4-1 14-4 38-5 33-3 13h-114l-4-3-6-40-5-41v-13l5-5 3-1 29-1z" fill="#FCFCFC"/>
<path transform="translate(419,894)" d="m0 0 26 13 28 11 35 12 49 15 53 15 9 4 5 3 1 4h2v2h-7v29h-160l-3-1-5-13-2-9v-14l2-9 4-6v-5l-35-1-6-1v-18l2-14 1-16z" fill="#062A3D"/>
<path transform="translate(419,953)" d="m0 0h34l-2 12v14l2 9v6l-36 1-200-1-43-1-1-1-1-7v-24l2-6 67-1z" fill="#FCFCFC"/>
<path transform="translate(761,870)" d="m0 0 4 1 5 3 22 12 60 30 8 3 9 4 10 5 9 4 24 10 11 5 13 5 8 4 13 5 16 6 1 4v2l-2 1h-156v-1l32-1-8-8-10-8-16-11-17-9-13-3-24-1-1-1z" fill="#D6EFED"/>
<path transform="translate(298,734)" d="m0 0 4 1 10 9 7 8 8 14 3 10 11-3 1 4-5 15-2 7 10-7 7-3 4 1-4 13-3 10 13-10 5-1v7l-5 20-1 10h-122l-1-1-1-14-5-16v-5l6 1 8 6 3 2-2-10-3-9v-4l6 1 9 5v2h2l4 4-6-21-1-7 5 1 6 2 4-12 6-10 8-10 7-7z" fill="#3BD5B8"/>
<path transform="translate(552,450)" d="m0 0h7l1 3h2l9 12 9 10 15 16 8 7 7 7 8 7 9 8h6l6-4 7-6 11-14 9-17 6-15 1-5h5l7 7 2 3 1 16-5 23-7 19-5 11-4 8-2 5h-3l-9-11-13-11-9-5-7 1-19 9-17 11-13 11-7 8h-3l-12-17-9-17-7-18-3-21v-21l3-12 5-4z" fill="#FBFBFA"/>
<path transform="translate(1247,978)" d="m0 0 1 3h97l7 1v20l-296 1h-62v-22l4-1h131l118 1z" fill="#099882"/>
<path transform="translate(808,404)" d="m0 0h9l-2 3-6 7-4 9-1 3-2 17-1 16-2 10v19l-2 10v19l1 2-1 18-2 6v17l-1 15-1 9-2 26-4 41-2 27-2 23-1 15-2 16-1 17-1 6-4 46v24l4 6 6 5 2 1 123 1v1h-135l-9-4-6-5-4-8v-12l8-86 14-159 2-25-1-3h2l1-20 8-88 2-9 5-8 7-6z" fill="#099682"/>
<path transform="translate(756,931)" d="m0 0 28 1 13 3 19 10 15 11 13 11 5 6-33 1h-111l7-14 5-15 3-13z" fill="#F5C8AA"/>
<path transform="translate(1082,927)" d="m0 0h21l19 4 7 3v41l-107-1 5-8 6-12 6-20 3-2z" fill="#F4C8AA"/>
<path transform="translate(704,973)" d="m0 0h67l-2 2h-12v27h236v-11h1v12l-242 1-132-1-1-21 1-8z" fill="#E4E1DD"/>
<path transform="translate(378,943)" d="m0 0h43l35 1 1 1v5l-4 4h-34l-178 1-67 1-1 5v24l1 7 43 1v1l-41 1-3 1v7h-5l3-2-5-6-3-10v-21l3-11 4-6 3-2 66-1z" fill="#FACB51"/>
<path transform="translate(1184,630)" d="m0 0 13 1 12 6 6 7 4 9 1 5v7l-3 10-7 10-9 6-7 2h-12l-10-4-7-5-6-10-2-5v-16l4-8 6-7 10-6z" fill="#17BC9A"/>
<path transform="translate(1567,924)" d="m0 0h27l10 2 2 12v11l-2 12-5 12-9 12-9 8-13 7-11 2h-20l-2-1 2-4 10-7 7-6 7-10 5-11 2-7v-22z" fill="#FAA512"/>
<path transform="translate(298,734)" d="m0 0 4 1 10 9 7 8 8 14 3 12-10 8-7 8-10 19-3 7-2-2-6-15-7-12-8-8-6-5 2-14 6-10 8-10 7-7z" fill="#17BC9A"/>
<path transform="translate(687,323)" d="m0 0 12 2 6 4 6 7 3 8v11l-4 10-9 8-10 3-11-1-8-4-7-8-3-8v-10l4-9 7-8 9-4z" fill="#F5C7A4"/>
<path transform="translate(995,980)" d="m0 0 87 1v21l-26 1h-62v-22z" fill="#0A6C71"/>
<path transform="translate(337,780)" d="m0 0 1 4-2 12-1 3 10-7 7-3 4 1-4 13-3 10 13-10 5-1v7l-5 20-1 10h-39l-7-1 4-18 5-17 5-12 7-10z" fill="#3BD5B8"/>
<path transform="translate(419,953)" d="m0 0h34l-2 12v14l2 9v6h-34l-1-39-86 1-157 1-1 11h-2v-7l2-6 67-1z" fill="#E5DFD8"/>
<path transform="translate(437,944)" d="m0 0h19l1 1v5l-4 4h-35l-168-1 1-4 8-2 110-2h45z" fill="#FAA511"/>
<path transform="translate(742,324)" d="m0 0h7l6 4 4 5 2 6v12l-3 8-6 7-4 2h-9l-7-4-5-10v-13l4-9 5-5z" fill="#F5C7A4"/>
<path transform="translate(682,319)" d="m0 0h13l9 3 10 9 4 8 1 4v13l-5 12-9 8-10 4h-14l-9-3-9-8-5-10-1-4v-9l3-10 6-8 8-6zm5 4-10 3-6 4-5 6-4 9v10l4 10 7 7 7 3 11 1 10-3 9-8 4-10v-11l-4-10-7-7-7-3z" fill="#072F46"/>
<path transform="translate(742,319)" d="m0 0h7l7 3 8 9 2 6v17l-6 11-9 7-3 1h-10l-6-3-7-8-3-7v-14l4-11 5-6 7-4zm0 5-8 4-5 7-2 6v13l5 10 7 4h9l6-4 6-9 1-4v-12l-3-8-7-6-2-1z" fill="#063147"/>
<path transform="translate(1634,872)" d="m0 0 3 2 8 28v11l-5 7-7 3-8 1h-18l-2-2 6-4 9-2h7l3-3v-9l3-6 1-9-1-6v-9z" fill="#19BD9B"/>
<path transform="translate(337,780)" d="m0 0 1 4-1 8h-2l-2 16-3 18v11l-1 1h-14l4-18 5-17 5-12 7-10z" fill="#17BC9A"/>
<path transform="translate(352,789)" d="m0 0 4 1-2 8-1-4-1 1-7 11-5 13-3 17-1 2h10v1h-24v-1l7-1v-11l3-20 1-10 3-4-1 7 10-7z" fill="#3CD6B9"/>
<path transform="translate(750,326)" d="m0 0 4 1 5 6 2 6v12l-3 8-6 7-5 1v-25z" fill="#CFEDE9"/>
<path transform="translate(172,979)" d="m0 0 2 4 1 7 1 1 166 1 70 1v1h-195l-43-1-1-1z" fill="#E9D9CD"/>
<path transform="translate(353,791)" d="m0 0 1 3-3 12-1 3h-2l-1 21v8h-11l3-19 6-15 6-9z" fill="#17BC9A"/>
<path transform="translate(1505,984)" d="m0 0 8 6 9 6 10 5-1 2h-179v-1l150-1 14-1v-4l-11-10z" fill="#E6DED7"/>
<path transform="translate(1283,605)" d="m0 0h5l-2 27-2 22-1 1h-5l1-18 3-31z" fill="#085368"/>
<path transform="translate(275,808)" d="m0 0 3 2 3 12-4 1v-2l-3 1 1 5h2l2 4 5 2 1 4-2 1h-11l-2-2-2-19v-8h4z" fill="#17BC9A"/>
<path transform="translate(233,942)" d="m0 0 145 1v1l-139 1-66 1-5 5-3 4v-5l5-6z" fill="#EAD7CA"/>
<path transform="translate(1046,605)" d="m0 0h5l-1 16-4 34h-5l2-30 2-19z" fill="#085066"/>
<path transform="translate(1088,605)" d="m0 0h5l-1 20-3 29-1 1h-5l1-17z" fill="#085267"/>
<path transform="translate(1303,606)" d="m0 0h6l-1 18-3 30-1 1h-5z" fill="#085167"/>
<path transform="translate(1389,605)" d="m0 0h4v17l-3 31-2 2h-4l2-26 2-23z" fill="#084E63"/>
<path transform="translate(1025,605)" d="m0 0h4v12l-4 37-5 1 2-32 2-17z" fill="#084E65"/>
<path transform="translate(1346,605)" d="m0 0h6l-2 24-3 25h-5l1-20z" fill="#085064"/>
<path transform="translate(1066,606)" d="m0 0h5v17l-3 31h-5v-14z" fill="#084F67"/>
<path transform="translate(1324,606)" d="m0 0h6l-1 20-3 28h-5v-11z" fill="#084E64"/>
<path transform="translate(982,605)" d="m0 0h5l-1 18-2 13-2 18h-5l2-25z" fill="#085669"/>
<path transform="translate(1368,605)" d="m0 0h4v12l-3 31-2 7h-4l2-28 2-21z" fill="#085164"/>
<path transform="translate(1410,606)" d="m0 0h5l-2 29-2 19h-5v-13l3-30z" fill="#084F63"/>
<path transform="translate(1e3 605)" d="m0 0h5l-2 31-2 18h-5l2-32z" fill="#085368"/>
<path transform="translate(939,606)" d="m0 0h5v10l-2 14-2 25h-5l1-21z" fill="#084B61"/>
<path transform="translate(961,605)" d="m0 0h4l-1 24-3 25h-5l2-26 2-22z" fill="#085568"/>
<path transform="translate(1431,606)" d="m0 0h4v20l-3 28h-5l2-32 1-15z" fill="#084F64"/>
<path transform="translate(131,655)" d="m0 0h5l-12 6-5 1-14 7-9 6-10 8-8 6h-2v2l-7 2 5-5 10-7 10-10 16-10 14-4z" fill="#FBFCFC"/>
<path transform="translate(296,615)" d="m0 0h7l-3 2-26 4-13 1-20 5-12 2-5 1v-2l9-3 7-1 7-3 12-2 12-1 10-2z" fill="#FAFCFC"/>
<path transform="translate(172,956)" d="m0 0h1v29l1 7 1 2-7-2-2-7 1-8 3-18z" fill="#FBA511"/>
<path transform="translate(129,950)" d="m0 0 9 6 11 9 9 5h4v11l-5-5-13-10-10-10-5-4z" fill="#FDFDFD"/>
<path transform="translate(444,953)" d="m0 0h9l-2 12-1 17-2-3v-21h-5l-2 2v-2l-6-1 3-3z" fill="#E0EBE4"/>
<path transform="translate(378,943)" d="m0 0h43l16 1v1l-23 1h-16l-22-1z" fill="#FAC94E"/>
<path transform="translate(363,810)" d="m0 0h1l-1 9-2 9-1 10h-7l3-12 5-14z" fill="#17BC9A"/>
<path transform="translate(769,522)" d="m0 0h11v15h-3l-3-5-5-7z" fill="#EEF9F7"/>
<path transform="translate(263,785)" d="m0 0h2l7 10 3 10-3-2v-2h-2l-1 5-2-2-4-14z" fill="#17BC9A"/>
<path transform="translate(1505,984)" d="m0 0 8 6 9 6 5 2 2 4h-27v-1l14-1v-4l-11-10z" fill="#E6DED8"/>
<path transform="translate(170,944)" d="m0 0h69v1l-66 1-5 5-3 4v-5z" fill="#F5C9AB"/>
<path transform="translate(1430,627)" d="m0 0h1l1 9 1 1v11l-1 6h-5l2-22z" fill="#073E57"/>
<path transform="translate(162,966)" d="m0 0h1l1 19 3 10 5 7h-5l-5-10-2-10 1-1z" fill="#F7F0EB"/>
<path transform="translate(256,825)" d="m0 0 3 1 5 9v2h-8l-1-2v-9z" fill="#17BC9A"/>
<path transform="translate(1352,988)" d="m0 0 1 2h2l2 4v7l-5 1-1-1v-8z" fill="#F7FBFB"/>
<path transform="translate(339,608)" d="m0 0h4v2l-19 4h-7v-2l9-2z" fill="#F8FBFA"/>
<path transform="translate(961,605)" d="m0 0h4v9l-1 2-1 10h-1l-1-5z" fill="#062F44"/>
<path transform="translate(1527,999)" d="m0 0 5 2-1 2h-42v-1l39-1z" fill="#F5C9AB"/>
<path transform="translate(298,734)" d="m0 0 3 1-8 7-11 11v-3l9-10z" fill="#31CEB0"/>
<path transform="translate(959,633)" d="m0 0h1l1 14-1 6h-3v-9z" fill="#062C40"/>
<path transform="translate(353,802)" d="m0 0 4 2-2 5-4 4h-2l1-7h2z" fill="#EBF6F6"/>
<path transform="translate(980,634)" d="m0 0h1l1 14-1 5h-3l1-17z" fill="#062C41"/>
<path transform="translate(940,607)" d="m0 0h3l-1 8-1 14-2-4v-12z" fill="#062A3D"/>
<path transform="translate(94,671)" d="m0 0m-1 1m-1 1m-1 1m-1 1m-1 1m-1 1m-1 1m-1 1m-1 1m-1 1m-1 1v3l-5 4h-2v2l-7 2 5-5z" fill="#FDFDFD"/>
<path transform="translate(240,826)" d="m0 0 3 1 2 6v4h-4l-1-2z" fill="#17BC9A"/>
<path transform="translate(1e3 637)" d="m0 0 2 3v13h-3v-12z" fill="#062D42"/>
<path transform="translate(408,535)" d="m0 0h2l-2 9-3 9h-1v-8z" fill="#0E3A4C"/>
<path transform="translate(162,966)" d="m0 0h1l1 19 1 7-2-1v-5h-2l-1-4 1-1z" fill="#F3D7C3"/>
<path transform="translate(1385,640)" d="m0 0h1v13h2l1-8h1v8l-2 2h-4z" fill="#086A71"/>
<path transform="translate(1344,639)" d="m0 0h1l1 7v8h-4l1-7z" fill="#062D42"/>
<path transform="translate(1408,634)" d="m0 0 2 3v11l-1 5-2-2z" fill="#062A3D"/>
<path transform="translate(983,606)" d="m0 0h4l-2 10-1 2h-2z" fill="#062C40"/>
<path transform="translate(131,655)" d="m0 0h5l-12 6-7 1 2-3z" fill="#FDFDFD"/>
<path transform="translate(1e3 606)" d="m0 0 4 1-2 12h-1l-1-5z" fill="#062E44"/>
<path transform="translate(1387,639)" d="m0 0 2 3v8l-1 3h-2v-9z" fill="#062A3D"/>
<path transform="translate(1368,606)" d="m0 0h3l-1 14-2-2z" fill="#062A3E"/>
<path transform="translate(170,944)" d="m0 0 4 1-5 4-3 6h-1v-5z" fill="#EAD7C9"/>
</svg>
